<svg width="34" height="34" viewBox="0 0 34 34" fill="none" xmlns="http://www.w3.org/2000/svg">
<path d="M21.0655 0.652344H6.45678C5.00519 0.656679 3.61429 1.23524 2.58785 2.26168C1.56142 3.28811 0.982851 4.67901 0.978516 6.13061V20.7393C0.982851 22.1909 1.56142 23.5818 2.58785 24.6082C3.61429 25.6347 5.00519 26.2132 6.45678 26.2176H21.0655C22.5171 26.2132 23.908 25.6347 24.9344 24.6082C25.9608 23.5818 26.5394 22.1909 26.5437 20.7393V6.13061C26.5394 4.67901 25.9608 3.28811 24.9344 2.26168C23.908 1.23524 22.5171 0.656679 21.0655 0.652344ZM17.4133 15.261H15.5872V17.0871C15.5872 17.5714 15.3948 18.0359 15.0524 18.3784C14.7099 18.7208 14.2454 18.9132 13.7611 18.9132C13.2768 18.9132 12.8123 18.7208 12.4699 18.3784C12.1274 18.0359 11.935 17.5714 11.935 17.0871V15.261H10.109C9.62464 15.261 9.16017 15.0686 8.81771 14.7262C8.47526 14.3837 8.28286 13.9193 8.28286 13.435C8.28286 12.9506 8.47526 12.4862 8.81771 12.1437C9.16017 11.8013 9.62464 11.6089 10.109 11.6089H11.935V9.78278C11.935 9.29847 12.1274 8.834 12.4699 8.49154C12.8123 8.14908 13.2768 7.95669 13.7611 7.95669C14.2454 7.95669 14.7099 8.14908 15.0524 8.49154C15.3948 8.834 15.5872 9.29847 15.5872 9.78278V11.6089H17.4133C17.8976 11.6089 18.3621 11.8013 18.7045 12.1437C19.047 12.4862 19.2394 12.9506 19.2394 13.435C19.2394 13.9193 19.047 14.3837 18.7045 14.7262C18.3621 15.0686 17.8976 15.261 17.4133 15.261Z" fill="#9B7E60"/>
<path d="M24.7199 33.5222H8.28507C7.80076 33.5222 7.33629 33.3298 6.99383 32.9873C6.65138 32.6449 6.45898 32.1804 6.45898 31.6961C6.45898 31.2118 6.65138 30.7473 6.99383 30.4048C7.33629 30.0624 7.80076 29.87 8.28507 29.87H24.7199C26.1728 29.87 27.5662 29.2928 28.5936 28.2654C29.6209 27.2381 30.1981 25.8447 30.1981 24.3917V7.95695C30.1981 7.47264 30.3905 7.00817 30.733 6.66571C31.0754 6.32325 31.5399 6.13086 32.0242 6.13086C32.5085 6.13086 32.973 6.32325 33.3154 6.66571C33.6579 7.00817 33.8503 7.47264 33.8503 7.95695V24.3917C33.8474 26.8124 32.8845 29.1331 31.1728 30.8447C29.4612 32.5564 27.1405 33.5193 24.7199 33.5222Z" fill="#9B7E60"/>
</svg>
