<svg width="88" height="22" viewBox="0 0 88 22" fill="none" xmlns="http://www.w3.org/2000/svg">
<path fill-rule="evenodd" clip-rule="evenodd" d="M12.2054 0.416633L8.51003 11.2219L4.78519 0.416934H0.445312L6.88547 16.4444H10.1051L16.5453 0.416633H12.2054ZM31.2183 5.00024C31.2183 6.27786 30.2103 7.16672 29.0341 7.16672C27.8582 7.16672 26.8505 6.27786 26.8505 5.00024C26.8505 3.72232 27.8582 2.83376 29.0341 2.83376C30.2103 2.83376 31.2187 3.72232 31.2187 5.00024H31.2183ZM26.1777 13.8611C28.8939 13.8611 30.4339 12.5555 31.8903 10.6671C32.6738 9.63952 33.7098 9.44423 34.41 10.0003C35.1659 10.5837 35.1938 11.6393 34.41 12.6669C32.3103 15.4448 29.6221 17.1112 26.1777 17.1112C22.4258 17.1112 19.2058 15.056 16.882 11.5283C16.2383 10.6114 16.4059 9.55587 17.1058 9.05577C17.862 8.52799 18.898 8.75006 19.5702 9.75025C21.2501 12.1945 23.4067 13.8611 26.178 13.8611H26.1777ZM41.5516 8.38898C41.5516 11.667 43.4556 13.3893 45.5839 13.3893C47.5996 13.3893 49.6719 11.778 49.6719 8.38898C49.6719 5.05531 47.5996 3.44459 45.6116 3.44459C43.4557 3.44459 41.5516 4.97226 41.5516 8.38898V8.38898ZM41.5516 0.444316V2.63938C42.6438 1.13909 44.3514 0.000488281 46.8435 0.000488281C49.9798 0.000488281 53.6477 2.6111 53.6477 8.1949C53.6477 14.0281 50.12 16.8617 46.5074 16.8617C44.5756 16.8617 42.8677 16.1113 41.5516 14.3333V22.0002H37.6037V0.444316H41.5516V0.444316ZM60.5089 8.38898C60.5089 11.667 62.4126 13.3893 64.5409 13.3893C66.5566 13.3893 68.6286 11.778 68.6286 8.38898C68.6286 5.05531 66.5566 3.44459 64.5686 3.44459C62.4126 3.44459 60.5086 4.97226 60.5086 8.38898H60.5089ZM60.5089 0.444316V2.63938C61.6008 1.13909 63.3084 0.000488281 65.8005 0.000488281C68.9368 0.000488281 72.6047 2.6111 72.6047 8.1949C72.6047 14.0281 69.0767 16.8617 65.4644 16.8617C63.5326 16.8617 61.8247 16.1113 60.5086 14.3333V22.0002H56.5607V0.444316H60.5086H60.5089Z" fill="white"/>
<mask id="mask0_970_21755" style="mask-type:alpha" maskUnits="userSpaceOnUse" x="74" y="0" width="14" height="17">
<path d="M87.5563 0V16.8612H74.2285V0H87.5566H87.5563Z" fill="white"/>
</mask>
<g mask="url(#mask0_970_21755)">
<path fill-rule="evenodd" clip-rule="evenodd" d="M80.9479 0C84.1964 0 86.5762 1.49969 87.5566 5.27778L84.0002 5.83325C83.9443 3.91651 82.7404 3.33367 81.0322 3.33367C79.688 3.33367 78.7083 3.91651 78.7083 4.83336C78.7083 5.55552 79.212 6.30566 80.7243 6.58339L83.44 7.08288C86.0999 7.58358 87.5283 9.30533 87.5283 11.6668C87.5283 15.1389 84.3643 16.8615 81.396 16.8615C78.26 16.8615 74.7882 15.2499 74.2285 11.3334L77.7843 10.7776C77.9804 12.8057 79.2406 13.5279 81.2563 13.5279C82.7963 13.5279 83.8323 12.9724 83.8323 12.0002C83.8323 11.139 83.3563 10.4999 81.6761 10.1945L79.212 9.75036C76.6083 9.27795 75.0127 7.44426 75.0127 5.11109C75.0127 1.49969 78.3159 0 80.9479 0Z" fill="white"/>
</g>
</svg>
