<svg width="41" height="40" viewBox="0 0 41 40" fill="none" xmlns="http://www.w3.org/2000/svg">
<path d="M20.5 5.69922L37.8525 14.3755L20.5 23.0517L3.1475 14.3755L20.5 5.69922ZM20.2206 24.313C20.3074 24.3563 20.403 24.3789 20.5 24.3789C20.597 24.3789 20.6926 24.3563 20.7794 24.313L34.875 17.2617L37.8525 18.7505L20.5 27.4267L3.1475 18.7505L6.125 17.2617L20.2206 24.313ZM2.375 19.7617L19.875 28.5117V29.6142L2.375 20.8642V19.7617ZM37.8525 25.6255L20.5 34.3017L3.1475 25.6255L6.125 24.1367L20.2206 31.188C20.3074 31.2313 20.403 31.2539 20.5 31.2539C20.597 31.2539 20.6926 31.2313 20.7794 31.188L34.875 24.1367L37.8525 25.6255ZM21.125 29.6142V28.5117L38.625 19.7617V20.8642L21.125 29.6142Z" fill="#9B7E60"/>
</svg>
