<svg width="41" height="40" viewBox="0 0 41 40" fill="none" xmlns="http://www.w3.org/2000/svg">
<g clip-path="url(#clip0_691_19554)">
<path d="M39.6823 35.1637L37.0745 32.5559C36.565 32.0465 35.7396 32.0465 35.23 32.5559C34.7206 33.065 34.7206 33.8912 35.23 34.4004L35.6122 34.7826H10.6055L10.9876 34.4004C11.4971 33.8913 11.4971 33.0651 10.9876 32.5559C10.4782 32.0465 9.65273 32.0465 9.1432 32.5559L6.53539 35.1637C6.27953 35.4191 6.15234 35.7676 6.15234 36.0868C6.15234 36.4129 6.28625 36.7613 6.53539 37.01L9.1432 39.6178C9.65273 40.1273 10.478 40.1273 10.9876 39.6178C11.4971 39.1087 11.4971 38.2825 10.9876 37.7733L10.6055 37.3911H35.6122L35.23 37.7733C34.7206 38.2824 34.7206 39.1086 35.23 39.6178C35.7396 40.1273 36.5649 40.1273 37.0745 39.6178L39.6823 37.01C39.9377 36.7551 40.0653 36.4068 40.0653 36.0868C40.0653 35.7522 39.9316 35.4124 39.6823 35.1637Z" fill="#9B7E60"/>
<path d="M6.53518 27.3385L6.153 27.7206V4.45302L6.53518 4.83521C7.04471 5.34474 7.87003 5.34474 8.37963 4.83521C8.88916 4.32568 8.88916 3.50036 8.37963 2.99076L5.77089 0.382089C5.26144 -0.127363 4.43597 -0.127363 3.92644 0.382089L1.31777 2.99076C0.808242 3.50029 0.808242 4.3256 1.31777 4.83521C1.82722 5.34466 2.65269 5.34466 3.16222 4.83521L3.54433 4.45302V27.7206L3.16214 27.3384C2.65269 26.829 1.82722 26.829 1.31769 27.3384C0.808164 27.848 0.808164 28.6733 1.31769 29.1829L3.92636 31.7916C4.43589 32.3011 5.2612 32.3011 5.77081 31.7916L8.37948 29.1829C8.88901 28.6734 8.88901 27.8481 8.37956 27.3385C7.8701 26.8291 7.04464 26.8291 6.53518 27.3385Z" fill="#9B7E60"/>
<path d="M33.5432 10.4347H40.0649V1.30437C40.0649 0.583827 39.4806 0 38.7605 0H20.9344V10.4347H27.4561C28.1762 10.4347 28.7605 11.0186 28.7605 11.7391C28.7605 12.4597 28.1762 13.0435 27.4561 13.0435H20.9344V16.9565C20.9344 17.6771 20.3501 18.2609 19.6301 18.2609C18.91 18.2609 18.3257 17.6771 18.3257 16.9565V0H12.6735C11.9534 0 11.3691 0.583827 11.3691 1.30437V28.2608C11.3691 28.9814 11.9534 29.5652 12.6735 29.5652H18.3257V23.0435C18.3257 22.3229 18.91 21.7391 19.6301 21.7391C20.3501 21.7391 20.9344 22.3229 20.9344 23.0435V29.5652H38.7605C39.4806 29.5652 40.0649 28.9814 40.0649 28.2608V13.0435H33.5432C32.8231 13.0435 32.2388 12.4597 32.2388 11.7391C32.2388 11.0186 32.823 10.4347 33.5432 10.4347Z" fill="#9B7E60"/>
</g>
<defs>
<clipPath id="clip0_691_19554">
<rect width="40" height="40" fill="white" transform="translate(0.5)"/>
</clipPath>
</defs>
</svg>
