<svg width="41" height="20" viewBox="0 0 41 20" fill="none" xmlns="http://www.w3.org/2000/svg">
<path d="M40.343 9.3623L31.297 0.316217C30.9721 -0.0632302 30.401 -0.107464 30.0215 0.217565C29.6421 0.542517 29.5979 1.11359 29.9229 1.49304C29.9532 1.52841 29.9862 1.56145 30.0215 1.59169L37.5207 9.09993H1.70731C1.20776 9.09993 0.802734 9.50495 0.802734 10.0046C0.802734 10.5042 1.20776 10.9092 1.70731 10.9092H37.5207L30.0215 18.4083C29.6421 18.7333 29.5979 19.3043 29.9229 19.6838C30.2479 20.0632 30.8189 20.1075 31.1984 19.7824C31.2337 19.7521 31.2668 19.7192 31.297 19.6838L40.3431 10.6377C40.6938 10.285 40.6938 9.71516 40.343 9.3623Z" fill="#222222"/>
</svg>
