<svg width="41" height="40" viewBox="0 0 41 40" fill="none" xmlns="http://www.w3.org/2000/svg">
<g clip-path="url(#clip0_2655_2602)">
<path d="M20.8902 17.7902C20.1384 18.0577 19.3281 17.4999 19.3281 16.6848V9.45312H13.7457C12.7342 9.45312 12.1985 10.6524 12.8725 11.4066C13.257 11.8358 13.4688 12.3909 13.4688 12.9688C13.4688 14.2608 12.417 15.3125 11.125 15.3125C9.83297 15.3125 8.78125 14.2608 8.78125 12.9688C8.78125 12.3909 8.99297 11.8358 9.3775 11.4066C10.0515 10.6524 9.51578 9.45312 8.5043 9.45312H4.01562C2.07703 9.45312 0.5 11.0302 0.5 12.9688V27.0312C0.5 28.9698 2.07703 30.5469 4.01562 30.5469H6.4375C6.4375 33.1321 8.53977 35.2344 11.125 35.2344C13.7102 35.2344 15.8125 33.1321 15.8125 30.5469H19.3281V23.3154C19.3281 22.511 20.165 21.9584 20.8902 22.2099C22.3459 22.7284 24.0145 21.5588 24.0156 20.0001C24.0156 18.4391 22.3482 17.2706 20.8902 17.7902Z" fill="#EFE8DE"/>
<path d="M36.9844 9.45312H34.5625C34.5625 6.86789 32.4602 4.76562 29.875 4.76562C27.2898 4.76562 25.1875 6.86789 25.1875 9.45312H21.6719V15.3125C24.2571 15.3125 26.3594 17.4148 26.3594 20C26.3594 22.5852 24.2571 24.6875 21.6719 24.6875V30.5469H36.9844C38.923 30.5469 40.5 28.9698 40.5 27.0312V12.9688C40.5 11.0302 38.923 9.45312 36.9844 9.45312Z" fill="#EFE8DE"/>
</g>
<defs>
<clipPath id="clip0_2655_2602">
<rect width="40" height="40" fill="white" transform="translate(0.5)"/>
</clipPath>
</defs>
</svg>
