<svg width="101" height="78" viewBox="0 0 101 78" fill="none" xmlns="http://www.w3.org/2000/svg">
<path d="M6.62186 55.799C4.59497 42.6176 2.56697 29.4362 0.537859 16.2547C0.438898 15.607 0.534987 14.9444 0.813886 14.3515C1.09278 13.7586 1.54187 13.2621 2.10393 12.9253C2.66599 12.5885 3.31559 12.4266 3.96998 12.4603C4.62436 12.4939 5.25391 12.7216 5.77843 13.1144L24.7338 27.3293C25.2264 27.6988 25.7891 27.964 26.3877 28.1087C26.9862 28.2533 27.608 28.2743 28.2149 28.1704C28.8218 28.0664 29.4012 27.8398 29.9175 27.5043C30.4339 27.1688 30.8763 26.7315 31.2179 26.2191L46.9996 2.53654C47.3843 1.96102 47.905 1.48924 48.5156 1.16298C49.1261 0.836707 49.8077 0.666016 50.5 0.666016C51.1923 0.666016 51.8738 0.836707 52.4844 1.16298C53.095 1.48924 53.6157 1.96102 54.0004 2.53654L69.7821 26.2058C70.1237 26.7182 70.5661 27.1555 71.0825 27.491C71.5988 27.8265 72.1782 28.0531 72.7851 28.157C73.392 28.2609 74.0138 28.2399 74.6123 28.0953C75.2109 27.9507 75.7736 27.6855 76.2662 27.3159L95.2216 13.101C95.7461 12.7083 96.3756 12.4806 97.03 12.4469C97.6844 12.4133 98.334 12.5751 98.8961 12.9119C99.4581 13.2487 99.9072 13.7452 100.186 14.3382C100.465 14.9311 100.561 15.5936 100.462 16.2414C98.433 29.4228 96.405 42.6043 94.3781 55.7857L6.62186 55.799Z" fill="#9B7E60"/>
<path d="M6.61719 63.1113H94.3802V73.1624C94.3802 73.7635 94.2618 74.3587 94.0317 74.914C93.8017 75.4694 93.4646 75.974 93.0395 76.399C92.6145 76.824 92.1099 77.1612 91.5546 77.3912C90.9993 77.6212 90.4041 77.7396 89.803 77.7396H11.1944C9.98042 77.7396 8.8162 77.2574 7.95781 76.399C7.09942 75.5406 6.61719 74.3764 6.61719 73.1624V63.1113Z" fill="#9B7E60"/>
</svg>
