<svg width="41" height="40" viewBox="0 0 41 40" fill="none" xmlns="http://www.w3.org/2000/svg">
<g clip-path="url(#clip0_2655_2919)">
<path d="M8.92299 16.1244C9.36792 16.784 9.72572 17.4984 9.98756 18.2498C10.7065 20.2495 10.9227 22.6301 10.977 24.285H30.0217C30.0769 22.631 30.293 20.2485 31.012 18.2488C31.273 17.4984 31.6302 16.7849 32.0747 16.1263C32.6562 15.2926 33.3795 14.5675 34.2115 13.9837C34.5119 13.765 34.8243 13.5634 35.1475 13.38C32.9602 8.51501 27.2144 5.24023 20.4993 5.24023C14.1364 5.24023 8.52394 8.61785 6.25 13.6199C6.4347 13.7389 6.6128 13.8609 6.78608 13.9837C7.61694 14.5682 8.33995 15.2925 8.92299 16.1244Z" fill="#EFE8DE"/>
<path d="M39.7872 15.4349C39.3054 14.9521 38.7103 14.8197 38.3542 14.7407C37.8641 14.6317 37.3559 14.6317 36.8658 14.7407C36.243 14.8807 35.8498 15.1578 35.3042 15.5425C34.6564 15.9967 34.0931 16.5606 33.6397 17.2089C33.2915 17.7333 33.0103 18.2992 32.8027 18.8934C32.0209 21.0473 31.9067 23.7936 31.9057 25.2372C31.9057 25.7631 31.4793 26.1894 30.9534 26.1894H10.0423C9.51639 26.1894 9.09003 25.7631 9.09003 25.2372C9.09003 23.7926 8.97004 21.0473 8.19588 18.8934C7.98751 18.2986 7.70604 17.7322 7.35788 17.2069C6.90348 16.5588 6.33955 15.9949 5.69143 15.5405C5.1458 15.1596 4.75158 14.8739 4.12783 14.7378C3.63844 14.6278 3.13075 14.6278 2.64136 14.7378C2.28427 14.8168 1.68909 14.9501 1.20631 15.4329C1.19872 15.4415 0.349298 16.3223 0.523557 17.4716C0.713975 18.701 1.88808 19.3838 2.63368 19.5418C2.90471 19.5988 3.1853 19.5926 3.45356 19.5236C3.77735 19.4618 4.22201 19.3761 4.72667 19.6046C6.31598 20.3226 6.48926 23.046 5.31703 28.9851C5.91595 30.7448 6.67013 30.8809 7.24147 30.9476H9.08878V33.8043C9.08878 34.3302 9.51514 34.7566 10.041 34.7566H10.9933C11.5192 34.7566 11.9456 34.3302 11.9456 33.8043V30.9505H29.0534V33.8072C29.0534 34.3331 29.4798 34.7595 30.0057 34.7595H30.958C31.4839 34.7595 31.9102 34.3331 31.9102 33.8072V30.9505H33.7575C34.3289 30.8848 35.083 30.7477 35.682 28.9879C34.5097 23.0498 34.6831 20.3225 36.2723 19.6075C36.777 19.3789 37.2246 19.4637 37.5464 19.5265C37.8152 19.5939 38.0958 19.5998 38.3673 19.5436C39.1129 19.3855 40.2889 18.7028 40.4774 17.4744C40.648 16.3252 39.7958 15.4444 39.7872 15.4349Z" fill="#EFE8DE"/>
</g>
<defs>
<clipPath id="clip0_2655_2919">
<rect width="40" height="40" fill="white" transform="translate(0.5)"/>
</clipPath>
</defs>
</svg>
