<svg width="41" height="40" viewBox="0 0 41 40" fill="none" xmlns="http://www.w3.org/2000/svg">
<g clip-path="url(#clip0_2651_6204)">
<path d="M40.1564 16.916C40.614 16.4584 40.614 15.7164 40.1564 15.2587L25.241 0.343242C24.7834 -0.114414 24.0414 -0.114414 23.5837 0.343242L17.7832 6.14363L34.3559 22.7165L40.1564 16.916Z" fill="#EFE8DE"/>
<path d="M12.5012 37.9386C13.8305 36.6093 14.5627 34.8443 14.5626 32.9687C14.5626 31.5638 16.8455 28.7357 19.1802 27.7686C19.8554 27.489 20.7759 27.2713 21.327 27.8223C21.9056 28.4008 21.9654 28.4607 21.9674 28.4627C21.9696 28.4649 21.9719 28.4673 21.9741 28.4695C22.8568 29.3521 24.0339 29.8382 25.2888 29.8382C26.5435 29.8381 27.7207 29.352 28.6034 28.4693L32.6991 24.3736L16.1264 7.80078L12.0305 11.8966C11.1479 12.7793 10.6617 13.9564 10.6617 15.2113C10.6617 16.4661 11.1478 17.6432 12.0316 18.5271C12.0349 18.5304 12.081 18.5763 12.6777 19.173C12.9118 19.4071 13.0209 19.6944 13.0209 20.077C13.0209 22.3761 9.37383 25.9374 7.53133 25.9374C3.65445 25.9373 0.500156 29.0915 0.5 32.9685V32.9687C0.500078 34.8444 1.23219 36.6094 2.56148 37.9384C3.8907 39.2678 5.6557 39.9998 7.53133 39.9998C9.40695 39.9998 11.172 39.2678 12.5012 37.9386ZM6.35938 32.9686C6.35938 32.3214 6.88406 31.7967 7.53125 31.7967C8.17844 31.7967 8.70312 32.3214 8.70312 32.9686C8.70312 33.6158 8.17844 34.1405 7.53125 34.1405C6.88406 34.1405 6.35938 33.6159 6.35938 32.9686Z" fill="#EFE8DE"/>
</g>
<defs>
<clipPath id="clip0_2651_6204">
<rect width="40" height="40" fill="white" transform="translate(0.5)"/>
</clipPath>
</defs>
</svg>
