<svg width="31" height="33" viewBox="0 0 31 33" fill="none" xmlns="http://www.w3.org/2000/svg">
<path d="M16 32.5536C11.7565 32.5536 7.68686 30.868 4.68628 27.8674C1.68571 24.8668 0 20.7972 0 16.5537C0 12.3102 1.68571 8.24057 4.68628 5.24C7.68686 2.23942 11.7565 0.553711 16 0.553711C16.3264 0.553711 16.6395 0.683385 16.8702 0.914194C17.1011 1.145 17.2307 1.45806 17.2307 1.78448C17.2307 2.11089 17.1011 2.42395 16.8702 2.65476C16.6395 2.88557 16.3264 3.01524 16 3.01524C12.4094 3.01524 8.96581 4.4416 6.42685 6.98056C3.88791 9.5195 2.46153 12.9631 2.46153 16.5537C2.46153 20.1442 3.88791 23.5879 6.42685 26.1267C8.96581 28.6657 12.4094 30.0921 16 30.0921C17.7939 30.098 19.571 29.7437 21.2256 29.0502C22.8803 28.3569 24.3789 27.3383 25.6328 26.0552C25.8635 25.8223 26.1771 25.6907 26.505 25.6891C26.8327 25.6876 27.1476 25.8163 27.3805 26.047C27.6133 26.2777 27.7449 26.5913 27.7466 26.9192C27.748 27.2469 27.6194 27.5618 27.3887 27.7947C25.9034 29.3069 24.1307 30.507 22.175 31.3242C20.219 32.1416 18.1197 32.5596 16 32.5536Z" fill="#9B7E60"/>
<path d="M15.5077 22.2153C15.3461 22.2161 15.1857 22.1844 15.0364 22.1225C14.8871 22.0605 14.7515 21.9693 14.638 21.8542L8.07386 15.2901C7.85646 15.0568 7.73811 14.7483 7.74372 14.4294C7.74935 14.1106 7.87853 13.8063 8.10402 13.5808C8.32952 13.3554 8.63375 13.2261 8.9526 13.2205C9.27145 13.2149 9.58004 13.3332 9.81335 13.5507L15.5077 19.245L28.6359 6.11682C28.7486 5.99589 28.8845 5.89891 29.0355 5.83164C29.1864 5.76438 29.3494 5.72819 29.5146 5.72529C29.6799 5.72237 29.844 5.75278 29.9973 5.81468C30.1505 5.87658 30.2897 5.9687 30.4065 6.08558C30.5234 6.20245 30.6156 6.34166 30.6775 6.49491C30.7393 6.64817 30.7699 6.81232 30.7669 6.97757C30.764 7.14282 30.7278 7.30581 30.6606 7.45678C30.5933 7.60776 30.4963 7.74363 30.3754 7.8563L16.4267 21.805C16.3125 21.9359 16.171 22.0405 16.0123 22.1114C15.8536 22.1821 15.6815 22.2175 15.5077 22.2153Z" fill="#9B7E60"/>
</svg>
