<?xml version="1.0" standalone="no"?>
<!DOCTYPE svg PUBLIC "-//W3C//DTD SVG 20010904//EN"
 "http://www.w3.org/TR/2001/REC-SVG-20010904/DTD/svg10.dtd">
<svg version="1.0" xmlns="http://www.w3.org/2000/svg"
 width="398.000000pt" height="265.000000pt" viewBox="0 0 398.000000 265.000000"
 preserveAspectRatio="xMidYMid meet">

<g transform="translate(0.000000,265.000000) scale(0.100000,-0.100000)"
fill="#000000" stroke="none">
<path d="M290 2640 c-12 -8 -11 -10 8 -10 12 0 22 5 22 10 0 13 -11 13 -30 0z"/>
<path d="M437 2635 c6 -18 23 -20 23 -3 0 6 7 3 15 -8 10 -13 17 -16 22 -7 6
8 16 8 41 -2 17 -8 32 -18 31 -22 -1 -17 -18 -47 -18 -35 -1 10 -4 10 -16 -2
-8 -8 -15 -18 -15 -21 0 -4 -11 -20 -25 -37 -14 -16 -25 -36 -25 -43 0 -15
-60 -31 -93 -26 -16 2 -18 -3 -15 -31 1 -18 -1 -34 -7 -34 -26 -4 -55 -17 -55
-25 0 -12 44 -29 75 -29 20 0 26 -7 35 -40 6 -22 16 -40 23 -40 25 0 86 62
132 134 51 81 65 92 96 73 25 -15 41 5 34 43 -2 14 -6 58 -7 98 -1 45 -7 72
-14 72 -14 0 -44 -33 -44 -48 0 -7 -9 -12 -20 -12 -11 0 -20 4 -20 10 0 5 -11
12 -25 16 -14 3 -25 12 -25 19 0 9 -17 13 -55 14 -43 0 -53 -3 -48 -14z m210
-107 c-3 -8 -6 -5 -6 6 -1 11 2 17 5 13 3 -3 4 -12 1 -19z m8 -28 c3 -5 1 -10
-4 -10 -6 0 -11 5 -11 10 0 6 2 10 4 10 3 0 8 -4 11 -10z m-290 -160 c3 -5 -1
-10 -9 -10 -9 0 -16 5 -16 10 0 6 4 10 9 10 6 0 13 -4 16 -10z"/>
<path d="M714 2620 c1 -16 5 -30 9 -30 4 0 7 -6 6 -12 -1 -7 -1 -26 0 -42 1
-24 4 -27 22 -23 20 6 66 -16 81 -38 4 -5 11 -15 15 -21 4 -6 19 -15 33 -19
l25 -7 -24 26 c-14 14 -21 29 -18 33 4 3 7 1 7 -5 0 -7 7 -12 15 -12 9 0 18
-7 21 -15 4 -8 12 -15 20 -15 17 0 18 -12 3 -27 -9 -9 -6 -20 10 -46 27 -44
26 -50 -5 -78 -14 -13 -29 -33 -34 -44 -11 -29 13 -119 33 -123 22 -4 87 64
87 92 0 12 4 26 9 32 12 13 22 86 10 79 -5 -4 -9 -3 -9 1 0 10 43 79 52 82 4
2 6 22 3 45 -3 23 -3 35 1 27 3 -8 10 -25 16 -37 8 -17 7 -28 -5 -46 -15 -23
-13 -37 4 -37 4 0 10 18 14 39 5 30 10 38 21 34 10 -4 17 2 21 16 7 26 12 26
29 4 12 -17 13 -17 14 -1 0 9 -10 24 -22 33 -22 15 -22 15 12 9 19 -4 43 -11
52 -15 9 -5 38 -9 64 -9 42 0 51 -4 80 -36 20 -23 36 -34 44 -29 9 6 9 9 0 15
-7 4 -14 35 -17 69 -5 55 -3 61 13 62 14 1 12 3 -6 8 -14 4 -24 12 -23 18 1 6
-15 24 -37 42 -31 24 -48 31 -84 31 -25 0 -48 -5 -51 -10 -4 -6 -26 -8 -56 -4
-39 5 -49 4 -49 -8 0 -8 12 -19 28 -25 l27 -12 -30 2 c-25 2 -31 7 -33 30 -3
25 -6 27 -53 27 -37 0 -49 -4 -49 -15 0 -19 -10 -19 -38 1 -31 22 -118 16
-114 -8 2 -12 -7 -19 -32 -24 -23 -4 -38 -13 -42 -26 -7 -23 -30 -18 -26 6 3
19 -23 66 -37 66 -4 0 -8 -13 -7 -30z m323 -22 c-3 -8 -6 -5 -6 6 -1 11 2 17
5 13 3 -3 4 -12 1 -19z m53 -13 c0 -8 -4 -15 -10 -15 -5 0 -10 7 -10 15 0 8 5
15 10 15 6 0 10 -7 10 -15z m-50 -75 c0 -5 -5 -10 -11 -10 -5 0 -7 5 -4 10 3
6 8 10 11 10 2 0 4 -4 4 -10z m90 6 c0 -11 -19 -15 -25 -6 -3 5 1 10 9 10 9 0
16 -2 16 -4z m-182 -281 c-3 -3 -9 2 -12 12 -6 14 -5 15 5 6 7 -7 10 -15 7
-18z"/>
<path d="M1860 2640 c0 -13 11 -13 30 0 12 8 11 10 -7 10 -13 0 -23 -4 -23
-10z"/>
<path d="M2357 2643 c-4 -3 -24 -8 -44 -10 -44 -5 -53 -11 -33 -24 19 -12 46
-6 43 9 -2 7 2 12 7 12 14 0 12 -37 -2 -44 -7 -3 7 -5 32 -4 25 0 58 -4 73
-11 38 -15 47 -14 47 5 0 12 -6 15 -24 10 -15 -4 -28 0 -36 9 -7 8 -16 12 -21
9 -5 -3 -9 0 -9 5 0 15 -18 14 -23 -1 -2 -7 -3 -1 -1 15 4 28 2 32 -9 20z"/>
<path d="M2623 2643 c-8 -3 -13 -22 -13 -45 0 -43 27 -78 60 -78 9 0 20 -3 24
-7 15 -16 91 -10 112 8 29 27 84 32 84 9 0 -10 6 -23 14 -29 21 -17 13 -45
-15 -52 -13 -3 -23 -11 -22 -17 2 -6 -6 -14 -17 -17 -10 -3 -20 -15 -22 -26
-2 -11 -7 -19 -12 -19 -5 1 -13 -4 -17 -12 -7 -10 -9 -10 -9 0 0 6 -12 12 -26
12 -30 0 -71 38 -66 61 2 10 -15 23 -52 39 -30 12 -54 26 -53 30 2 8 -3 10
-21 10 -11 0 -42 -72 -39 -91 4 -27 28 -50 41 -40 11 8 76 12 76 4 0 -13 -31
-32 -43 -27 -10 3 -16 -3 -19 -19 -4 -18 3 -34 24 -56 35 -37 40 -38 54 -7 9
20 9 26 -2 30 -8 3 -14 17 -14 31 0 23 3 25 28 18 15 -4 41 -7 57 -6 17 0 22
-2 13 -4 -10 -2 -18 -9 -18 -15 0 -7 15 -8 41 -4 36 6 43 3 60 -18 11 -14 28
-28 39 -31 10 -3 22 -16 26 -28 4 -12 10 -24 14 -27 4 -3 10 -17 14 -32 7 -29
-9 -39 -30 -18 -6 6 -35 13 -65 17 -30 3 -57 11 -61 16 -9 14 -74 -6 -71 -21
2 -7 -11 -41 -27 -77 -17 -36 -30 -71 -30 -78 0 -18 37 -47 60 -47 17 0 18 -3
9 -18 -9 -14 -7 -26 10 -55 23 -41 26 -51 12 -42 -14 8 -51 -45 -51 -74 0 -19
9 -32 29 -44 40 -23 62 -21 31 3 l-25 19 40 -11 c22 -7 43 -17 47 -23 5 -7 8
-7 8 0 0 6 -7 21 -16 33 -10 15 -12 27 -6 35 23 30 22 48 -3 57 -29 11 -31 24
-10 74 13 31 13 36 1 36 -19 0 -46 38 -40 55 3 7 0 16 -6 20 -8 5 -8 11 1 21
9 11 9 14 -1 14 -9 0 -10 3 -1 14 6 7 9 20 5 29 -7 20 9 29 41 21 15 -4 30
-17 36 -31 8 -21 12 -23 24 -13 14 11 19 7 16 -12 -2 -13 13 -8 39 12 32 25
42 25 58 0 7 -12 18 -18 24 -14 7 4 8 3 4 -5 -5 -7 3 -26 18 -46 23 -30 24
-35 11 -49 -19 -18 -19 -26 -1 -26 8 0 18 9 21 20 4 14 15 20 35 20 22 0 28 4
24 15 -4 10 0 15 15 15 12 0 32 7 45 15 14 10 38 14 60 12 62 -7 69 34 17 103
-14 19 -25 41 -23 48 4 17 -6 15 -29 -7 -20 -18 -20 -20 -3 -29 16 -9 13 -11
-19 -17 -41 -8 -50 -24 -14 -26 16 -1 18 -2 5 -6 -10 -2 -35 3 -56 12 -33 15
-38 22 -39 51 -1 41 -30 75 -44 53 -7 -11 -9 -11 -9 4 0 20 -26 23 -33 5 -3
-7 -6 -3 -6 9 -1 18 4 22 21 20 13 -1 23 4 23 11 0 7 7 17 15 22 13 9 13 11 0
20 -11 7 -7 8 16 4 18 -3 46 1 68 10 39 16 40 18 21 71 -4 13 -1 11 9 -5 14
-24 15 -24 22 -5 4 11 11 23 16 26 14 10 -3 39 -23 39 -10 0 -19 -5 -19 -11 0
-6 -16 -9 -37 -7 l-38 3 -2 53 c-1 45 0 50 13 38 8 -8 14 -19 14 -24 0 -6 7
-12 15 -16 8 -3 15 -13 15 -21 0 -33 18 -4 24 40 4 24 11 47 17 50 15 10 10
34 -12 56 -19 19 -28 20 -197 14 -97 -3 -195 -6 -217 -8 -22 -1 -49 1 -60 5
-11 3 -26 4 -32 1z m347 -155 c0 18 18 15 42 -8 12 -11 18 -20 14 -20 -5 0 -3
-7 4 -15 16 -20 5 -33 -35 -41 -19 -3 -35 -12 -35 -19 0 -8 8 -11 19 -8 10 3
22 0 25 -6 5 -7 -4 -11 -24 -11 -22 0 -31 -4 -27 -12 3 -8 -5 -14 -19 -14 -20
-2 -21 1 -11 17 6 10 15 19 19 19 5 0 8 9 8 20 0 11 5 20 12 20 6 0 8 3 4 7
-4 4 -23 6 -43 4 -23 -2 -33 1 -29 8 4 6 14 11 22 11 8 0 15 5 15 10 3 20 4
25 13 39 7 11 10 11 17 0 6 -10 9 -11 9 -1z m-403 -70 c-3 -8 -6 -5 -6 6 -1
11 2 17 5 13 3 -3 4 -12 1 -19z m337 -22 c-21 -15 -30 -14 -19 3 3 6 14 11 23
11 13 0 13 -2 -4 -14z m57 -92 c11 -14 10 -15 -11 -12 -13 1 -25 9 -28 16 -5
17 23 15 39 -4z m-51 -169 c0 -7 -30 -13 -34 -7 -3 4 4 9 15 9 10 1 19 0 19
-2z m300 -15 c0 -5 -5 -10 -11 -10 -5 0 -7 5 -4 10 3 6 8 10 11 10 2 0 4 -4 4
-10z m-206 -45 c-7 -18 12 -20 20 -2 3 6 3 1 0 -12 -3 -13 -2 -21 3 -18 5 3 9
-3 9 -13 0 -15 -3 -16 -14 -8 -20 17 -34 47 -27 58 9 15 15 12 9 -5z m-269
-135 c3 -5 1 -10 -4 -10 -6 0 -11 5 -11 10 0 6 2 10 4 10 3 0 8 -4 11 -10z"/>
<path d="M2985 2440 c4 -6 11 -8 16 -5 14 9 11 15 -7 15 -8 0 -12 -5 -9 -10z"/>
<path d="M3206 2640 c6 -6 21 -6 39 -1 30 9 30 9 -9 10 -26 1 -37 -2 -30 -9z"/>
<path d="M3315 2634 c-20 -20 -19 -41 3 -47 16 -4 16 -5 -1 -6 -10 0 -15 -5
-12 -11 3 -5 0 -10 -9 -10 -8 0 -29 -12 -46 -26 -40 -34 -38 -73 4 -93 24 -11
30 -11 37 0 8 12 12 11 23 -3 7 -10 15 -18 17 -18 8 0 3 109 -4 116 -4 4 -7 2
-7 -4 0 -7 -8 -12 -17 -12 -12 0 -7 8 17 30 25 20 46 29 72 30 20 0 39 4 42 9
9 15 -5 19 -33 11 -16 -4 -38 -3 -55 4 -26 11 -26 11 17 12 24 0 54 8 66 16
21 15 19 16 -38 17 -42 0 -65 -4 -76 -15z"/>
<path d="M3655 2640 c3 -4 25 -17 50 -29 34 -16 43 -25 39 -38 -5 -14 -4 -15
4 -4 6 8 8 20 5 28 -3 8 -2 13 3 11 14 -4 124 24 130 34 3 4 -34 8 -83 7 -55
-1 -81 -5 -68 -10 19 -7 19 -8 -2 -8 -12 -1 -24 3 -27 8 -3 5 -17 9 -31 9 -13
0 -23 -4 -20 -8z m145 -10 c-20 -13 -33 -13 -25 0 3 6 14 10 23 10 15 0 15 -2
2 -10z"/>
<path d="M221 2599 c-6 -18 -11 -40 -11 -50 0 -26 -18 -24 -31 4 -14 31 -49
34 -48 4 0 -20 1 -21 8 -3 5 14 10 16 15 8 4 -7 4 -17 0 -24 -4 -6 -3 -8 3 -5
7 4 10 -5 8 -26 -2 -17 -8 -31 -14 -29 -6 1 -11 -4 -11 -12 0 -7 -7 -19 -16
-27 -14 -12 -15 -8 -13 29 4 55 -10 68 -49 48 -17 -9 -38 -13 -46 -10 -11 4
-16 0 -16 -11 0 -9 4 -14 9 -10 5 3 12 1 16 -5 3 -5 -1 -10 -9 -10 -13 0 -16
-14 -16 -76 0 -47 4 -73 10 -69 5 3 10 13 10 21 0 8 4 22 9 32 5 9 12 25 15
36 4 12 12 16 22 12 12 -5 15 -2 10 9 -11 30 12 5 28 -30 11 -22 24 -35 36
-35 24 0 25 -9 4 -25 -9 -6 -16 -25 -16 -41 0 -16 -9 -40 -19 -53 -29 -36 -24
-60 14 -74 64 -23 72 -18 73 43 1 30 7 68 13 83 6 16 9 32 6 37 -3 5 0 12 6
16 6 3 15 0 20 -7 4 -7 11 -11 14 -7 5 5 -13 21 -53 44 -1 0 4 28 13 60 27
102 21 96 62 79 44 -19 43 -19 43 5 0 11 -4 20 -8 20 -17 0 -62 46 -62 63 0
28 -17 19 -29 -14z m-122 -111 c0 -16 -2 -18 -6 -8 -3 8 -11 18 -17 22 -7 5
-4 8 7 8 11 0 17 -7 16 -22z"/>
<path d="M457 2606 c-3 -8 -23 -16 -44 -19 l-38 -4 43 -1 c30 -2 44 2 49 13 3
9 3 18 0 21 -2 3 -7 -2 -10 -10z"/>
<path d="M0 2600 c0 -5 8 -10 18 -11 14 0 14 -2 -3 -9 -18 -8 -18 -9 5 -10 25
-1 25 -1 3 -10 -31 -13 -29 -17 12 -18 26 -1 39 5 55 25 16 20 18 28 8 35 -19
11 -98 10 -98 -2z"/>
<path d="M135 2600 c3 -5 8 -10 11 -10 2 0 4 5 4 10 0 6 -5 10 -11 10 -5 0 -7
-4 -4 -10z"/>
<path d="M1532 2584 c-12 -8 -22 -13 -22 -9 0 3 -11 -2 -25 -11 -23 -15 -24
-17 -8 -29 15 -11 16 -15 3 -30 -8 -10 -14 -20 -12 -22 9 -12 -1 -43 -14 -43
-8 0 -12 -5 -9 -10 4 -6 0 -22 -9 -35 -14 -21 -14 -24 0 -29 22 -9 24 -8 18 9
-4 8 -2 15 4 15 5 0 20 16 31 36 21 35 47 42 45 10 -1 -9 3 -16 8 -16 6 0 8
12 5 30 -4 17 -2 30 3 30 6 0 11 -8 11 -17 1 -10 3 -28 4 -41 1 -13 -2 -21 -9
-19 -6 2 -19 -5 -28 -16 -22 -25 -22 -28 -1 -20 13 5 15 2 10 -11 -4 -9 -3
-15 2 -11 5 3 13 0 16 -5 11 -17 -26 -51 -47 -44 -15 4 -18 0 -18 -24 0 -25 5
-30 38 -38 29 -7 36 -13 34 -29 -2 -11 -7 -23 -10 -27 -12 -11 -62 4 -62 19 0
8 -4 11 -10 8 -5 -3 -10 -15 -10 -26 0 -24 -8 -24 -35 1 -20 19 -23 19 -35 5
-11 -13 -11 -21 -2 -36 7 -10 12 -32 12 -48 0 -20 6 -30 20 -34 11 -3 27 -21
35 -41 10 -24 22 -36 35 -36 11 0 20 -7 20 -16 0 -20 19 -8 30 20 8 20 9 19 9
-5 1 -35 25 -43 67 -23 40 19 40 39 1 39 -17 -1 -27 5 -27 13 0 26 32 81 44
76 7 -3 18 7 24 21 19 41 15 55 -15 55 -26 1 -27 2 -10 14 13 10 16 21 11 40
-4 19 -1 33 11 46 17 19 17 20 -13 26 -17 4 -37 13 -43 20 -6 8 -18 14 -26 14
-23 0 -32 41 -14 62 9 11 16 38 16 64 1 43 0 45 -25 40 -24 -4 -24 -4 3 7 28
11 34 22 17 32 -5 3 -10 19 -10 36 0 33 -6 35 -38 13z m58 -296 c0 -19 -2 -20
-10 -8 -13 19 -13 30 0 30 6 0 10 -10 10 -22z m60 -14 c0 -2 -9 -4 -20 -4 -11
0 -20 4 -20 9 0 5 9 7 20 4 11 -3 20 -7 20 -9z m-223 -100 c-3 -3 -12 -4 -19
-1 -8 3 -5 6 6 6 11 1 17 -2 13 -5z m20 -76 c-3 -8 -6 -5 -6 6 -1 11 2 17 5
13 3 -3 4 -12 1 -19z m187 -113 c-7 -17 -54 -21 -54 -4 0 6 7 9 15 5 8 -3 15
-1 15 4 0 6 7 10 15 10 9 0 12 -6 9 -15z"/>
<path d="M1715 2590 c-4 -6 -3 -36 2 -68 4 -31 7 -65 5 -74 -2 -18 12 -22 51
-19 25 3 32 -25 13 -54 -9 -13 -16 -35 -16 -48 0 -14 -7 -30 -15 -37 -8 -7
-15 -18 -15 -25 0 -7 -9 -41 -20 -75 -11 -35 -19 -64 -18 -64 2 -1 14 -7 28
-14 24 -12 50 -19 76 -21 14 -1 34 -74 27 -99 -2 -10 -17 -23 -33 -29 -22 -8
-30 -19 -35 -46 l-7 -36 -36 17 c-21 9 -38 20 -40 25 -2 4 -23 7 -47 7 -36 0
-44 -4 -49 -22 -3 -15 0 -27 9 -34 16 -12 10 -25 -9 -18 -7 3 -19 -8 -26 -23
-24 -48 -32 -56 -41 -41 -6 10 -9 10 -9 1 0 -7 10 -18 22 -24 35 -19 50 -38
44 -55 -3 -9 -13 -14 -21 -10 -8 3 -31 -1 -52 -9 l-38 -14 35 -1 c31 -1 33 -2
18 -14 -17 -12 -16 -14 5 -24 l22 -11 -24 0 c-24 -1 -24 -2 10 -27 27 -21 29
-25 11 -19 -21 6 -23 5 -13 -14 15 -28 51 -51 78 -51 24 0 30 19 12 37 -6 6
-7 13 -1 17 5 3 20 -6 32 -19 13 -14 28 -25 32 -25 27 0 42 -49 41 -127 -1
-15 5 -23 16 -23 9 0 27 -7 39 -16 21 -14 25 -14 47 0 24 16 25 15 40 -14 9
-16 20 -30 25 -30 14 0 12 17 -2 23 -8 3 -5 6 5 6 10 1 16 5 12 11 -3 5 -13 6
-22 3 -12 -5 -14 -3 -8 7 28 45 34 47 96 36 53 -10 78 -25 79 -48 0 -5 -9 -8
-19 -8 -11 0 -23 -4 -26 -10 -3 -5 -21 -10 -39 -10 -29 0 -34 -4 -44 -37 -10
-36 -8 -79 6 -113 14 -37 10 -50 -16 -43 -17 4 -23 2 -18 -5 5 -8 1 -10 -9 -6
-9 4 -21 0 -28 -9 -7 -8 -23 -17 -37 -20 -39 -9 -73 -45 -66 -72 9 -37 -13
-54 -81 -61 -58 -6 -63 -9 -63 -30 0 -13 5 -24 10 -24 6 0 10 8 10 18 0 10 3
13 8 6 4 -6 24 -14 45 -18 30 -6 37 -4 37 9 0 27 25 16 40 -17 12 -27 15 -30
18 -13 5 33 25 68 61 107 19 21 40 47 48 58 8 12 21 19 29 16 11 -4 13 1 9 22
-3 15 -2 20 2 12 3 -8 15 -21 25 -28 10 -7 15 -18 12 -24 -5 -8 10 -9 51 -4
l58 7 40 -43 40 -43 -34 -3 c-19 -2 -35 1 -37 8 -4 12 -51 -57 -52 -76 0 -7 8
-22 18 -33 17 -21 18 -21 51 -5 34 17 35 17 53 -6 10 -12 18 -17 18 -11 0 23
31 7 87 -48 12 -11 17 -9 36 12 13 14 46 32 79 41 70 20 66 20 65 -6 -1 -13 2
-35 6 -50 6 -21 4 -28 -7 -28 -8 0 -18 -9 -21 -21 -4 -11 -13 -18 -20 -16 -17
7 -35 -12 -28 -29 3 -8 0 -14 -6 -14 -6 0 -8 -7 -5 -15 4 -10 0 -15 -14 -15
-12 0 -24 -5 -27 -10 -4 -6 -3 -10 2 -9 4 1 23 1 41 0 26 -1 32 -5 32 -23 0
-13 -3 -18 -8 -12 -12 18 -50 23 -69 8 -16 -13 -15 -14 15 -9 23 4 32 1 32 -9
0 -8 -7 -16 -15 -20 -8 -3 -15 -11 -15 -17 0 -8 4 -9 13 0 8 6 17 8 20 4 4 -3
9 2 13 11 8 20 24 21 24 1 0 -8 9 -19 19 -25 34 -17 37 -11 8 15 -15 14 -27
34 -26 43 0 10 3 12 6 5 6 -15 33 -17 33 -3 0 16 27 11 34 -6 6 -15 9 -15 24
-2 9 8 36 23 59 34 34 15 43 24 43 45 0 14 -5 30 -10 35 -7 7 -4 16 10 29 19
17 30 82 11 71 -4 -3 -6 6 -3 19 5 31 -3 32 -19 3 -9 -18 -8 -24 6 -34 20 -15
14 -44 -10 -44 -8 0 -15 -7 -15 -15 0 -8 -7 -15 -15 -15 -18 0 -20 26 -2 33 6
3 -4 6 -25 6 -20 1 -39 -4 -41 -11 -4 -10 -6 -10 -6 0 -1 16 43 33 66 26 10
-2 8 1 -4 7 -13 7 -23 16 -23 22 0 5 -7 4 -15 -3 -9 -7 -18 -10 -22 -6 -3 3
-2 6 4 6 17 0 23 43 11 78 -7 19 -19 32 -29 32 -19 0 -69 54 -69 74 0 17 -38
93 -50 101 -5 3 -23 -1 -39 -9 -25 -14 -30 -14 -35 -1 -8 21 3 44 26 56 13 7
16 14 10 22 -5 7 -10 27 -10 45 0 20 -8 40 -19 48 -17 13 -17 15 -2 27 15 11
15 17 3 45 -7 18 -19 32 -26 32 -8 0 -22 15 -32 34 -10 19 -29 37 -41 40 -22
6 -105 99 -105 117 0 5 14 9 30 9 31 0 80 25 80 41 0 5 -7 9 -15 9 -25 0 -17
17 27 59 23 23 39 44 35 47 -3 4 -20 -8 -36 -25 -18 -20 -35 -30 -42 -25 -9 5
-10 2 -6 -9 7 -20 -9 -32 -26 -20 -7 5 -29 15 -51 22 -52 18 -101 60 -170 145
-34 42 -57 37 -76 -16 -10 -32 -101 -113 -113 -102 -14 14 9 42 46 56 34 12
43 20 45 43 4 33 36 78 47 67 4 -4 4 8 0 26 -7 35 1 41 21 15 8 -11 13 -13 14
-5 0 6 8 12 18 12 22 0 42 22 61 65 8 17 16 24 18 18 8 -22 36 -15 30 7 -3 11
-1 20 4 20 5 0 9 -10 9 -22 0 -27 10 -42 29 -46 11 -2 13 7 8 47 -4 30 -2 53
4 57 5 3 9 15 7 27 -3 20 2 22 42 23 27 1 59 10 80 22 19 12 56 29 82 39 46
16 69 41 28 30 -11 -3 -23 0 -27 6 -10 16 -4 69 9 85 8 9 5 12 -12 12 -13 0
-24 8 -27 19 -3 11 -12 21 -21 23 -12 2 -9 10 13 36 21 25 25 36 16 42 -7 4
-12 10 -12 14 3 20 -1 26 -14 26 -8 0 -15 4 -15 8 0 5 -17 18 -37 29 -32 18
-40 19 -50 7 -16 -16 -16 -39 -3 -65 9 -17 7 -19 -17 -21 -15 0 -38 0 -50 1
-13 1 -32 -3 -43 -9 -14 -7 -20 -7 -20 0 0 5 5 10 10 10 6 0 10 13 10 29 0 41
9 61 28 61 12 0 13 3 5 11 -8 8 -22 3 -52 -15 -45 -29 -51 -31 -51 -16 0 6 7
10 15 10 8 0 15 5 15 10 0 6 -2 10 -5 10 -7 0 -59 -24 -65 -30 -31 -33 -38
-31 -60 16 -16 32 -33 50 -55 60 -18 7 -35 20 -38 29 -7 17 -33 20 -42 5z
m155 -221 c0 -11 -4 -17 -10 -14 -5 3 -10 13 -10 21 0 8 5 14 10 14 6 0 10 -9
10 -21z m-40 -34 c0 -5 -5 -3 -10 5 -5 8 -10 20 -10 25 0 6 5 3 10 -5 5 -8 10
-19 10 -25z m196 -10 l27 -36 -17 -57 c-10 -31 -19 -68 -20 -82 -2 -18 -10
-26 -27 -29 -13 -1 -36 -12 -52 -23 -20 -14 -36 -18 -55 -14 -15 4 -35 7 -44
7 -26 0 -38 31 -32 81 7 47 17 58 44 51 20 -5 41 27 54 80 4 19 17 33 39 42
46 20 53 19 83 -20z m-127 -1 c-14 -18 -24 -11 -15 11 3 9 11 13 16 10 8 -5 7
-11 -1 -21z m-41 -9 c-3 -3 -9 2 -12 12 -6 14 -5 15 5 6 7 -7 10 -15 7 -18z
m352 -169 c-4 -4 -16 -4 -26 2 -16 9 -14 10 8 9 15 -1 23 -6 18 -11z m-360
-186 c0 -5 -5 -10 -11 -10 -5 0 -7 5 -4 10 3 6 8 10 11 10 2 0 4 -4 4 -10z
m-73 -102 c-3 -8 -6 -5 -6 6 -1 11 2 17 5 13 3 -3 4 -12 1 -19z m30 0 c-3 -8
-6 -5 -6 6 -1 11 2 17 5 13 3 -3 4 -12 1 -19z m132 -145 c-8 -9 -16 -10 -22
-4 -13 13 0 31 19 24 11 -4 12 -8 3 -20z m-319 -13 c0 -5 5 -10 11 -10 14 0
38 -30 39 -48 0 -11 -34 -12 -80 -2 -3 0 3 5 13 11 24 14 22 39 -4 39 -11 0
-17 5 -14 10 3 6 13 10 21 10 8 0 14 -4 14 -10z m251 -22 c7 -13 16 -25 20
-29 12 -7 -13 -70 -26 -65 -5 2 -9 14 -7 27 1 17 -1 20 -7 10 -6 -9 -11 -10
-15 -2 -4 6 -19 11 -34 10 -24 0 -25 -1 -7 -9 28 -12 2 -12 -30 0 -23 9 -26 8
-21 -5 3 -8 1 -15 -5 -15 -6 0 -13 9 -16 20 -4 16 -8 18 -19 9 -8 -7 -17 -9
-20 -6 -8 8 6 48 15 43 4 -3 34 4 67 14 77 25 91 24 105 -2z m-291 -128 c0 -5
-2 -10 -4 -10 -3 0 -8 5 -11 10 -3 6 -1 10 4 10 6 0 11 -4 11 -10z m420 -120
c0 -5 -4 -10 -10 -10 -5 0 -10 5 -10 10 0 6 5 10 10 10 6 0 10 -4 10 -10z
m177 -14 c-4 -10 0 -12 14 -9 10 3 19 0 19 -6 0 -6 -11 -11 -25 -11 -18 0 -25
5 -25 20 0 11 5 20 11 20 6 0 9 -6 6 -14z m54 -74 c-7 -2 -18 1 -23 6 -8 8 -4
9 13 5 13 -4 18 -8 10 -11z m-176 -22 c3 -5 -1 -10 -9 -10 -9 0 -16 5 -16 10
0 6 4 10 9 10 6 0 13 -4 16 -10z m34 -37 c9 -15 12 -15 20 -4 6 9 10 10 16 2
4 -7 2 -18 -5 -26 -16 -19 4 -55 31 -55 18 0 21 -5 17 -35 -2 -19 1 -36 7 -39
6 -2 5 -8 -3 -17 -11 -12 -16 -10 -32 9 -10 12 -28 22 -39 22 -18 0 -21 6 -21
38 0 21 -3 42 -7 46 -11 10 -12 76 -2 76 4 0 13 -8 18 -17z m80 -63 c-1 -13
-1 -13 -6 0 -3 8 -10 18 -16 21 -5 4 -6 13 -2 20 6 9 10 8 16 -7 4 -10 8 -26
8 -34z m205 -221 c-10 -16 -24 -9 -24 12 0 18 2 19 15 9 8 -7 12 -16 9 -21z
m-126 -66 c17 -17 -5 -53 -33 -52 -18 0 -18 1 3 9 12 5 22 17 22 26 0 13 -3
14 -14 5 -16 -13 -56 1 -56 19 0 14 62 8 78 -7z m240 -308 c-3 -3 -9 2 -12 12
-6 14 -5 15 5 6 7 -7 10 -15 7 -18z"/>
<path d="M2113 2573 c9 -2 17 -12 17 -21 0 -14 2 -15 10 -2 10 16 -5 30 -30
29 -11 -1 -10 -3 3 -6z"/>
<path d="M2054 2549 c-19 -21 -19 -22 1 -15 16 5 21 2 21 -14 0 -11 -8 -22
-16 -25 -11 -3 -17 -16 -17 -35 0 -33 14 -40 24 -12 4 9 16 25 27 35 20 18 32
77 16 77 -5 0 -15 2 -22 5 -8 3 -23 -4 -34 -16z"/>
<path d="M3883 2540 c-12 -5 -34 -32 -48 -61 -21 -40 -30 -50 -45 -46 -11 3
-29 -4 -41 -14 -26 -22 -31 -23 -48 -6 -10 10 -11 9 -6 -5 4 -9 27 -21 53 -28
42 -10 49 -15 58 -46 10 -32 9 -39 -12 -64 -13 -15 -24 -35 -24 -44 0 -19 -4
-20 -47 -4 -25 9 -36 9 -41 1 -4 -6 -14 -12 -22 -14 -22 -4 -80 29 -80 46 0 8
-4 15 -10 15 -5 0 -10 -4 -10 -10 0 -5 -6 -10 -14 -10 -8 0 -16 -7 -18 -15 -2
-9 -8 -11 -16 -6 -10 6 -10 14 -2 35 14 39 13 79 -2 69 -15 -9 -35 -14 -61
-16 -26 -2 -31 -32 -16 -114 13 -72 39 -122 39 -74 0 11 -5 21 -10 21 -9 0 -4
47 7 59 8 10 25 -18 30 -49 5 -36 37 -69 67 -70 20 0 20 -2 -1 -143 -4 -27 -1
-43 12 -57 9 -10 12 -21 7 -24 -5 -3 -10 -26 -10 -51 -2 -43 -1 -45 17 -35 13
7 22 7 26 0 3 -5 -1 -10 -9 -10 -9 0 -16 -4 -16 -10 0 -17 10 -11 40 22 26 28
32 30 54 20 16 -7 28 -8 31 -2 4 6 -3 10 -14 10 -25 0 -64 37 -55 51 5 8 9 8
13 0 6 -8 28 -8 87 2 68 12 75 15 49 22 -47 11 -95 35 -95 47 0 6 -12 8 -30 5
-21 -5 -30 -3 -30 6 0 7 -14 25 -31 40 -17 15 -26 27 -19 27 8 0 11 15 8 45
-2 31 1 46 10 50 24 9 32 5 32 -16 0 -28 19 -61 31 -53 6 3 8 13 5 21 -3 8 -1
11 4 8 6 -3 10 1 10 9 0 9 4 16 10 16 5 0 7 -7 4 -15 -4 -9 0 -15 8 -15 8 0
21 -15 29 -32 12 -28 20 -34 51 -36 l37 -3 -15 31 c-11 21 -26 33 -45 37 -32
6 -50 23 -25 23 9 0 16 5 16 11 0 7 11 9 28 6 17 -3 34 1 46 11 18 16 19 16
14 -5 -4 -16 -2 -20 8 -16 8 3 14 14 14 24 0 14 7 19 25 19 30 0 31 13 4 51
l-21 30 27 24 c18 18 33 23 50 19 l23 -6 -1 94 c-2 88 -3 93 -24 96 -20 3 -40
35 -35 55 1 5 -3 5 -9 1 -8 -5 -10 2 -7 25 2 17 4 31 4 30 -1 0 -11 -4 -23 -9z
m-329 -384 c2 -20 0 -36 -5 -36 -13 0 -21 19 -12 33 4 6 6 21 4 32 -2 11 0 17
4 13 3 -3 8 -22 9 -42z m36 24 c0 -5 -4 -10 -10 -10 -5 0 -10 5 -10 10 0 6 5
10 10 10 6 0 10 -4 10 -10z m131 0 c15 0 29 -7 33 -15 5 -15 -10 -19 -66 -18
-10 0 -18 -4 -18 -9 0 -4 -7 -8 -15 -8 -9 0 -15 9 -15 24 0 13 -6 27 -12 30
-7 3 5 4 27 1 22 -3 52 -5 66 -5z m-131 -40 c0 -5 -5 -10 -11 -10 -5 0 -7 5
-4 10 3 6 8 10 11 10 2 0 4 -4 4 -10z m280 6 c0 -11 -19 -15 -25 -6 -3 5 1 10
9 10 9 0 16 -2 16 -4z m-263 -195 c10 -16 9 -19 -11 -23 -19 -4 -22 -1 -18 19
5 28 13 29 29 4z"/>
<path d="M2349 2518 c0 -7 -2 -21 -4 -30 -4 -21 6 -23 23 -6 9 9 12 8 12 -5 0
-9 3 -17 8 -17 10 1 42 26 42 34 0 4 -8 6 -17 5 -39 -3 -52 1 -47 16 4 8 1 15
-5 15 -6 0 -11 -6 -12 -12z"/>
<path d="M3466 2495 c4 -8 10 -12 15 -9 11 6 2 24 -11 24 -5 0 -7 -7 -4 -15z"/>
<path d="M2506 2475 c-3 -8 -1 -15 4 -15 6 0 10 7 10 15 0 8 -2 15 -4 15 -2 0
-6 -7 -10 -15z"/>
<path d="M2310 2440 c0 -5 5 -10 10 -10 6 0 10 5 10 10 0 6 -4 10 -10 10 -5 0
-10 -4 -10 -10z"/>
<path d="M1646 2431 c-8 -12 21 -34 34 -26 5 3 10 11 10 16 0 6 -4 7 -10 4 -5
-3 -10 -1 -10 4 0 13 -17 14 -24 2z"/>
<path d="M2465 2430 c3 -5 8 -10 11 -10 2 0 4 5 4 10 0 6 -5 10 -11 10 -5 0
-7 -4 -4 -10z"/>
<path d="M3370 2421 c0 -6 4 -13 10 -16 6 -3 7 1 4 9 -7 18 -14 21 -14 7z"/>
<path d="M1180 2400 c0 -11 30 -21 41 -14 17 10 9 22 -16 22 -14 0 -25 -4 -25
-8z"/>
<path d="M2300 2395 c0 -8 5 -15 10 -15 6 0 10 7 10 15 0 8 -4 15 -10 15 -5 0
-10 -7 -10 -15z"/>
<path d="M2343 2403 c9 -2 23 -2 30 0 6 3 -1 5 -18 5 -16 0 -22 -2 -12 -5z"/>
<path d="M3300 2400 c0 -5 5 -10 10 -10 6 0 10 5 10 10 0 6 -4 10 -10 10 -5 0
-10 -4 -10 -10z"/>
<path d="M3448 2398 c-8 -20 9 -58 26 -58 31 0 47 12 35 26 -9 11 -8 14 4 14
9 0 17 -8 19 -17 3 -15 6 -15 17 5 7 13 11 25 9 28 -2 2 -27 6 -55 10 -37 4
-52 2 -55 -8z"/>
<path d="M2350 2374 c0 -8 5 -12 10 -9 6 3 10 10 10 16 0 5 -4 9 -10 9 -5 0
-10 -7 -10 -16z"/>
<path d="M1165 2370 c3 -5 8 -10 11 -10 2 0 4 5 4 10 0 6 -5 10 -11 10 -5 0
-7 -4 -4 -10z"/>
<path d="M1430 2328 c1 -19 29 -53 37 -45 3 4 -1 15 -10 25 -10 10 -14 22 -10
25 3 4 1 7 -5 7 -7 0 -12 -6 -12 -12z"/>
<path d="M1470 2330 c0 -13 20 -13 40 0 12 8 9 10 -12 10 -16 0 -28 -4 -28
-10z"/>
<path d="M2262 2331 c2 -7 7 -12 11 -12 12 1 9 15 -3 20 -7 2 -11 -2 -8 -8z"/>
<path d="M2368 2333 c7 -3 16 -2 19 1 4 3 -2 6 -13 5 -11 0 -14 -3 -6 -6z"/>
<path d="M258 2323 c6 -2 12 -11 12 -18 0 -7 13 -20 29 -28 25 -12 29 -12 24
-1 -3 8 -11 14 -19 14 -7 0 -18 9 -24 20 -6 11 -16 20 -23 19 -9 0 -9 -2 1 -6z"/>
<path d="M3605 2319 c-11 -17 1 -21 15 -4 8 9 8 15 2 15 -6 0 -14 -5 -17 -11z"/>
<path d="M1157 2309 c9 -9 10 -16 1 -26 -13 -16 -7 -25 9 -15 21 13 19 46 -2
50 -16 3 -18 1 -8 -9z"/>
<path d="M3375 2310 c3 -5 10 -10 16 -10 5 0 9 5 9 10 0 6 -7 10 -16 10 -8 0
-12 -4 -9 -10z"/>
<path d="M30 2296 c0 -4 7 -14 15 -22 8 -9 15 -11 15 -6 0 5 -7 15 -15 22 -8
7 -15 9 -15 6z"/>
<path d="M3340 2297 c0 -10 60 -35 65 -27 3 4 -3 10 -13 13 -9 2 -25 8 -34 12
-10 4 -18 5 -18 2z"/>
<path d="M3530 2286 c0 -8 5 -18 10 -21 6 -3 10 1 10 9 0 8 -4 18 -10 21 -5 3
-10 -1 -10 -9z"/>
<path d="M385 2270 c-3 -5 -1 -10 4 -10 6 0 11 5 11 10 0 6 -2 10 -4 10 -3 0
-8 -4 -11 -10z"/>
<path d="M1695 2270 c3 -5 8 -10 11 -10 2 0 4 5 4 10 0 6 -5 10 -11 10 -5 0
-7 -4 -4 -10z"/>
<path d="M2455 2270 c3 -5 8 -10 11 -10 2 0 4 5 4 10 0 6 -5 10 -11 10 -5 0
-7 -4 -4 -10z"/>
<path d="M575 2260 c3 -5 8 -10 11 -10 2 0 4 5 4 10 0 6 -5 10 -11 10 -5 0 -7
-4 -4 -10z"/>
<path d="M3200 2256 c0 -2 7 -7 16 -10 8 -3 12 -2 9 4 -6 10 -25 14 -25 6z"/>
<path d="M1076 2235 c-3 -10 -11 -13 -18 -9 -8 5 -8 1 1 -10 14 -17 15 -17 23
5 5 12 7 24 4 26 -2 2 -6 -3 -10 -12z"/>
<path d="M1100 2229 c-13 -24 -4 -41 10 -19 10 16 13 40 5 40 -2 0 -9 -9 -15
-21z"/>
<path d="M2426 2205 c-9 -24 -8 -25 17 -25 20 -1 21 -2 5 -14 -10 -7 -15 -16
-11 -19 3 -4 -3 -7 -15 -7 -19 0 -20 -3 -12 -25 7 -18 5 -28 -6 -40 -17 -17
-44 -20 -44 -5 0 6 -4 10 -9 10 -5 0 -7 -8 -5 -18 3 -9 -4 -27 -16 -40 -32
-34 -19 -85 25 -101 39 -14 75 1 75 30 0 24 27 44 43 31 9 -8 12 -3 11 24 -2
35 8 42 36 24 13 -8 13 -10 -2 -10 -9 0 -20 -4 -23 -10 -4 -6 1 -7 12 -3 15 5
16 3 6 -8 -16 -16 -17 -45 -2 -54 13 -8 76 21 82 38 8 25 -6 46 -35 52 -17 4
-39 16 -49 26 -10 10 -19 16 -19 13 0 -4 -6 -1 -14 5 -8 7 -12 21 -9 31 3 11
0 20 -6 20 -16 0 -13 21 5 42 16 16 15 18 -2 25 -11 3 -22 11 -25 16 -3 5 -9
1 -13 -8z"/>
<path d="M2390 2190 c0 -5 5 -10 10 -10 6 0 10 5 10 10 0 6 -4 10 -10 10 -5 0
-10 -4 -10 -10z"/>
<path d="M2587 2193 c-13 -13 -7 -21 13 -16 11 3 20 9 20 14 0 10 -24 12 -33
2z"/>
<path d="M1087 2162 c-19 -21 -22 -32 -7 -32 6 0 10 7 10 15 0 18 9 19 33 0
15 -10 17 -18 8 -32 -10 -17 -10 -17 -11 0 0 9 -5 17 -11 17 -6 0 -8 -7 -5
-16 5 -13 1 -15 -21 -10 -27 6 -27 6 -8 -8 11 -9 25 -19 30 -24 13 -12 75 17
75 34 0 16 -39 54 -56 54 -7 0 -14 5 -16 11 -2 6 -11 2 -21 -9z m78 -52 c3 -5
1 -10 -4 -10 -6 0 -11 5 -11 10 0 6 2 10 4 10 3 0 8 -4 11 -10z"/>
<path d="M182 2140 c-10 -16 -7 -22 18 -40 17 -12 35 -18 41 -14 8 4 9 3 5 -4
-9 -15 5 -15 41 -1 15 7 45 11 65 10 20 -1 39 3 43 9 13 21 -17 38 -78 45 -34
4 -76 8 -93 10 -21 3 -33 -2 -42 -15z"/>
<path d="M644 2136 c-3 -14 -3 -29 0 -34 3 -5 -2 -9 -10 -9 -11 0 -14 7 -11
24 2 13 0 23 -4 23 -5 0 -9 -13 -9 -30 0 -39 2 -45 18 -44 6 1 12 -2 12 -7 0
-5 -5 -9 -10 -9 -6 0 -6 -7 2 -19 11 -18 12 -18 28 1 16 20 16 20 34 -6 9 -15
33 -34 52 -43 30 -15 36 -15 49 -2 8 7 17 32 20 54 7 39 5 41 -27 55 -18 8
-39 27 -46 43 -11 23 -19 27 -52 27 -34 0 -41 -4 -46 -24z m36 -16 c0 -5 -7
-10 -16 -10 -8 0 -12 5 -9 10 3 6 10 10 16 10 5 0 9 -4 9 -10z"/>
<path d="M575 2118 c-4 -9 -4 -21 -1 -27 3 -5 3 -11 -1 -13 -5 -1 -19 -18 -32
-37 -28 -40 -4 -29 31 14 18 22 23 36 18 55 -6 21 -8 22 -15 8z"/>
<path d="M3420 2104 c0 -8 4 -13 8 -10 11 6 9 -25 -2 -42 -13 -21 4 -29 18 -9
18 23 29 22 21 -3 -8 -26 2 -25 26 3 20 24 25 47 9 47 -5 0 -7 -7 -4 -15 10
-26 -14 -16 -38 15 -24 33 -38 38 -38 14z"/>
<path d="M2330 2100 c0 -5 5 -10 11 -10 5 0 7 5 4 10 -3 6 -8 10 -11 10 -2 0
-4 -4 -4 -10z"/>
<path d="M2360 2099 c0 -5 5 -7 10 -4 6 3 10 8 10 11 0 2 -4 4 -10 4 -5 0 -10
-5 -10 -11z"/>
<path d="M1698 2093 c6 -2 18 -2 25 0 6 3 1 5 -13 5 -14 0 -19 -2 -12 -5z"/>
<path d="M963 2063 c-7 -15 -13 -33 -13 -40 0 -12 -10 -15 -57 -17 -19 -1 -34
-21 -54 -68 -6 -16 -15 -28 -20 -28 -5 0 -4 -11 1 -25 5 -14 7 -32 4 -40 -4
-8 -3 -15 1 -15 11 0 49 22 58 34 6 7 7 4 3 -7 -5 -15 -2 -17 13 -12 18 5 19
3 10 -30 -6 -19 -7 -40 -4 -45 3 -6 -3 -10 -15 -10 -12 0 -19 4 -16 9 3 5 -6
12 -21 16 -31 7 -48 -12 -30 -35 8 -10 5 -9 -9 3 -23 19 -44 22 -44 7 0 -5 7
-7 15 -4 9 4 15 0 15 -9 0 -8 7 -20 15 -27 21 -18 19 -47 -5 -53 -11 -3 -20
-11 -20 -17 0 -10 3 -10 15 0 18 15 71 4 79 -17 6 -14 8 -14 21 3 8 10 15 29
15 42 0 19 5 22 45 22 38 0 50 5 85 40 36 35 42 47 45 92 3 40 0 54 -13 64
-26 21 -35 16 -29 -13 12 -63 -22 -115 -39 -60 -3 12 -16 35 -27 51 -25 35
-31 95 -16 153 14 51 8 72 -8 36z m114 -270 c-3 -10 -5 -4 -5 12 0 17 2 24 5
18 2 -7 2 -21 0 -30z m-17 -13 c0 -5 -5 -10 -11 -10 -5 0 -7 5 -4 10 3 6 8 10
11 10 2 0 4 -4 4 -10z"/>
<path d="M1360 2079 c0 -5 5 -7 10 -4 6 3 10 8 10 11 0 2 -4 4 -10 4 -5 0 -10
-5 -10 -11z"/>
<path d="M149 2067 c-14 -7 -41 -25 -60 -41 -18 -16 -46 -33 -61 -38 l-27 -10
0 -193 -1 -193 33 2 c17 2 36 4 40 5 5 0 -3 22 -17 49 -36 69 -39 95 -16 125
18 22 19 29 8 46 -7 11 -9 23 -6 27 10 9 38 -21 38 -40 0 -9 8 -16 20 -16 11
0 20 4 20 9 0 11 38 22 44 12 7 -11 -7 -28 -31 -35 -30 -10 -29 -23 2 -28 26
-5 35 6 13 15 -13 6 16 11 40 8 10 -2 12 4 7 18 -9 31 1 26 44 -20 36 -37 42
-40 76 -33 27 5 36 4 31 -5 -4 -6 -16 -11 -26 -11 -25 0 -35 -17 -20 -35 8 -9
9 -29 5 -53 -4 -24 0 -63 10 -102 9 -34 15 -76 13 -93 -3 -27 0 -32 19 -32 13
0 30 -11 40 -25 9 -14 24 -31 33 -38 13 -12 13 -13 -4 -8 -13 5 -17 2 -13 -8
3 -7 0 -19 -6 -25 -6 -6 -8 -11 -4 -11 4 0 3 -9 -3 -20 -8 -15 -8 -20 2 -20
10 0 10 -3 -1 -9 -19 -12 -6 -43 16 -39 12 2 17 11 14 23 -1 11 3 44 10 73 11
48 11 54 -6 66 -16 11 -16 13 -2 19 9 3 19 2 22 -3 11 -18 23 -11 39 22 20 40
21 38 -13 38 -24 0 -31 6 -45 43 -20 52 -20 55 -1 73 8 9 15 33 15 54 0 30 4
39 21 43 19 5 21 10 15 48 -5 31 -3 46 9 59 13 14 14 25 7 52 -10 38 -4 135 9
144 15 9 10 34 -6 34 -8 0 -15 5 -15 10 0 6 -10 10 -23 10 -18 0 -29 -11 -47
-47 l-23 -46 21 -18 c42 -34 35 -37 -123 -57 -33 -4 -66 -11 -73 -15 -14 -10
-52 0 -52 13 0 5 11 8 24 7 14 -1 25 3 25 8 0 6 -9 10 -22 10 -16 0 -23 7 -24
25 -2 21 -1 22 5 6 7 -15 11 -16 17 -7 6 11 9 11 16 0 8 -11 12 -10 24 5 17
22 21 61 5 51 -5 -3 -7 -12 -3 -20 3 -10 -1 -15 -12 -15 -9 0 -13 5 -9 11 5 8
-3 10 -24 7 -17 -2 -29 -1 -26 4 3 4 12 8 20 8 17 0 19 16 3 26 -8 4 -7 9 2
15 8 4 18 1 26 -9 10 -14 12 -9 10 38 -3 71 -15 81 -68 57z m-4 -126 c-3 -6
-11 -11 -17 -11 -6 0 -6 6 2 15 14 17 26 13 15 -4z m245 -240 c0 -15 -61 -24
-73 -11 -9 8 -8 10 5 5 9 -4 25 -2 35 4 23 13 33 14 33 2z m30 -307 c0 -2 -7
-4 -15 -4 -8 0 -15 4 -15 10 0 5 7 7 15 4 8 -4 15 -8 15 -10z"/>
<path d="M1750 2076 c0 -2 7 -6 15 -10 8 -3 15 -1 15 4 0 6 -7 10 -15 10 -8 0
-15 -2 -15 -4z"/>
<path d="M1218 2048 c-2 -13 0 -41 5 -63 9 -40 3 -167 -8 -185 -4 -6 5 -10 18
-10 14 0 31 -8 38 -17 8 -10 9 -14 2 -10 -6 4 -15 1 -20 -6 -4 -8 -15 -17 -23
-20 -8 -3 3 -6 25 -6 l40 -1 -3 44 c-3 28 2 56 14 77 25 48 20 129 -8 150 -12
10 -27 15 -34 12 -6 -2 -16 10 -22 26 -13 37 -19 39 -24 9z"/>
<path d="M3318 2063 c7 -3 16 -2 19 1 4 3 -2 6 -13 5 -11 0 -14 -3 -6 -6z"/>
<path d="M2850 2050 c0 -5 5 -10 10 -10 6 0 10 5 10 10 0 6 -4 10 -10 10 -5 0
-10 -4 -10 -10z"/>
<path d="M3874 2045 c-10 -8 -14 -14 -9 -15 15 0 40 18 34 24 -3 3 -14 -1 -25
-9z"/>
<path d="M3935 2050 c-3 -5 -2 -10 4 -10 5 0 13 5 16 10 3 6 2 10 -4 10 -5 0
-13 -4 -16 -10z"/>
<path d="M575 2040 c3 -5 11 -10 16 -10 6 0 7 5 4 10 -3 6 -11 10 -16 10 -6 0
-7 -4 -4 -10z"/>
<path d="M3690 2040 c0 -5 4 -10 9 -10 6 0 13 5 16 10 3 6 -1 10 -9 10 -9 0
-16 -4 -16 -10z"/>
<path d="M897 2033 c-10 -9 -9 -23 2 -23 5 0 11 7 15 15 5 15 -5 20 -17 8z"/>
<path d="M1690 2024 l-25 -15 25 5 c14 3 28 6 33 6 4 0 7 5 7 10 0 14 -10 12
-40 -6z"/>
<path d="M3866 2012 c-2 -4 4 -8 15 -8 10 0 19 4 19 8 0 4 -6 8 -14 8 -8 0
-17 -4 -20 -8z"/>
<path d="M668 2003 c7 -3 16 -2 19 1 4 3 -2 6 -13 5 -11 0 -14 -3 -6 -6z"/>
<path d="M2865 1987 c68 -40 85 -53 85 -64 0 -7 -4 -13 -10 -13 -5 0 -10 -10
-10 -22 1 -23 1 -23 14 2 7 14 16 37 20 53 5 23 3 27 -16 27 -13 1 -34 7 -48
15 -32 18 -64 20 -35 2z"/>
<path d="M3344 1975 c-10 -8 -14 -14 -9 -14 6 0 19 6 29 14 11 8 15 15 10 15
-6 0 -19 -7 -30 -15z"/>
<path d="M3855 1980 c-3 -5 -2 -10 4 -10 5 0 13 5 16 10 3 6 2 10 -4 10 -5 0
-13 -4 -16 -10z"/>
<path d="M3885 1960 c-3 -6 1 -7 9 -4 18 7 21 14 7 14 -6 0 -13 -4 -16 -10z"/>
<path d="M2995 1940 c-11 -5 -15 -9 -9 -9 6 -1 16 -11 22 -23 10 -22 11 -21
11 10 1 17 0 32 -1 31 -2 0 -12 -4 -23 -9z"/>
<path d="M3298 1943 c7 -3 16 -2 19 1 4 3 -2 6 -13 5 -11 0 -14 -3 -6 -6z"/>
<path d="M2004 1895 c-8 -59 1 -69 74 -71 42 -2 66 3 90 18 30 18 36 45 7 34
-7 -2 -12 2 -11 10 0 8 -14 24 -31 35 -27 17 -33 18 -33 6 0 -24 -22 -26 -57
-5 l-32 19 -7 -46z"/>
<path d="M2905 1930 c3 -5 11 -10 16 -10 6 0 7 5 4 10 -3 6 -11 10 -16 10 -6
0 -7 -4 -4 -10z"/>
<path d="M1093 1923 c-21 -8 -15 -26 6 -20 15 3 18 1 14 -12 -4 -11 -1 -10 10
4 9 11 17 23 17 28 0 8 -28 8 -47 0z"/>
<path d="M1447 1923 c-4 -3 -7 -11 -7 -17 0 -6 5 -5 12 2 6 6 9 14 7 17 -3 3
-9 2 -12 -2z"/>
<path d="M2440 1903 c0 -15 7 -41 15 -57 8 -15 15 -30 15 -32 0 -9 -59 -3 -65
6 -3 5 -16 9 -28 8 -12 -1 -32 2 -44 6 -19 6 -23 4 -23 -14 0 -12 5 -18 10
-15 15 9 12 0 -9 -39 -26 -45 -18 -80 17 -73 16 3 39 -5 67 -24 24 -16 48 -29
53 -29 6 0 18 -8 27 -17 13 -12 21 -14 34 -6 22 14 29 48 7 40 -18 -7 -21 4
-5 20 8 8 5 13 -10 18 -26 8 -27 21 -3 30 16 6 16 7 -2 17 -18 10 -17 12 10
25 16 7 22 11 13 9 -8 -2 -21 5 -27 15 -11 17 -9 21 9 28 20 7 20 8 5 14 -10
4 -15 10 -13 14 7 11 -26 76 -40 81 -9 2 -13 -6 -13 -25z m35 -33 c3 -5 1 -10
-4 -10 -6 0 -11 5 -11 10 0 6 2 10 4 10 3 0 8 -4 11 -10z m-59 -124 c15 -11
16 -17 7 -27 -16 -16 -43 -4 -43 21 0 24 9 25 36 6z m-6 -67 c0 -6 -4 -7 -10
-4 -5 3 -10 11 -10 16 0 6 5 7 10 4 6 -3 10 -11 10 -16z m45 -9 c3 -5 2 -10
-4 -10 -5 0 -13 5 -16 10 -3 6 -2 10 4 10 5 0 13 -4 16 -10z"/>
<path d="M2876 1921 c-4 -5 -3 -16 0 -25 4 -12 0 -16 -15 -16 -12 0 -21 -4
-21 -9 0 -12 41 -1 58 15 17 17 15 27 -4 20 -12 -4 -15 -2 -10 9 6 16 1 20 -8
6z"/>
<path d="M1475 1893 l-17 -28 23 22 c12 12 20 25 17 28 -3 3 -13 -7 -23 -22z"/>
<path d="M3320 1905 c0 -18 26 -55 39 -55 11 0 10 -3 -5 -14 -18 -14 -18 -15
11 -20 17 -4 43 -11 59 -16 26 -8 27 -8 14 8 -9 9 -18 29 -22 44 -3 16 -18 33
-35 41 -27 13 -29 13 -24 -2 4 -14 3 -14 -10 2 -13 16 -27 22 -27 12z m86 -68
c2 -13 -5 -17 -24 -16 -19 1 -21 3 -9 6 12 3 16 10 13 20 -4 9 -1 13 6 11 6
-2 12 -12 14 -21z"/>
<path d="M1547 1893 c-4 -3 -7 -13 -7 -20 0 -8 -7 -21 -15 -30 -8 -8 -12 -19
-9 -25 8 -12 29 18 38 55 6 27 5 32 -7 20z"/>
<path d="M2561 1884 c0 -11 3 -14 6 -6 3 7 2 16 -1 19 -3 4 -6 -2 -5 -13z"/>
<path d="M2595 1872 c3 -11 -3 -29 -15 -44 -19 -25 -24 -78 -8 -78 5 0 5 12 2
26 -5 19 -4 25 5 20 14 -9 71 15 71 30 0 6 -7 17 -15 24 -8 7 -15 19 -15 26 0
8 -7 14 -16 14 -10 0 -13 -6 -9 -18z"/>
<path d="M3020 1860 c0 -12 5 -18 10 -15 6 3 10 0 10 -8 0 -8 -7 -14 -16 -13
-9 0 -19 -5 -21 -11 -3 -8 4 -13 16 -13 12 0 21 -4 21 -9 0 -17 -20 -23 -34
-12 -10 8 -17 7 -26 -4 -11 -13 -10 -14 2 -10 14 6 22 -29 31 -137 1 -10 7
-18 13 -18 15 0 25 26 18 45 -4 8 -1 15 6 15 6 0 8 -4 5 -10 -3 -5 -1 -10 4
-10 6 0 11 7 11 16 0 13 7 15 38 9 20 -4 42 -11 48 -16 8 -6 14 -4 18 6 3 9
11 13 17 9 8 -5 9 -3 5 5 -5 7 -15 10 -23 7 -8 -3 -11 -2 -8 4 3 5 18 8 33 8
15 -1 38 2 52 6 22 8 23 7 8 -8 -9 -9 -25 -16 -35 -17 -14 0 -12 -3 6 -10 13
-5 29 -8 35 -6 6 2 19 -5 30 -15 27 -24 42 -23 41 5 0 36 -44 97 -68 97 -12 0
-31 2 -42 4 -11 2 -14 1 -7 -1 32 -11 -4 -33 -55 -33 -13 0 -24 -8 -28 -20 -3
-11 -10 -20 -15 -20 -5 0 -7 7 -4 15 5 11 -1 15 -19 15 -14 0 -29 5 -32 10 -4
6 7 10 25 10 24 0 31 4 27 15 -4 8 -2 17 3 20 15 9 12 41 -4 55 -15 12 -10 44
5 34 5 -3 9 0 9 6 0 20 -34 6 -46 -18 -16 -33 -28 -32 -34 2 -6 35 -30 48 -30
16z m90 -76 c0 -12 -2 -12 -14 -2 -8 7 -12 16 -9 21 7 11 23 -2 23 -19z m157
-60 c-3 -3 -12 -4 -19 -1 -8 3 -5 6 6 6 11 1 17 -2 13 -5z m-220 -30 c-3 -3
-12 -4 -19 -1 -8 3 -5 6 6 6 11 1 17 -2 13 -5z m257 -9 c-4 -8 -8 -15 -10 -15
-2 0 -4 7 -4 15 0 8 4 15 10 15 5 0 7 -7 4 -15z"/>
<path d="M1445 1850 c-3 -5 -1 -10 4 -10 6 0 11 5 11 10 0 6 -2 10 -4 10 -3 0
-8 -4 -11 -10z"/>
<path d="M3816 1828 c9 -50 13 -60 24 -53 5 3 10 -1 10 -9 0 -9 7 -16 15 -16
8 0 15 -4 15 -10 0 -25 18 -6 24 25 8 42 -7 75 -35 75 -11 0 -29 5 -39 10 -18
10 -19 8 -14 -22z m64 -18 c0 -5 -4 -10 -9 -10 -6 0 -13 5 -16 10 -3 6 1 10 9
10 9 0 16 -4 16 -10z"/>
<path d="M580 1831 c0 -5 7 -15 17 -22 15 -13 15 -12 4 9 -12 23 -21 28 -21
13z"/>
<path d="M2960 1829 c0 -5 5 -7 10 -4 6 3 10 8 10 11 0 2 -4 4 -10 4 -5 0 -10
-5 -10 -11z"/>
<path d="M1450 1799 c0 -5 5 -7 10 -4 6 3 10 8 10 11 0 2 -4 4 -10 4 -5 0 -10
-5 -10 -11z"/>
<path d="M1480 1781 c0 -5 -10 -7 -22 -5 -13 3 -9 -1 11 -10 18 -9 42 -16 52
-16 11 0 19 -7 19 -15 0 -8 5 -15 11 -15 21 0 2 25 -30 40 -17 9 -29 19 -25
23 4 4 2 7 -4 7 -7 0 -12 -4 -12 -9z"/>
<path d="M3468 1772 c-16 -9 -28 -22 -28 -28 0 -7 -19 -20 -42 -29 -37 -15
-40 -18 -23 -26 29 -11 35 -11 29 5 -3 8 3 16 16 19 15 4 20 2 16 -8 -2 -7 2
-16 10 -19 22 -8 26 -7 19 4 -3 6 1 7 9 4 11 -4 14 -14 10 -30 -5 -19 -3 -23
10 -18 9 3 16 1 16 -5 0 -6 -3 -10 -7 -9 -5 1 -18 -3 -31 -10 -12 -7 -26 -10
-31 -8 -5 3 -12 -1 -15 -9 -3 -8 -9 -14 -13 -14 -4 1 -16 -1 -26 -6 -9 -4 -29
-5 -42 -3 -34 7 -31 -4 12 -46 36 -35 36 -36 18 -56 -10 -11 -29 -20 -42 -20
-29 0 -68 -41 -50 -52 6 -4 8 -10 4 -15 -4 -4 -17 -2 -27 5 -24 15 -43 16 -35
1 4 -6 -1 -16 -10 -23 -15 -10 -15 -16 -6 -35 7 -12 16 -19 20 -17 5 3 11 -18
15 -47 3 -28 9 -61 12 -72 4 -17 -2 -22 -40 -34 -25 -7 -44 -18 -43 -25 1 -6
-10 -12 -25 -14 -16 -2 -28 -8 -28 -13 0 -5 -7 -9 -15 -9 -17 0 -31 -43 -19
-61 4 -8 3 -9 -4 -5 -8 5 -12 -3 -12 -24 0 -29 -1 -30 -23 -15 -14 8 -28 33
-35 61 -14 53 -89 134 -124 134 -12 0 -39 19 -62 43 -46 47 -82 66 -129 68
-18 1 -24 3 -14 6 9 2 17 9 17 14 0 6 -9 8 -19 4 -13 -4 -23 0 -29 11 -6 11
-11 13 -16 5 -4 -6 -18 -11 -30 -11 -29 0 -49 -22 -40 -44 7 -19 -12 -46 -32
-46 -8 0 -14 7 -14 15 0 8 -7 15 -16 15 -8 0 -12 -4 -9 -10 3 -5 1 -10 -4 -10
-6 0 -11 -4 -11 -10 0 -5 11 -10 24 -10 16 0 27 -7 31 -20 3 -11 12 -20 18
-21 7 0 3 -4 -8 -9 -15 -6 -9 -8 23 -8 47 0 60 25 15 30 -14 2 -28 9 -29 16
-1 7 0 8 3 2 2 -5 23 -10 45 -10 41 0 68 -17 68 -44 0 -18 16 -21 25 -6 5 8
11 7 21 -1 8 -6 14 -8 14 -3 0 13 -42 59 -64 71 -19 10 -18 11 3 22 26 15 44
5 38 -20 -3 -11 -1 -19 4 -19 5 0 15 -13 24 -30 16 -30 42 -43 31 -15 -3 9 3
19 16 26 19 10 20 9 14 -15 -4 -18 -3 -24 6 -22 7 3 26 7 43 11 l30 7 -24 -21
c-13 -12 -20 -21 -15 -21 6 0 15 5 22 12 9 9 15 9 24 0 9 -9 9 -12 -2 -12 -9
0 -8 -5 5 -20 10 -11 15 -23 10 -28 -4 -4 -10 -1 -12 6 -6 17 -23 15 -23 -3 0
-8 -6 -15 -13 -15 -20 0 -50 -36 -44 -52 4 -9 6 -7 6 4 1 12 9 17 29 16 15 0
37 3 48 7 19 6 22 2 28 -30 5 -24 14 -39 29 -45 12 -5 16 -9 8 -9 -14 -1 -12
-43 5 -98 5 -17 2 -23 -10 -23 -9 0 -16 -7 -16 -15 0 -8 -5 -15 -11 -15 -5 0
-8 4 -4 9 8 14 -32 33 -58 28 -21 -3 -21 -4 6 -15 30 -13 33 -22 15 -40 -19
-19 -2 -25 24 -8 19 12 35 14 78 7 35 -6 62 -5 77 2 17 8 27 7 35 -1 9 -9 7
-12 -8 -12 -35 0 -66 -29 -59 -57 5 -21 3 -24 -17 -21 -16 2 -24 -3 -26 -16
-3 -15 0 -18 17 -13 12 3 24 1 27 -4 3 -5 -4 -9 -15 -9 -32 0 -36 -20 -4 -22
58 -3 58 -3 54 -28 -7 -38 -5 -122 3 -145 6 -16 -1 -25 -34 -45 -22 -14 -40
-27 -40 -31 0 -11 48 -31 58 -25 15 9 26 -14 13 -27 -18 -18 -13 -55 9 -62 20
-6 29 -45 9 -45 -5 0 -7 5 -3 11 4 7 1 10 -7 7 -21 -7 -18 -44 4 -40 19 3 22
-9 6 -25 -8 -8 -6 -19 5 -42 12 -23 14 -36 7 -50 -8 -14 -7 -22 3 -30 23 -20
92 -39 122 -34 77 12 75 11 68 51 -4 20 -11 45 -16 55 -9 18 10 47 31 47 14 0
14 13 -1 28 -7 7 -8 12 -4 12 5 0 3 7 -4 16 -11 13 -10 16 8 21 25 6 30 31 6
29 -9 0 -19 5 -21 12 -3 7 1 10 10 6 12 -4 15 9 16 71 1 42 6 84 13 94 8 13 8
23 0 37 -11 18 -11 18 -12 -2 0 -29 -25 -86 -33 -78 -3 4 -22 -3 -42 -15 -20
-11 -38 -21 -41 -21 -2 0 -4 18 -4 39 0 22 -4 42 -9 45 -4 3 -11 26 -15 52 -3
26 -11 53 -17 60 -8 9 -5 16 12 24 18 10 21 18 16 50 -3 21 -1 42 4 47 5 5 2
29 -6 55 -8 29 -10 50 -4 53 15 10 11 65 -5 65 -11 0 -13 -9 -9 -35 4 -23 2
-35 -6 -35 -7 0 -11 8 -9 18 2 9 -3 17 -9 16 -7 -1 -22 -2 -34 -3 -11 0 -17
-6 -14 -11 3 -6 2 -10 -3 -10 -5 0 -9 12 -10 28 0 25 3 27 36 27 36 0 37 1 57
60 11 33 28 69 38 79 9 11 17 28 17 37 0 10 16 30 35 45 22 16 35 35 35 49 0
31 17 43 78 51 34 4 52 11 52 20 0 10 13 14 39 14 22 0 43 5 47 11 14 23 24
-18 13 -51 -7 -18 -9 -56 -6 -86 3 -30 4 -54 2 -54 -1 0 -16 7 -31 15 -33 17
-84 20 -84 5 0 -5 15 -11 33 -11 29 -2 29 -2 5 -6 -19 -3 -25 -9 -21 -19 5
-13 7 -13 14 -3 6 10 10 9 15 -6 4 -11 11 -23 16 -26 17 -11 -4 -41 -25 -35
-15 4 -17 2 -8 -7 12 -12 70 12 103 45 9 9 31 24 47 33 36 18 40 35 11 42 -21
6 -27 28 -10 38 6 3 10 1 10 -5 0 -6 5 -8 10 -5 6 3 10 -1 10 -9 0 -9 5 -16
11 -16 6 0 8 7 5 15 -20 51 -20 51 -4 37 13 -11 16 -7 22 30 4 24 9 52 12 63
4 18 0 20 -38 20 -35 0 -43 4 -46 20 -2 11 -7 29 -12 40 -17 40 -18 53 -7 64
8 8 8 11 -1 11 -6 0 -17 -20 -23 -46 -11 -44 -13 -45 -43 -38 -17 3 -32 7 -32
8 -1 0 -4 25 -8 54 l-7 54 33 -6 c18 -2 44 -8 57 -12 20 -6 23 -4 18 9 -8 22
-1 21 30 -3 22 -17 23 -20 7 -21 -11 0 1 -8 26 -18 25 -10 49 -28 55 -40 5
-11 13 -21 17 -21 11 0 10 8 -2 31 -7 13 -7 19 0 19 5 0 10 5 10 11 0 6 -6 9
-14 6 -22 -9 -50 28 -38 50 17 32 3 82 -29 99 -35 18 -37 34 -4 34 34 0 77
-21 71 -36 -2 -6 0 -16 6 -22 6 -6 8 -25 4 -46 -5 -27 -12 -36 -26 -36 -11 0
-20 -4 -20 -9 0 -14 56 -10 58 3 1 6 4 32 8 59 l7 47 40 0 40 0 -19 -21 c-19
-21 -19 -21 1 -18 14 3 20 12 19 31 0 15 5 24 12 21 7 -2 16 19 24 56 l12 60
-28 24 c-22 20 -33 23 -47 15 -11 -5 -28 -8 -39 -5 -24 7 -83 -24 -133 -69
-29 -25 -44 -32 -62 -28 -19 5 -23 2 -23 -15 0 -27 -20 -28 -27 -1 -3 11 -9
17 -14 14 -5 -3 -9 2 -9 10 0 11 9 16 26 16 17 0 28 6 31 20 3 11 12 20 19 20
8 0 14 5 14 10 0 6 -9 10 -20 10 -11 0 -20 4 -20 9 0 5 8 7 19 4 16 -4 18 1
18 34 0 21 2 44 4 52 6 20 -52 23 -83 3z m42 -62 c0 -5 -2 -10 -4 -10 -3 0 -8
5 -11 10 -3 6 -1 10 4 10 6 0 11 -4 11 -10z m50 -150 c0 -5 -9 -10 -20 -10
-11 0 -20 5 -20 10 0 6 9 10 20 10 11 0 20 -4 20 -10z m-32 -122 c-2 -6 -10
-14 -16 -16 -7 -2 -10 2 -6 12 7 18 28 22 22 4z m-65 -5 c-7 -2 -19 -2 -25 0
-7 3 -2 5 12 5 14 0 19 -2 13 -5z m-193 -75 c0 -5 5 -8 12 -8 13 0 58 -47 58
-61 0 -4 -4 -10 -8 -13 -10 -6 -52 38 -52 54 0 6 -3 9 -7 9 -23 -4 -41 3 -46
15 -4 10 2 13 19 12 13 0 24 -4 24 -8z m2 -91 c-9 -18 -21 9 -15 33 l7 25 6
-25 c4 -14 5 -29 2 -33z m-572 23 c0 -5 -4 -10 -9 -10 -6 0 -13 5 -16 10 -3 6
1 10 9 10 9 0 16 -4 16 -10z m420 -220 c0 -5 -2 -10 -4 -10 -3 0 -8 5 -11 10
-3 6 -1 10 4 10 6 0 11 -4 11 -10z m-3 -42 c-3 -8 -6 -5 -6 6 -1 11 2 17 5 13
3 -3 4 -12 1 -19z m420 16 c-3 -3 -12 -4 -19 -1 -8 3 -5 6 6 6 11 1 17 -2 13
-5z m-441 -41 c-10 -10 -19 5 -10 18 6 11 8 11 12 0 2 -7 1 -15 -2 -18z m54
-9 c0 -14 -3 -14 -15 -4 -8 7 -15 14 -15 16 0 2 7 4 15 4 8 0 15 -7 15 -16z
m-50 -35 c0 -5 -9 -9 -20 -9 -13 0 -18 5 -14 14 6 15 34 11 34 -5z m20 -54 c0
-8 -7 -15 -15 -15 -16 0 -20 12 -8 23 11 12 23 8 23 -8z m31 -148 c-13 -13
-15 11 -4 40 7 16 8 15 11 -6 2 -13 -1 -28 -7 -34z m16 -29 c-3 -8 -6 -5 -6 6
-1 11 2 17 5 13 3 -3 4 -12 1 -19z m-7 -88 c0 -5 -5 -10 -11 -10 -5 0 -7 5 -4
10 3 6 8 10 11 10 2 0 4 -4 4 -10z m10 -220 c0 -5 -4 -10 -10 -10 -5 0 -10 -7
-10 -17 0 -9 -3 -14 -6 -10 -8 8 5 47 17 47 5 0 9 -4 9 -10z m-103 -6 c-3 -3
-12 -4 -19 -1 -8 3 -5 6 6 6 11 1 17 -2 13 -5z m163 -44 c0 -5 -4 -10 -9 -10
-6 0 -13 5 -16 10 -3 6 1 10 9 10 9 0 16 -4 16 -10z m-123 -42 c-3 -8 -6 -5
-6 6 -1 11 2 17 5 13 3 -3 4 -12 1 -19z m126 5 c-7 -2 -19 -2 -25 0 -7 3 -2 5
12 5 14 0 19 -2 13 -5z m-63 -18 c0 -8 -5 -15 -11 -15 -5 0 -7 -5 -4 -10 4 -6
11 -8 16 -5 5 4 12 -1 16 -10 3 -10 0 -21 -8 -26 -10 -6 -11 -9 -1 -9 7 0 15
7 18 15 5 12 10 13 20 4 19 -16 18 -59 -1 -59 -9 0 -18 -7 -21 -15 -7 -18 -25
-20 -19 -2 3 6 -13 32 -35 55 -22 24 -40 51 -40 60 0 14 2 14 9 3 7 -11 10 -9
16 8 7 24 45 29 45 6z"/>
<path d="M620 1760 c0 -5 12 -13 28 -16 15 -4 33 -11 40 -17 8 -7 21 -6 37 1
35 16 32 39 -4 38 -16 -1 -27 -4 -24 -8 2 -5 -10 -8 -27 -8 -18 0 -29 4 -25
10 3 6 -1 10 -9 10 -9 0 -16 -4 -16 -10z"/>
<path d="M2856 1757 c-16 -12 -16 -14 -2 -26 9 -8 16 -19 16 -25 1 -15 36 -56
48 -56 6 0 12 -4 14 -8 2 -4 18 -18 36 -31 33 -23 44 -48 16 -37 -9 4 -23 1
-30 -5 -8 -7 -31 -9 -53 -6 -30 4 -44 1 -56 -13 -19 -21 -56 -23 -48 -3 3 7 0
13 -6 13 -6 0 -11 5 -11 12 0 6 -7 20 -16 29 -13 14 -21 16 -35 8 -45 -23 -58
-129 -17 -129 34 0 56 -19 63 -52 9 -43 25 -64 36 -47 4 7 20 13 36 15 15 2
43 6 61 9 20 4 32 2 32 -5 0 -6 6 -18 14 -26 11 -10 15 -11 19 -1 2 6 7 9 11
6 11 -11 -6 -40 -20 -35 -21 8 -17 -18 5 -33 11 -8 17 -20 14 -26 -2 -8 8 -14
26 -17 27 -4 31 -2 31 19 0 13 -3 23 -8 23 -4 0 -13 9 -20 20 -9 15 -9 24 -1
38 8 13 9 31 2 58 -7 31 -13 38 -29 36 -18 -3 -18 -3 1 12 11 8 28 16 37 16
23 0 32 18 18 35 -7 9 -8 15 0 20 5 3 10 0 10 -7 1 -15 49 -53 57 -44 3 3 -27
37 -67 75 -49 46 -70 73 -65 81 6 10 4 12 -7 7 -9 -3 -24 3 -34 14 -9 10 -13
19 -9 19 4 0 -1 8 -11 18 -11 9 -19 27 -18 40 1 25 -13 28 -40 9z m-140 -213
c-4 -9 -9 -15 -11 -12 -3 3 -3 13 1 22 4 9 9 15 11 12 3 -3 3 -13 -1 -22z m64
-5 c0 -5 -4 -9 -10 -9 -5 0 -10 7 -10 16 0 8 5 12 10 9 6 -3 10 -10 10 -16z
m-40 -35 c0 -2 -9 -4 -21 -4 -11 0 -18 4 -14 10 5 8 35 3 35 -6z m50 6 c0 -5
-4 -10 -10 -10 -5 0 -10 5 -10 10 0 6 5 10 10 10 6 0 10 -4 10 -10z m12 -62
c-8 -8 -9 -4 -5 13 4 13 8 18 11 10 2 -7 -1 -18 -6 -23z m197 -24 c9 -20 9
-25 0 -22 -14 5 -32 48 -20 48 4 0 13 -12 20 -26z m26 -134 c-3 -5 -11 -10
-16 -10 -6 0 -7 5 -4 10 3 6 11 10 16 10 6 0 7 -4 4 -10z"/>
<path d="M3160 1750 c0 -5 5 -10 11 -10 5 0 7 5 4 10 -3 6 -8 10 -11 10 -2 0
-4 -4 -4 -10z"/>
<path d="M2050 1747 c0 -3 15 -10 32 -16 18 -6 28 -7 23 -2 -12 10 -55 25 -55
18z"/>
<path d="M2125 1730 c-3 -5 0 -10 9 -10 8 0 23 -3 33 -7 16 -6 16 -5 4 10 -15
19 -37 22 -46 7z"/>
<path d="M565 1690 c-3 -6 1 -7 9 -4 18 7 21 14 7 14 -6 0 -13 -4 -16 -10z"/>
<path d="M1230 1691 c0 -5 9 -11 20 -14 11 -3 20 -14 20 -24 0 -22 33 -53 56
-53 14 0 14 3 4 15 -10 12 -10 15 3 15 8 0 17 -7 21 -15 3 -8 14 -15 24 -15
25 0 48 25 32 35 -6 4 -9 14 -8 23 2 10 -4 17 -12 17 -8 0 -14 -6 -12 -13 1
-9 -8 -12 -31 -10 -18 1 -39 -2 -47 -7 -10 -6 -12 -4 -7 8 4 12 -2 21 -23 32
-34 17 -40 18 -40 6z"/>
<path d="M3943 1693 c4 -3 2 -12 -3 -18 -7 -9 -7 -21 1 -39 18 -40 34 -31 37
19 1 40 -1 45 -20 45 -12 0 -18 -3 -15 -7z"/>
<path d="M3350 1660 c0 -5 7 -7 15 -4 8 4 15 8 15 10 0 2 -7 4 -15 4 -8 0 -15
-4 -15 -10z"/>
<path d="M1470 1640 c0 -5 5 -10 10 -10 6 0 10 5 10 10 0 6 -4 10 -10 10 -5 0
-10 -4 -10 -10z"/>
<path d="M3158 1602 c-29 -36 -36 -66 -18 -77 6 -4 10 5 10 19 0 14 5 26 10
26 6 0 10 -3 10 -7 0 -7 48 -8 112 -4 10 1 15 7 12 14 -3 8 -16 12 -33 9 -35
-5 -69 12 -73 37 -2 16 -7 13 -30 -17z"/>
<path d="M727 1609 c-8 -11 -13 -29 -10 -40 8 -28 21 -23 15 6 -2 14 1 32 8
40 7 8 10 15 7 15 -3 0 -12 -9 -20 -21z"/>
<path d="M820 1610 c0 -14 7 -20 23 -20 20 -1 21 -2 5 -14 -21 -16 -13 -26 19
-26 13 0 23 -4 23 -9 0 -11 -25 -21 -53 -21 -45 -1 -108 -79 -86 -107 9 -10
16 -10 33 -1 11 7 35 11 53 9 22 -2 34 3 41 16 8 14 10 7 8 -29 -3 -34 0 -46
8 -41 6 4 4 -2 -4 -12 -11 -14 -12 -19 -2 -22 6 -3 10 -9 6 -14 -3 -5 0 -9 5
-9 6 0 11 11 11 24 0 14 5 28 10 31 6 3 10 15 10 26 0 33 36 22 93 -31 30 -27
59 -50 65 -50 5 0 12 -9 15 -21 8 -30 33 -18 29 14 -4 35 19 57 60 57 25 0 29
-3 18 -10 -13 -8 -12 -10 3 -10 9 0 17 5 17 10 0 6 5 10 11 10 5 0 7 -5 4 -10
-3 -6 4 -14 17 -19 17 -7 19 -10 5 -10 -27 -1 -6 -51 22 -51 6 0 11 -2 11 -5
0 -12 -24 -55 -31 -55 -4 0 -3 -16 2 -35 9 -33 8 -37 -26 -66 -42 -37 -43 -42
-10 -57 13 -6 31 -25 40 -42 11 -21 23 -30 40 -30 46 0 43 -18 -18 -90 -21
-25 -36 -33 -59 -32 -38 1 -48 10 -54 53 -6 36 -24 65 -24 37 0 -14 -4 -14
-36 3 -21 10 -41 16 -45 13 -12 -7 -11 -41 1 -49 6 -3 10 -18 10 -33 1 -27 29
-88 30 -63 0 8 13 1 32 -18 17 -17 35 -31 40 -31 4 0 8 -6 8 -14 0 -13 4 -13
27 0 16 7 34 14 41 14 22 0 13 -15 -18 -28 -40 -18 -40 -53 -1 -81 38 -27 55
-26 75 4 9 14 25 25 36 25 10 0 22 5 25 10 8 13 55 13 55 0 0 -5 -7 -10 -15
-10 -8 0 -15 -4 -15 -10 0 -5 9 -10 20 -10 14 0 21 -9 26 -37 4 -21 11 -43 16
-49 5 -8 3 -14 -7 -18 -20 -7 -19 -24 3 -29 16 -4 16 -4 -1 -12 -21 -9 -51 23
-37 40 5 6 -3 10 -21 11 -16 1 -45 9 -63 19 -33 18 -34 18 -57 -3 -12 -12 -28
-22 -34 -22 -6 0 -18 -11 -25 -24 -7 -14 -19 -27 -27 -30 -15 -6 -77 26 -79
40 0 5 -7 31 -15 58 -10 36 -23 55 -46 70 -34 22 -44 46 -18 46 10 0 14 9 12
30 -1 16 -3 30 -5 30 -11 0 -32 -32 -27 -40 3 -5 3 -15 -1 -22 -5 -7 -12 1
-19 23 -12 32 -14 34 -53 31 l-41 -3 6 49 c3 32 1 52 -6 56 -6 4 -11 31 -11
61 0 46 -4 57 -29 81 -21 19 -27 32 -22 43 5 8 5 27 1 43 -5 15 -6 28 -2 28 4
1 -4 7 -18 15 -22 12 -27 11 -42 -1 -13 -13 -19 -13 -37 -2 -12 7 -21 18 -21
23 0 6 -20 16 -44 22 -23 7 -62 28 -86 48 -48 40 -79 59 -86 52 -6 -6 -12 -50
-13 -91 -1 -26 -3 -28 -34 -22 -26 5 -36 2 -51 -15 -13 -15 -15 -24 -7 -32 6
-6 11 -20 11 -31 0 -11 7 -27 16 -37 10 -11 12 -19 5 -24 -6 -3 -11 -1 -11 4
0 6 -5 11 -10 11 -13 0 -8 -63 5 -72 16 -12 22 -10 57 22 18 17 37 29 43 27
17 -6 17 -35 1 -39 -11 -2 -8 -6 9 -15 22 -10 29 -8 54 12 36 31 38 59 2 51
-26 -6 -26 -6 3 10 l28 16 -31 19 c-17 10 -31 23 -31 28 0 13 60 62 69 57 4
-3 6 -18 3 -34 -2 -16 0 -32 5 -35 5 -3 9 3 9 15 -1 12 6 23 14 26 13 5 13 3
1 -11 -11 -15 -11 -17 2 -17 18 0 30 -27 17 -35 -17 -10 -11 -25 9 -25 29 0
35 -50 8 -72 -22 -20 -16 -24 14 -8 13 7 19 7 19 0 0 -5 -4 -10 -9 -10 -5 0
-7 -8 -5 -17 4 -13 -1 -18 -20 -19 -17 -1 -23 2 -19 12 6 16 -37 29 -66 19
-26 -8 -27 -39 -3 -66 18 -19 52 -18 52 2 0 5 5 9 11 9 6 0 8 -7 5 -17 -4 -9
-2 -19 4 -23 5 -3 -5 -7 -23 -8 -17 -1 -45 -3 -62 -4 -16 -1 -56 2 -87 6 -66
9 -95 3 -58 -12 15 -6 19 -11 9 -11 -22 -1 -20 -33 3 -49 10 -7 18 -18 18 -23
0 -11 25 -39 34 -39 11 0 6 28 -6 34 -10 5 -10 7 0 12 7 3 21 14 30 24 15 15
67 20 124 11 4 -1 5 -22 2 -48 -6 -45 -25 -75 -57 -86 -6 -2 -9 -8 -5 -12 4
-4 19 0 34 9 14 10 28 15 32 12 3 -3 0 -6 -6 -6 -7 0 -12 -4 -12 -10 0 -5 11
-10 25 -10 14 0 25 -4 25 -9 0 -4 11 -6 25 -3 14 2 25 11 25 18 0 26 16 14 18
-13 1 -16 10 -34 19 -41 15 -11 19 -10 27 7 10 23 1 55 -14 46 -5 -3 -7 0 -4
9 3 9 -2 17 -15 21 -30 9 -26 19 21 54 41 31 78 40 78 21 0 -5 11 -10 25 -10
22 0 24 -3 15 -20 -8 -15 -6 -21 10 -30 11 -6 26 -8 32 -4 8 5 9 -6 5 -40 -6
-42 -4 -50 16 -67 12 -10 27 -18 33 -19 18 0 35 -26 29 -43 -4 -8 -14 -13 -23
-11 -11 3 -29 -12 -51 -43 -19 -27 -45 -60 -58 -74 l-24 -26 21 -26 c12 -15
26 -27 31 -27 5 0 26 -7 47 -16 32 -14 35 -17 17 -23 -19 -8 -19 -8 3 -20 17
-9 27 -9 45 0 26 14 47 41 41 51 -5 8 18 12 44 9 6 -1 12 7 12 18 0 11 5 23
10 26 6 4 8 11 4 16 -3 6 2 19 12 30 17 19 19 19 25 2 4 -10 8 -35 8 -55 1
-27 5 -38 16 -38 8 0 24 -9 35 -20 11 -11 26 -20 34 -20 7 0 16 -11 18 -25 3
-13 1 -22 -3 -19 -11 6 -12 -40 -2 -50 13 -13 11 -36 -3 -36 -18 0 -36 -34
-28 -54 9 -23 -7 -19 -41 10 -35 30 -90 65 -108 68 -21 4 -88 28 -113 41 -29
15 -68 9 -86 -13 -11 -13 -10 -15 10 -10 29 8 29 -6 0 -19 l-23 -10 23 -12
c29 -16 28 -31 -3 -31 -30 0 -33 -16 -4 -23 12 -3 18 -10 15 -15 -3 -6 0 -13
6 -16 10 -3 8 -8 -4 -16 -10 -6 -17 -21 -16 -34 2 -22 7 -24 63 -25 54 -1 61
1 62 19 1 11 -2 22 -8 25 -13 9 -11 45 2 45 8 0 8 4 -1 15 -10 11 -9 18 3 30
9 8 17 11 19 6 3 -7 65 -51 112 -78 11 -7 27 -20 34 -30 11 -16 14 -16 22 -3
5 8 10 21 10 29 0 7 6 11 15 7 8 -3 15 0 15 7 0 7 8 21 17 32 13 16 15 17 10
2 -5 -12 3 -26 23 -44 17 -14 30 -32 30 -40 0 -7 5 -13 10 -13 13 0 13 13 -2
45 -9 21 -8 32 5 60 9 19 23 35 31 35 53 0 96 111 60 153 -11 12 -30 40 -42
63 l-22 41 21 19 c12 10 27 31 35 46 8 16 19 28 24 28 6 0 18 7 28 15 9 9 29
26 43 38 25 22 26 23 14 80 -11 57 -11 59 12 68 12 5 23 13 23 18 0 5 10 9 23
9 12 -1 36 2 52 4 17 3 23 3 14 1 -22 -6 -29 -35 -13 -51 10 -9 19 -10 32 -3
13 7 23 6 32 -2 10 -9 14 -9 17 1 3 6 13 12 24 12 14 0 19 7 19 25 0 21 -5 25
-29 25 -16 0 -40 4 -54 9 -15 6 -39 5 -66 -2 -33 -9 -44 -9 -50 2 -7 10 -12
10 -29 0 -11 -7 -18 -19 -15 -26 3 -7 0 -13 -6 -13 -16 0 -14 26 4 44 8 8 15
20 15 27 0 10 -3 10 -12 1 -18 -18 -45 -14 -62 9 -8 12 -28 23 -46 25 -17 2
-36 6 -41 9 -12 8 -12 42 0 50 20 12 38 63 33 94 -3 22 -12 35 -28 41 -32 12
-31 22 1 14 15 -4 25 -2 25 5 0 6 -5 11 -12 11 -7 0 -5 5 4 13 33 25 32 55 -4
87 -18 16 -40 30 -48 30 -9 0 -24 6 -35 13 -17 13 -17 16 -2 46 12 24 13 38 5
61 -5 17 -7 37 -4 45 3 8 1 15 -4 15 -6 0 -10 8 -10 19 0 10 -5 32 -11 50 -9
25 -16 31 -39 31 -16 0 -32 -5 -35 -11 -4 -6 -22 -8 -45 -4 -23 4 -41 2 -45
-4 -3 -6 -26 -11 -50 -11 -39 0 -47 4 -71 35 -29 39 -48 44 -63 18 -6 -10 -11
-13 -11 -7 0 14 -48 47 -67 47 -8 0 -9 4 -3 12 5 6 5 26 0 49 -10 44 -7 41
-42 50 -24 5 -28 3 -28 -14z m107 -196 c-9 -9 -28 6 -21 18 4 6 10 6 17 -1 6
-6 8 -13 4 -17z m33 16 c0 -5 -4 -10 -10 -10 -5 0 -10 5 -10 10 0 6 5 10 10
10 6 0 10 -4 10 -10z m358 -285 c-3 -3 -9 2 -12 12 -6 14 -5 15 5 6 7 -7 10
-15 7 -18z m-881 -17 c-3 -8 -6 -5 -6 6 -1 11 2 17 5 13 3 -3 4 -12 1 -19z
m377 14 c3 -5 -1 -9 -9 -9 -8 0 -12 4 -9 9 3 4 7 8 9 8 2 0 6 -4 9 -8z m451
-52 c-3 -5 -11 -10 -16 -10 -6 0 -7 5 -4 10 3 6 11 10 16 10 6 0 7 -4 4 -10z
m-785 -40 c0 -5 -4 -10 -10 -10 -5 0 -10 5 -10 10 0 6 5 10 10 10 6 0 10 -4
10 -10z m875 -20 c3 -5 1 -10 -4 -10 -6 0 -11 5 -11 10 0 6 2 10 4 10 3 0 8
-4 11 -10z m-43 -12 c2 -6 19 -11 36 -11 20 0 28 -3 20 -8 -16 -10 -58 0 -76
18 -11 11 -11 13 1 13 9 0 17 -5 19 -12z m-722 -2 c0 -2 -7 -7 -16 -10 -8 -3
-12 -2 -9 4 6 10 25 14 25 6z m838 -61 c-3 -3 -9 2 -12 12 -6 14 -5 15 5 6 7
-7 10 -15 7 -18z m-73 -35 c-4 -13 -2 -20 7 -20 10 0 10 -2 -1 -9 -8 -5 -20
-7 -27 -4 -11 4 -10 10 4 29 21 29 25 30 17 4z m-478 -46 c-3 -3 -12 -4 -19
-1 -8 3 -5 6 6 6 11 1 17 -2 13 -5z m477 -13 c3 -5 -3 -11 -15 -14 -16 -4 -18
-3 -8 9 13 16 16 17 23 5z m27 -32 c-9 -22 -10 -22 -10 -3 -1 11 2 24 6 27 12
12 14 0 4 -24z m-721 17 c0 -2 -7 -7 -16 -10 -8 -3 -12 -2 -9 4 6 10 25 14 25
6z m45 -6 c-3 -5 -14 -10 -23 -10 -15 0 -15 2 -2 10 20 13 33 13 25 0z m45
-42 c0 -5 -9 -8 -19 -8 -13 0 -19 6 -18 19 1 15 4 17 19 7 10 -6 18 -14 18
-18z m-50 13 c0 -17 -18 -21 -24 -6 -3 9 0 15 9 15 8 0 15 -4 15 -9z m8 -54
c2 -12 -1 -15 -12 -11 -19 7 -22 38 -3 32 6 -3 13 -12 15 -21z m67 14 c7 -12
-12 -24 -25 -16 -11 7 -4 25 10 25 5 0 11 -4 15 -9z m1001 -52 c10 -16 -3 -22
-51 -25 -49 -3 -52 -2 -31 19 17 16 73 20 82 6z m-411 -9 c-27 -12 -35 -12
-35 0 0 6 12 10 28 9 24 0 25 -1 7 -9z m-651 -15 c-4 -8 -11 -15 -16 -15 -6 0
-5 6 2 15 7 8 14 15 16 15 2 0 1 -7 -2 -15z m546 -5 c0 -5 -2 -10 -4 -10 -3 0
-8 5 -11 10 -3 6 -1 10 4 10 6 0 11 -4 11 -10z m-236 -92 c-3 -5 -12 -4 -20 3
-19 16 -18 18 6 12 11 -3 17 -9 14 -15z m95 -90 c-11 -21 -21 -22 -37 -6 -19
19 -14 25 17 24 24 -1 27 -4 20 -18z m48 -4 c-3 -3 -12 -4 -19 -1 -8 3 -5 6 6
6 11 1 17 -2 13 -5z m197 -29 c-5 -11 -2 -13 10 -9 9 3 16 1 16 -5 0 -6 -5
-11 -11 -11 -8 0 -7 -5 1 -15 15 -18 8 -28 -22 -32 -11 -2 -27 -11 -34 -21
-15 -19 -15 -19 -19 26 -1 18 1 35 6 38 5 3 9 14 9 25 0 14 7 19 25 19 18 0
23 -4 19 -15z m-224 -75 c0 -5 -5 -10 -11 -10 -5 0 -7 5 -4 10 3 6 8 10 11 10
2 0 4 -4 4 -10z m-164 -35 c-9 -9 -16 -13 -16 -8 0 12 22 34 28 28 2 -2 -3
-11 -12 -20z m64 -35 c0 -5 -5 -10 -11 -10 -5 0 -7 5 -4 10 3 6 8 10 11 10 2
0 4 -4 4 -10z m419 -82 c-1 -31 -1 -32 -9 -8 l-8 25 -2 -25 c-2 -18 -4 -20 -7
-7 -7 26 -23 21 -23 -8 0 -14 -4 -25 -10 -25 -18 0 -11 50 8 56 9 3 24 9 32
14 8 5 16 9 18 9 1 1 2 -14 1 -31z m-459 -48 c0 -5 -2 -10 -4 -10 -3 0 -8 5
-11 10 -3 6 -1 10 4 10 6 0 11 -4 11 -10z"/>
<path d="M3292 1618 c2 -6 10 -14 16 -16 7 -2 10 2 6 12 -7 18 -28 22 -22 4z"/>
<path d="M3535 1620 c3 -5 11 -10 16 -10 6 0 7 5 4 10 -3 6 -11 10 -16 10 -6
0 -7 -4 -4 -10z"/>
<path d="M1425 1607 c-11 -7 -26 -20 -33 -30 -8 -10 -25 -22 -37 -27 -20 -7
-24 -16 -23 -49 0 -21 -3 -45 -7 -52 -6 -9 -1 -11 19 -7 20 4 24 2 17 -5 -17
-17 -13 -26 9 -20 13 4 20 0 20 -10 0 -8 7 -18 16 -21 8 -3 13 -10 9 -16 -3
-5 3 -18 13 -28 11 -11 22 -26 24 -33 3 -8 9 -11 13 -7 4 4 3 14 -4 22 -15 17
-25 96 -13 96 18 0 78 67 79 90 3 31 -14 60 -35 60 -9 0 -26 7 -37 16 -17 13
-18 16 -5 24 22 14 -1 11 -25 -3z"/>
<path d="M3847 1604 c-10 -11 2 -53 34 -121 34 -71 37 -73 64 -62 l20 8 -20 1
-20 1 20 9 20 9 -20 0 c-17 1 -20 8 -21 47 -1 25 -7 51 -13 57 -6 6 -11 21
-11 34 0 17 -6 23 -23 23 -13 0 -27 -3 -30 -6z m51 -100 c-4 -3 -12 5 -18 18
-12 22 -12 22 6 6 10 -10 15 -20 12 -24z"/>
<path d="M790 1576 c0 -9 5 -16 10 -16 6 0 10 4 10 9 0 6 -4 13 -10 16 -5 3
-10 -1 -10 -9z"/>
<path d="M15 1571 c-3 -5 3 -12 12 -14 14 -4 13 -5 -4 -6 -21 -1 -34 -31 -14
-31 23 0 66 27 69 43 3 19 -14 23 -21 5 -4 -10 -6 -10 -6 0 -1 14 -27 16 -36
3z"/>
<path d="M3169 1527 c7 -7 14 -8 21 -1 6 6 2 10 -12 11 -16 2 -18 -1 -9 -10z"/>
<path d="M2484 1483 c2 -10 7 -32 11 -49 4 -21 14 -35 28 -39 33 -11 47 -11
47 0 0 6 -4 11 -10 11 -5 1 -16 2 -22 3 -7 1 -18 12 -24 25 -9 20 -9 23 2 19
8 -3 14 -9 14 -14 0 -5 5 -9 10 -9 17 0 11 16 -15 44 -28 30 -49 34 -41 9z"/>
<path d="M3742 1438 c-18 -18 -14 -38 7 -38 20 0 48 27 37 37 -3 3 -6 2 -6 -4
0 -6 -7 -14 -16 -17 -13 -5 -15 -2 -11 14 6 23 5 24 -11 8z"/>
<path d="M2348 1413 c6 -2 18 -2 25 0 6 3 1 5 -13 5 -14 0 -19 -2 -12 -5z"/>
<path d="M795 1390 c-3 -5 -1 -10 4 -10 6 0 11 5 11 10 0 6 -2 10 -4 10 -3 0
-8 -4 -11 -10z"/>
<path d="M1648 1378 c-21 -7 -28 -16 -28 -35 0 -25 -1 -26 -60 -20 -46 4 -60
2 -60 -8 0 -7 -6 -15 -12 -18 -9 -3 -6 -10 8 -23 22 -20 47 -90 38 -106 -3 -4
-1 -8 4 -8 5 0 12 10 15 22 5 17 9 19 21 9 32 -26 136 18 136 58 0 9 5 22 11
28 8 8 4 22 -14 49 -13 22 -26 44 -28 50 -3 8 -13 8 -31 2z m14 -80 c6 -16 -1
-38 -12 -38 -4 0 -7 11 -6 25 1 27 11 33 18 13z m30 -30 c-7 -7 -12 -8 -12 -2
0 14 12 26 19 19 2 -3 -1 -11 -7 -17z m-45 -54 c-3 -3 -12 -4 -19 -1 -8 3 -5
6 6 6 11 1 17 -2 13 -5z"/>
<path d="M124 1372 c8 -13 -16 -42 -34 -42 -23 0 -60 -33 -60 -55 0 -17 9 -25
39 -35 36 -12 42 -11 67 9 20 16 30 18 40 10 8 -6 14 -17 14 -24 0 -7 15 -28
33 -46 39 -40 64 -35 92 18 15 26 16 38 7 57 -15 33 -44 66 -58 66 -7 0 -14 6
-17 14 -3 7 -27 17 -52 21 -26 3 -54 9 -63 13 -10 3 -13 1 -8 -6z"/>
<path d="M726 1338 c-8 -62 -3 -126 10 -121 14 5 44 68 44 91 0 27 -23 72 -37
72 -6 0 -14 -19 -17 -42z"/>
<path d="M1988 1373 c6 -2 18 -2 25 0 6 3 1 5 -13 5 -14 0 -19 -2 -12 -5z"/>
<path d="M3566 1335 c4 -8 8 -15 10 -15 2 0 4 7 4 15 0 8 -4 15 -10 15 -5 0
-7 -7 -4 -15z"/>
<path d="M2472 1313 c-15 -27 -15 -53 -2 -53 6 0 10 9 10 20 0 14 5 18 18 14
10 -4 13 -3 6 3 -6 4 -13 15 -16 23 -4 12 -7 10 -16 -7z"/>
<path d="M3712 1309 c-12 -18 -11 -20 5 -17 10 2 19 11 21 21 5 23 -10 21 -26
-4z"/>
<path d="M2358 1293 c7 -3 16 -2 19 1 4 3 -2 6 -13 5 -11 0 -14 -3 -6 -6z"/>
<path d="M2935 1290 c26 -11 35 -12 35 -2 0 4 -12 8 -27 9 -24 1 -25 1 -8 -7z"/>
<path d="M3852 1288 c-21 -21 -14 -27 54 -48 80 -24 74 -25 74 3 -1 39 -99 74
-128 45z"/>
<path d="M3597 1283 c-4 -3 -7 -11 -7 -17 0 -6 5 -5 12 2 6 6 9 14 7 17 -3 3
-9 2 -12 -2z"/>
<path d="M3150 1256 c0 -8 5 -18 10 -21 6 -3 10 1 10 9 0 8 -4 18 -10 21 -5 3
-10 -1 -10 -9z"/>
<path d="M1160 1250 c0 -5 5 -10 10 -10 6 0 10 5 10 10 0 6 -4 10 -10 10 -5 0
-10 -4 -10 -10z"/>
<path d="M3110 1251 c0 -6 4 -13 10 -16 6 -3 7 1 4 9 -7 18 -14 21 -14 7z"/>
<path d="M348 1243 c7 -3 16 -2 19 1 4 3 -2 6 -13 5 -11 0 -14 -3 -6 -6z"/>
<path d="M888 1231 c-11 -10 -15 -25 -11 -39 3 -14 1 -22 -8 -22 -10 0 -10 -3
-2 -11 6 -6 9 -19 6 -28 -4 -13 -2 -13 7 2 6 9 9 21 5 26 -3 5 -1 12 4 16 6 3
8 12 4 20 -3 8 -1 15 5 15 5 0 12 9 15 20 6 24 -2 25 -25 1z"/>
<path d="M930 1226 c0 -8 -3 -21 -6 -30 -5 -13 1 -16 30 -16 20 0 36 5 36 10
0 6 -4 10 -8 10 -5 0 -18 9 -30 20 -17 16 -22 17 -22 6z"/>
<path d="M3202 1214 c10 -10 20 -16 22 -13 3 3 -5 11 -17 18 -21 13 -21 12 -5
-5z"/>
<path d="M7 1195 c5 -25 17 -32 27 -16 3 4 -3 16 -13 25 -17 16 -18 15 -14 -9z"/>
<path d="M3138 1183 c6 -2 18 -2 25 0 6 3 1 5 -13 5 -14 0 -19 -2 -12 -5z"/>
<path d="M2630 1173 c0 -14 19 -38 25 -32 8 8 -5 39 -16 39 -5 0 -9 -3 -9 -7z"/>
<path d="M3663 1130 c-23 -9 -30 -25 -15 -33 7 -5 52 27 52 37 0 8 -10 7 -37
-4z"/>
<path d="M1601 1118 c-1 -23 9 -48 21 -48 7 0 7 4 0 13 -5 6 -12 21 -15 32 -3
15 -5 16 -6 3z"/>
<path d="M3318 1115 c-8 -9 7 -62 28 -93 16 -24 17 -25 30 -7 18 25 18 41 0
26 -11 -9 -16 -9 -22 0 -4 8 -3 9 4 5 7 -4 12 -3 12 3 0 5 -4 12 -10 16 -5 3
-6 13 -3 23 3 9 3 14 -2 10 -4 -4 -13 -1 -19 8 -6 8 -14 12 -18 9z"/>
<path d="M2800 1100 c0 -5 5 -10 11 -10 5 0 7 5 4 10 -3 6 -8 10 -11 10 -2 0
-4 -4 -4 -10z"/>
<path d="M3784 1095 c8 -8 17 -15 20 -15 3 0 3 7 0 15 -4 8 -13 15 -21 15 -12
0 -12 -2 1 -15z"/>
<path d="M3893 1079 c-21 -6 -30 -14 -27 -23 3 -8 0 -17 -6 -21 -6 -4 -8 -15
-5 -26 4 -11 2 -19 -4 -19 -6 0 -10 -6 -8 -12 1 -7 -4 -12 -10 -10 -7 1 -13
-5 -13 -13 0 -8 7 -15 15 -15 8 0 15 -5 15 -12 0 -18 57 41 70 73 7 16 16 27
20 24 9 -6 18 35 12 53 -4 14 -14 14 -59 1z m24 -15 c-3 -3 -12 -4 -19 -1 -8
3 -5 6 6 6 11 1 17 -2 13 -5z m-42 -104 c-3 -5 -12 -10 -18 -10 -7 0 -6 4 3
10 19 12 23 12 15 0z"/>
<path d="M2690 1071 c0 -5 7 -14 15 -21 16 -14 18 -10 9 14 -6 17 -24 22 -24
7z"/>
<path d="M2720 1070 c0 -16 30 -19 55 -6 25 13 25 13 -15 13 -22 0 -40 -3 -40
-7z"/>
<path d="M3710 1065 c-11 -13 -10 -14 4 -9 9 3 16 10 16 15 0 13 -6 11 -20 -6z"/>
<path d="M3680 1039 c0 -5 11 -9 24 -9 14 0 28 -4 31 -10 3 -5 11 -10 18 -10
16 0 -24 26 -50 33 -13 3 -23 1 -23 -4z"/>
<path d="M0 1030 c0 -5 5 -10 10 -10 6 0 10 5 10 10 0 6 -4 10 -10 10 -5 0
-10 -4 -10 -10z"/>
<path d="M328 1033 c6 -2 18 -2 25 0 6 3 1 5 -13 5 -14 0 -19 -2 -12 -5z"/>
<path d="M1975 1015 c-3 -8 -7 -22 -10 -30 -2 -9 -18 -23 -35 -33 -16 -9 -30
-22 -30 -29 0 -7 -8 -17 -17 -22 -16 -9 -14 -11 10 -12 15 -1 33 -2 40 -3 6
-1 16 -10 20 -20 14 -35 27 -3 34 82 5 74 0 106 -12 67z"/>
<path d="M196 968 c-20 -28 -20 -38 -1 -38 18 0 20 -16 3 -26 -6 -4 -14 -2
-16 4 -4 14 -22 16 -22 4 0 -5 10 -14 23 -20 12 -6 16 -11 9 -11 -8 -1 -33 13
-57 30 -43 31 -45 31 -69 15 -24 -15 -26 -15 -36 4 -21 40 -30 19 -30 -75 0
-107 -9 -97 102 -113 l56 -9 7 34 c3 18 3 38 -1 45 -4 7 -3 8 4 4 11 -7 52 15
80 41 7 7 17 13 22 13 5 0 14 9 20 20 8 15 5 27 -17 59 -32 46 -55 51 -77 19z
m41 -70 c-3 -8 -6 -5 -6 6 -1 11 2 17 5 13 3 -3 4 -12 1 -19z m-133 1 c-2 -4
-15 -6 -30 -6 -14 0 -21 2 -15 6 13 9 51 9 45 0z m99 -54 c-6 -17 -25 -15 -31
3 -2 7 5 12 17 12 14 0 19 -5 14 -15z m-149 -75 c-10 -4 -23 -5 -28 -2 -13 7
16 21 32 14 13 -4 12 -7 -4 -12z"/>
<path d="M2685 970 c-3 -5 -2 -10 4 -10 5 0 13 5 16 10 3 6 2 10 -4 10 -5 0
-13 -4 -16 -10z"/>
<path d="M426 955 c-3 -8 -1 -15 3 -15 5 0 11 7 15 15 3 8 1 15 -3 15 -5 0
-11 -7 -15 -15z"/>
<path d="M358 953 c7 -3 16 -2 19 1 4 3 -2 6 -13 5 -11 0 -14 -3 -6 -6z"/>
<path d="M3363 927 c-30 -44 -30 -67 1 -67 14 0 36 4 49 9 24 9 25 12 15 50
-13 51 -35 53 -65 8z m27 -16 c0 -5 -7 -11 -14 -14 -10 -4 -13 -1 -9 9 6 15
23 19 23 5z"/>
<path d="M3777 954 c-3 -3 -2 -14 3 -23 5 -9 11 -24 14 -33 8 -28 26 -21 26
10 0 36 -25 63 -43 46z"/>
<path d="M2695 940 c-5 -8 -15 -26 -23 -40 l-15 -25 27 26 c16 15 26 33 24 40
-3 10 -6 10 -13 -1z"/>
<path d="M3243 906 c-23 -11 -31 -26 -14 -26 17 0 61 27 54 33 -8 8 -12 8 -40
-7z"/>
<path d="M1602 874 c-1 -14 -9 -36 -18 -49 -9 -14 -12 -25 -8 -25 16 1 53 88
40 93 -7 3 -13 -6 -14 -19z"/>
<path d="M3840 881 c-6 -12 -17 -21 -25 -21 -8 0 -15 -4 -15 -10 0 -5 7 -10
15 -10 16 0 51 47 42 56 -3 3 -10 -4 -17 -15z"/>
<path d="M3200 879 c1 -21 25 -49 43 -49 9 0 19 -4 22 -10 11 -18 43 -11 50
11 8 24 -2 39 -14 21 -6 -10 -11 -10 -21 3 -16 19 -31 20 -24 0 9 -24 -8 -18
-33 12 -14 15 -23 20 -23 12z"/>
<path d="M1890 866 c0 -2 9 -6 20 -9 11 -3 18 -1 14 4 -5 9 -34 13 -34 5z"/>
<path d="M2740 851 c0 -11 9 -23 20 -26 11 -3 20 -11 20 -16 0 -5 17 -9 38 -8
20 0 31 3 24 6 -6 2 -10 9 -6 14 3 5 -4 9 -16 9 -13 0 -19 -4 -14 -12 5 -7 3
-8 -5 -3 -8 4 -10 17 -7 31 6 21 3 24 -24 24 -23 0 -30 -4 -30 -19z m40 -1 c0
-5 -7 -10 -15 -10 -8 0 -15 5 -15 10 0 6 7 10 15 10 8 0 15 -4 15 -10z"/>
<path d="M3535 813 c-33 -26 -68 -55 -77 -66 -15 -16 -20 -17 -33 -7 -8 7 -15
20 -15 30 0 13 -6 16 -26 12 -14 -2 -27 -10 -29 -16 -1 -6 -8 -29 -14 -51 -8
-33 -17 -43 -45 -53 -45 -17 -50 -35 -15 -56 16 -9 29 -21 29 -27 0 -5 6 -9
14 -9 8 0 16 -6 19 -12 3 -9 13 -7 34 9 24 17 39 20 72 16 l42 -6 -3 49 c-3
41 0 50 18 59 12 6 29 17 38 24 19 16 46 -1 46 -29 0 -21 64 -66 108 -75 17
-4 32 -11 32 -16 0 -5 4 -9 10 -9 5 0 7 6 4 14 -3 8 -1 17 5 21 13 7 15 45 3
45 -5 0 -15 12 -23 28 -8 15 -21 32 -29 39 -8 7 -13 13 -10 13 34 8 48 8 64 4
13 -5 15 -8 6 -14 -10 -6 -10 -12 0 -31 12 -21 14 -21 25 -5 7 9 18 15 25 14
7 -2 15 3 17 10 3 6 -2 12 -11 12 -8 0 -18 5 -22 11 -5 8 3 10 24 7 25 -4 29
-2 21 9 -7 7 -18 13 -26 13 -8 0 -11 5 -8 11 5 7 15 5 32 -6 33 -22 39 -14 10
13 -32 30 -49 31 -57 2 -5 -23 -10 -25 -60 -24 -40 0 -54 4 -52 13 1 7 -6 20
-17 30 -47 40 -61 51 -64 51 -1 0 -29 -21 -62 -47z m90 -1 c-3 -3 -11 0 -18 7
-9 10 -8 11 6 5 10 -3 15 -9 12 -12z m-185 -192 c12 -8 11 -10 -7 -10 -13 0
-23 5 -23 10 0 13 11 13 30 0z"/>
<path d="M556 775 c4 -8 8 -15 10 -15 2 0 4 7 4 15 0 8 -4 15 -10 15 -5 0 -7
-7 -4 -15z"/>
<path d="M2686 775 c10 -8 24 -14 29 -14 6 0 1 6 -9 14 -11 8 -24 15 -30 15
-5 0 -1 -7 10 -15z"/>
<path d="M1988 773 c12 -2 30 -2 40 0 9 3 -1 5 -23 4 -22 0 -30 -2 -17 -4z"/>
<path d="M2160 761 c0 -19 -23 -35 -34 -23 -4 3 -21 11 -40 17 -30 11 -33 10
-28 -7 2 -10 -1 -18 -7 -18 -6 0 -11 -12 -11 -26 0 -19 -4 -25 -15 -20 -17 6
-21 -9 -5 -19 7 -4 7 -13 0 -26 -6 -10 -8 -19 -4 -19 4 0 -1 -9 -10 -19 -10
-11 -15 -24 -11 -30 4 -7 0 -8 -11 -4 -12 4 -15 2 -12 -8 3 -8 23 -16 49 -19
24 -3 55 -13 68 -22 19 -13 28 -14 48 -5 33 15 28 53 -7 50 l-25 -3 25 16 c44
28 72 81 68 130 -2 24 0 44 4 44 5 0 8 -9 8 -20 0 -24 6 -25 26 -5 16 15 7 23
-50 45 -22 8 -26 7 -26 -9z m-80 -201 c0 -5 -8 -10 -17 -10 -15 0 -16 2 -3 10
19 12 20 12 20 0z m30 -20 c0 -5 -4 -10 -10 -10 -5 0 -10 5 -10 10 0 6 5 10
10 10 6 0 10 -4 10 -10z"/>
<path d="M2276 763 c-6 -14 -5 -15 5 -6 7 7 10 15 7 18 -3 3 -9 -2 -12 -12z"/>
<path d="M1090 746 c0 -8 5 -18 10 -21 6 -3 10 1 10 9 0 8 -4 18 -10 21 -5 3
-10 -1 -10 -9z"/>
<path d="M2300 744 c0 -8 5 -12 10 -9 6 3 10 10 10 16 0 5 -4 9 -10 9 -5 0
-10 -7 -10 -16z"/>
<path d="M3865 740 c-3 -5 -1 -10 4 -10 6 0 11 5 11 10 0 6 -2 10 -4 10 -3 0
-8 -4 -11 -10z"/>
<path d="M2326 713 c4 -19 3 -24 -4 -14 -7 10 -11 10 -17 1 -12 -19 9 -32 29
-17 13 10 16 20 12 35 -10 32 -27 27 -20 -5z"/>
<path d="M3939 733 c-35 -9 -28 -86 8 -91 14 -2 20 -8 17 -17 -3 -7 -1 -16 5
-20 8 -4 11 17 11 64 0 72 -2 75 -41 64z"/>
<path d="M20 721 c17 -5 21 -9 12 -15 -6 -4 -17 -4 -22 -1 -15 9 -12 -4 4 -20
12 -12 16 -12 27 1 24 30 19 44 -14 43 -30 -1 -30 -1 -7 -8z"/>
<path d="M1826 721 c-4 -5 2 -14 11 -20 16 -9 16 -11 -7 -20 -25 -10 -25 -10
5 -7 23 2 31 8 33 27 2 13 1 21 -4 17 -4 -4 -13 -3 -20 3 -8 6 -14 7 -18 0z"/>
<path d="M2620 711 c0 -11 5 -23 10 -26 6 -4 10 5 10 19 0 14 -4 26 -10 26 -5
0 -10 -9 -10 -19z"/>
<path d="M3855 710 c-3 -5 1 -10 9 -10 9 0 16 5 16 10 0 6 -4 10 -9 10 -6 0
-13 -4 -16 -10z"/>
<path d="M1177 683 c-14 -14 -5 -39 21 -58 19 -13 23 -14 14 -3 -10 13 -10 17
0 21 10 4 10 6 1 6 -7 1 -13 10 -13 21 0 20 -11 26 -23 13z"/>
<path d="M1880 669 c0 -5 5 -7 10 -4 6 3 10 8 10 11 0 2 -4 4 -10 4 -5 0 -10
-5 -10 -11z"/>
<path d="M265 660 c3 -5 8 -10 11 -10 2 0 4 5 4 10 0 6 -5 10 -11 10 -5 0 -7
-4 -4 -10z"/>
<path d="M0 644 c0 -8 5 -12 10 -9 6 4 8 11 5 16 -9 14 -15 11 -15 -7z"/>
<path d="M2738 600 c2 -22 8 -40 14 -40 5 0 6 5 2 12 -5 8 0 9 14 6 12 -4 22
-2 22 3 0 5 -6 9 -14 9 -8 0 -16 7 -20 15 -3 8 -2 15 3 15 5 0 14 -7 21 -15 7
-8 20 -15 29 -16 10 0 11 -2 4 -6 -18 -7 -16 -33 3 -33 8 0 13 4 10 9 -3 5 1
11 9 15 24 9 17 21 -20 35 -19 7 -35 17 -35 22 0 5 -10 9 -23 9 -20 0 -22 -4
-19 -40z"/>
<path d="M345 620 c-3 -5 1 -10 9 -10 9 0 13 -6 10 -14 -3 -7 2 -16 11 -20 9
-3 13 -11 9 -18 -5 -8 0 -9 16 -5 13 3 30 1 37 -5 17 -14 30 -1 15 14 -7 7
-12 20 -12 29 0 10 -11 19 -27 23 -16 4 -35 9 -45 12 -9 3 -19 0 -23 -6z m65
-30 c-12 -8 -12 -10 -1 -10 8 0 12 -3 8 -6 -9 -9 -28 6 -22 17 4 5 12 9 18 9
7 0 6 -4 -3 -10z"/>
<path d="M610 616 c0 -8 -18 -23 -40 -33 -22 -10 -42 -26 -45 -35 -4 -10 -12
-18 -20 -18 -7 0 -15 -6 -18 -13 -7 -19 37 -15 60 6 23 20 99 24 106 5 3 -8 6
-6 6 4 1 10 -5 23 -12 29 -7 7 -11 25 -9 41 3 21 0 28 -12 28 -9 0 -16 -6 -16
-14z"/>
<path d="M1843 610 c-25 -10 -32 -55 -11 -62 9 -3 8 -10 -5 -22 -22 -22 -19
-27 11 -20 12 4 24 14 27 24 5 17 52 36 62 26 3 -3 -1 -12 -10 -20 -8 -8 -18
-12 -22 -8 -3 4 -11 -1 -16 -10 -5 -9 -30 -22 -56 -28 -46 -12 -48 -14 -50
-51 -4 -83 -3 -82 -47 -76 -21 3 -42 10 -46 17 -4 6 -13 8 -21 5 -9 -3 -24 3
-34 15 -10 11 -21 20 -26 20 -4 0 -12 -22 -19 -49 -10 -44 -9 -54 9 -92 12
-23 21 -51 21 -61 0 -24 5 -23 40 11 35 33 36 37 10 44 -11 3 -20 10 -20 17 0
13 43 3 48 -11 7 -17 22 -9 22 11 0 13 7 20 18 20 10 0 29 11 42 25 16 17 34
25 56 25 25 0 38 7 55 33 13 17 26 34 30 37 4 3 10 24 14 47 4 24 11 45 15 48
11 7 4 64 -11 81 -13 16 -53 17 -86 4z m-148 -264 c18 -13 18 -14 1 -32 -18
-17 -18 -17 -11 5 6 20 5 22 -13 12 -11 -6 -28 -8 -37 -5 -14 6 -14 8 2 20 23
17 35 17 58 0z m45 -6 c0 -5 -4 -10 -10 -10 -5 0 -10 5 -10 10 0 6 5 10 10 10
6 0 10 -4 10 -10z"/>
<path d="M3620 610 c0 -5 5 -10 10 -10 6 0 10 5 10 10 0 6 -4 10 -10 10 -5 0
-10 -4 -10 -10z"/>
<path d="M1630 578 c0 -23 3 -29 9 -19 8 12 4 51 -5 51 -2 0 -4 -15 -4 -32z"/>
<path d="M3650 591 c0 -6 5 -13 10 -16 6 -3 10 1 10 9 0 9 -4 16 -10 16 -5 0
-10 -4 -10 -9z"/>
<path d="M3810 596 c0 -2 6 -9 14 -15 10 -9 16 -8 26 4 11 13 8 15 -14 15 -14
0 -26 -2 -26 -4z"/>
<path d="M2867 576 c-13 -10 -15 -16 -6 -21 10 -7 28 10 29 28 0 9 -2 9 -23
-7z"/>
<path d="M3620 571 c0 -5 6 -12 13 -14 9 -4 9 -8 1 -14 -20 -14 -32 -76 -21
-103 14 -35 9 -98 -10 -126 -20 -31 0 -33 37 -4 14 11 35 20 46 20 28 0 47 23
48 59 1 16 3 29 6 29 18 -1 21 4 10 16 -6 8 -17 13 -24 10 -7 -3 -25 9 -40 26
-24 29 -31 47 -27 77 1 7 -8 17 -19 23 -12 6 -20 7 -20 1z m47 -163 c-3 -8 -6
-5 -6 6 -1 11 2 17 5 13 3 -3 4 -12 1 -19z"/>
<path d="M3953 569 c-6 -6 -9 -18 -6 -26 5 -12 1 -14 -14 -9 -14 5 -23 1 -27
-10 -5 -13 -4 -15 7 -5 11 9 17 8 26 -2 6 -8 9 -16 6 -18 -2 -3 4 -5 14 -5 15
0 18 7 16 39 -3 44 -7 51 -22 36z m17 -43 c0 -3 -4 -8 -10 -11 -5 -3 -10 -1
-10 4 0 6 5 11 10 11 6 0 10 -2 10 -4z"/>
<path d="M1601 558 c-1 -10 -8 -18 -16 -18 -8 0 -15 -4 -15 -10 0 -5 4 -10 9
-10 14 0 33 28 28 42 -4 8 -6 7 -6 -4z"/>
<path d="M2261 557 c-6 -6 -11 -16 -11 -23 0 -13 -36 -39 -65 -47 -17 -4 -17
-5 -2 -6 31 -2 18 -20 -15 -19 -18 1 -34 -4 -36 -11 -7 -21 -34 -42 -48 -37
-8 3 -14 2 -14 -3 0 -5 11 -12 25 -15 21 -5 25 -12 25 -41 0 -19 5 -35 10 -35
6 0 21 -23 34 -52 21 -46 27 -52 59 -55 20 -2 39 2 43 8 4 7 1 10 -7 7 -22 -7
-37 32 -26 66 8 23 7 30 -7 38 -18 10 -13 28 9 28 7 0 27 14 44 30 26 26 34
29 51 20 11 -6 21 -16 22 -23 0 -7 2 -17 2 -23 1 -6 8 -20 16 -30 10 -12 11
-15 2 -10 -10 6 -13 1 -10 -20 2 -17 9 -29 18 -29 13 0 19 8 50 75 10 23 71
60 98 60 7 0 12 5 12 10 0 6 -1 10 -3 10 -2 0 -28 5 -59 10 -39 7 -70 7 -103
0 -43 -10 -49 -9 -66 12 -12 13 -17 28 -13 37 16 37 15 56 -4 68 -14 9 -22 9
-31 0z m-107 -132 c-4 -8 -8 -15 -10 -15 -2 0 -4 7 -4 15 0 8 4 15 10 15 5 0
7 -7 4 -15z m326 -9 c0 -3 -4 -8 -10 -11 -5 -3 -10 -1 -10 4 0 6 5 11 10 11 6
0 10 -2 10 -4z"/>
<path d="M3703 555 c-40 -13 -53 -25 -27 -25 27 1 80 25 69 31 -6 3 -24 0 -42
-6z"/>
<path d="M1025 550 c3 -5 8 -10 11 -10 2 0 4 5 4 10 0 6 -5 10 -11 10 -5 0 -7
-4 -4 -10z"/>
<path d="M233 535 c-8 -23 4 -30 22 -12 19 20 19 27 0 27 -9 0 -18 -7 -22 -15z"/>
<path d="M2771 538 c-1 -10 -5 -18 -11 -18 -5 0 -10 -5 -10 -12 0 -8 6 -7 16
4 9 9 14 22 11 30 -4 9 -6 7 -6 -4z"/>
<path d="M2795 530 c-9 -15 4 -30 23 -29 15 1 15 2 0 6 -21 5 -23 19 -5 26 9
4 9 6 0 6 -6 1 -15 -3 -18 -9z"/>
<path d="M2830 530 c0 -5 6 -10 14 -10 8 0 18 5 21 10 3 6 -3 10 -14 10 -12 0
-21 -4 -21 -10z"/>
<path d="M80 511 c0 -5 9 -11 21 -14 16 -4 18 -3 8 9 -13 16 -29 19 -29 5z"/>
<path d="M1547 503 c-13 -12 -7 -23 13 -23 11 0 20 -5 20 -11 0 -6 -8 -8 -17
-5 -48 13 -82 16 -87 8 -3 -5 17 -14 44 -21 39 -10 52 -10 69 1 22 13 28 28
11 28 -5 0 -7 8 -4 18 5 15 4 15 -6 2 -9 -11 -13 -12 -17 -2 -5 13 -16 16 -26
5z"/>
<path d="M3277 491 c-4 -17 -3 -21 5 -13 5 5 8 16 6 23 -3 8 -7 3 -11 -10z"/>
<path d="M3843 472 c-8 -29 -7 -50 2 -77 15 -43 14 -41 43 -49 20 -7 22 -4 21
36 -2 105 -47 166 -66 90z"/>
<path d="M70 480 c0 -5 4 -10 9 -10 6 0 13 5 16 10 3 6 -1 10 -9 10 -9 0 -16
-4 -16 -10z"/>
<path d="M208 482 c-14 -2 -32 -10 -39 -19 -12 -14 -14 -25 -18 -94 -1 -22 -5
-26 -31 -24 -16 1 -30 -2 -30 -6 0 -4 -7 -10 -16 -13 -17 -7 -54 32 -65 68 -3
12 -6 -5 -6 -36 0 -45 3 -58 14 -58 13 0 13 -4 -1 -25 -12 -18 -13 -25 -4 -25
10 0 10 -2 0 -9 -9 -5 -12 -26 -10 -67 l3 -59 41 3 c23 2 45 -1 49 -7 19 -31
93 3 81 36 -6 16 -5 16 12 0 10 -9 24 -17 30 -17 9 0 11 -20 9 -65 l-3 -65 30
1 c30 1 30 1 6 8 -22 6 -23 8 -6 14 11 4 16 13 12 22 -3 8 -1 15 5 15 6 0 2
16 -10 35 -11 19 -16 37 -10 40 5 4 9 -1 9 -9 0 -18 16 -21 25 -6 3 5 -6 15
-20 22 -20 9 -25 17 -21 33 3 12 0 30 -8 40 -11 15 -10 21 6 37 14 14 32 18
76 17 82 -2 80 -2 88 36 3 19 12 35 19 35 7 0 20 11 29 25 9 14 21 23 26 20 6
-4 10 -2 10 4 0 5 -4 13 -10 16 -16 10 -11 25 6 18 11 -4 15 -2 13 6 -3 7 -8
12 -12 12 -4 -1 -21 -1 -37 -1 -23 0 -33 -6 -40 -24 -17 -46 -48 -57 -116 -44
-32 7 -60 13 -62 14 -2 1 2 11 9 22 9 14 10 29 3 48 -7 24 -14 28 -36 26z
m-148 -202 c0 -5 -2 -10 -4 -10 -3 0 -8 5 -11 10 -3 6 -1 10 4 10 6 0 11 -4
11 -10z m50 -137 c-12 -8 -24 -12 -27 -9 -9 8 30 36 40 29 5 -3 -1 -12 -13
-20z"/>
<path d="M480 480 c0 -5 5 -10 10 -10 6 0 10 5 10 10 0 6 -4 10 -10 10 -5 0
-10 -4 -10 -10z"/>
<path d="M740 437 c0 -7 3 -17 7 -21 14 -14 32 -81 23 -84 -6 -2 -10 -8 -10
-14 0 -5 -10 -18 -22 -28 -31 -25 -16 -36 29 -22 27 8 40 8 50 0 9 -7 13 -7
13 1 0 6 -4 11 -10 11 -5 0 -10 5 -10 10 0 6 6 10 14 10 8 0 16 15 19 38 5 40
-8 57 -73 95 -24 14 -30 15 -30 4z"/>
<path d="M510 431 c0 -6 5 -13 10 -16 6 -3 10 1 10 9 0 9 -4 16 -10 16 -5 0
-10 -4 -10 -9z"/>
<path d="M2820 393 c-15 -19 -19 -35 -15 -53 9 -35 12 -36 35 -10 24 28 26 44
4 36 -15 -6 -15 -4 0 18 22 35 2 42 -24 9z"/>
<path d="M496 396 c8 -21 32 -28 55 -15 19 10 18 29 -2 29 -6 0 -7 -4 -4 -10
3 -5 -1 -10 -9 -10 -8 0 -18 5 -21 10 -9 15 -25 12 -19 -4z"/>
<path d="M115 380 c3 -5 8 -10 11 -10 2 0 4 5 4 10 0 6 -5 10 -11 10 -5 0 -7
-4 -4 -10z"/>
<path d="M3700 285 c-16 -17 -27 -22 -39 -16 -9 5 -27 9 -41 8 -14 0 -32 3
-41 7 -12 5 -18 1 -23 -18 -3 -14 -12 -27 -19 -27 -6 -1 -24 -2 -39 -3 -16 -1
-33 -7 -40 -14 -7 -7 -22 -12 -35 -12 -14 0 -23 -6 -23 -15 0 -14 21 -18 98
-19 12 0 22 -4 22 -8 0 -4 -9 -8 -19 -8 -12 0 -21 -8 -23 -22 -4 -30 -26 -34
-30 -6 -3 19 -5 18 -9 -9 -3 -19 -2 -30 4 -26 6 4 7 1 3 -6 -5 -7 -18 -16 -30
-20 -19 -7 -17 -9 14 -16 19 -4 41 -12 48 -17 9 -8 12 -5 12 11 0 12 6 21 15
21 8 0 15 6 15 13 0 8 3 9 8 1 4 -6 20 -14 37 -18 27 -7 28 -9 12 -20 -20 -16
-22 -26 -4 -26 8 0 19 11 25 25 7 16 17 23 27 19 18 -7 20 -35 3 -52 -9 -9 2
-12 49 -12 75 0 77 11 10 74 -46 43 -57 68 -37 81 15 10 8 64 -11 81 -15 13
-18 13 -33 -2 -19 -19 -23 -17 -28 11 -1 11 2 19 7 18 28 -4 82 -14 95 -18 8
-2 20 -4 25 -5 6 -1 -1 -6 -15 -12 l-25 -11 25 -7 c14 -5 18 -8 10 -9 -24 -2
14 -33 43 -34 24 -2 25 -4 22 -61 -2 -32 1 -68 6 -80 8 -18 9 -17 4 7 -5 26
11 38 29 20 10 -10 46 -11 46 -1 0 4 -11 8 -24 8 -21 0 -24 5 -28 46 -2 28 2
54 10 66 12 16 11 24 -2 52 -9 19 -16 39 -16 45 0 6 -7 11 -16 11 -10 0 -14
-6 -10 -15 3 -9 -3 -19 -14 -25 -14 -7 -20 -7 -20 0 0 5 8 10 18 10 16 1 16 1
0 10 -10 6 -14 18 -11 30 7 27 -9 25 -37 -5z"/>
<path d="M3871 266 c-19 -20 -20 -27 -11 -48 9 -18 20 -25 42 -26 16 0 40 -8
54 -17 l24 -15 0 46 c0 35 -5 50 -22 65 -31 25 -60 24 -87 -5z m84 -26 c3 -5
1 -10 -4 -10 -6 0 -11 5 -11 10 0 6 2 10 4 10 3 0 8 -4 11 -10z"/>
<path d="M2777 260 c-9 -11 -14 -26 -11 -34 4 -10 0 -13 -13 -10 -22 6 -48
-20 -38 -37 5 -7 10 -8 14 -1 6 10 25 15 49 13 6 0 12 -10 12 -20 0 -11 6 -21
13 -24 10 -4 10 -7 0 -18 -20 -20 -16 -26 16 -21 22 3 33 -1 43 -17 7 -12 18
-21 25 -21 13 0 13 26 0 48 -5 6 -4 12 1 12 23 0 20 43 -4 65 -13 12 -24 29
-24 38 0 8 -12 18 -27 22 -15 3 -30 11 -33 16 -3 5 -13 0 -23 -11z"/>
<path d="M624 252 c-6 -4 -10 -20 -9 -37 1 -16 -3 -36 -8 -42 -12 -16 -5 -16
27 -2 19 9 24 18 22 47 -1 36 -12 48 -32 34z m13 -34 c-3 -8 -6 -5 -6 6 -1 11
2 17 5 13 3 -3 4 -12 1 -19z"/>
<path d="M1817 252 c18 -11 -18 -80 -50 -97 -32 -16 -103 -25 -114 -14 -13 13
-62 -6 -70 -27 -7 -19 12 -34 45 -34 28 0 30 -35 2 -50 -34 -18 -22 -30 28
-29 84 2 104 10 117 49 9 27 17 35 36 35 24 0 24 0 28 -67 1 -15 11 -18 55
-18 l54 0 7 38 c6 38 6 39 55 40 27 0 52 -3 55 -7 7 -12 56 0 62 15 2 7 0 21
-6 31 -10 17 -10 17 -11 -2 0 -15 -7 -20 -29 -21 -20 -1 -28 3 -24 12 6 17
-53 15 -68 -2 -6 -8 -15 -12 -19 -9 -5 3 -11 1 -15 -5 -7 -12 -65 -13 -81 -2
-6 4 -14 20 -18 35 -6 25 -3 30 24 40 55 21 30 87 -37 93 -22 3 -33 1 -26 -4z
m-20 -118 c-3 -3 -12 -4 -19 -1 -8 3 -5 6 6 6 11 1 17 -2 13 -5z m-130 -40
c-3 -3 -12 -4 -19 -1 -8 3 -5 6 6 6 11 1 17 -2 13 -5z"/>
<path d="M2586 239 c-11 -10 -25 -19 -33 -19 -7 0 -13 -4 -13 -10 0 -5 11 -10
25 -10 16 0 25 6 25 15 0 9 7 18 15 21 8 4 15 10 15 15 0 14 -13 10 -34 -12z"/>
<path d="M490 230 c0 -5 5 -10 11 -10 5 0 7 5 4 10 -3 6 -8 10 -11 10 -2 0 -4
-4 -4 -10z"/>
<path d="M1078 233 c7 -3 16 -2 19 1 4 3 -2 6 -13 5 -11 0 -14 -3 -6 -6z"/>
<path d="M858 223 c7 -3 16 -2 19 1 4 3 -2 6 -13 5 -11 0 -14 -3 -6 -6z"/>
<path d="M2073 200 c-12 -32 -41 -50 -52 -33 -9 14 -47 33 -65 33 -9 0 -16 -8
-16 -19 0 -24 22 -40 28 -22 3 10 6 10 12 2 3 -7 24 -14 46 -18 21 -3 47 -13
57 -21 9 -8 17 -10 17 -4 0 6 -6 13 -12 15 -10 4 -9 8 2 16 10 7 17 6 22 -2
13 -20 9 27 -4 56 -16 34 -21 34 -35 -3z"/>
<path d="M550 191 c0 -10 30 -24 37 -17 3 2 -5 9 -16 16 -12 6 -21 7 -21 1z"/>
<path d="M2356 173 c-18 -25 -18 -27 -1 -59 10 -19 26 -34 36 -34 10 0 26 -14
36 -30 10 -17 23 -28 30 -26 7 3 13 1 13 -4 0 -5 -8 -11 -17 -13 -10 -2 2 -4
27 -3 29 1 47 6 52 16 5 12 7 12 7 -2 1 -25 31 -23 31 2 0 16 7 20 34 20 19 0
42 -7 50 -16 15 -14 16 -13 16 9 0 14 -6 30 -14 37 -8 6 -12 18 -9 26 8 22 23
17 24 -8 1 -21 2 -21 12 5 11 28 22 34 32 17 3 -6 14 -10 23 -10 13 0 12 4 -7
19 -23 18 -23 19 -5 29 14 9 15 11 4 12 -9 0 -22 -9 -30 -20 -8 -11 -20 -20
-28 -20 -7 0 -22 -5 -33 -11 -17 -8 -18 -13 -8 -25 11 -13 8 -14 -17 -10 -16
4 -23 3 -16 0 24 -11 11 -22 -24 -19 -33 2 -53 17 -54 38 0 4 6 7 13 7 8 0 7
4 -3 10 -13 9 -13 12 1 23 9 6 21 22 28 34 11 22 10 22 -34 19 -26 -2 -49 -7
-52 -10 -11 -11 -49 -6 -69 9 -25 19 -26 19 -48 -12z m29 -44 c11 -17 -1 -21
-15 -4 -8 9 -8 15 -2 15 6 0 14 -5 17 -11z"/>
<path d="M3018 193 c7 -3 16 -2 19 1 4 3 -2 6 -13 5 -11 0 -14 -3 -6 -6z"/>
<path d="M450 162 c-14 -15 -38 -36 -55 -46 l-29 -19 54 -27 c30 -15 57 -25
59 -23 3 2 -5 13 -17 26 -28 29 -29 57 -3 50 22 -6 38 14 23 29 -6 6 -8 17 -5
24 8 21 0 17 -27 -14z m-20 -56 c0 -2 -9 -6 -20 -9 -11 -3 -18 -1 -14 4 5 9
34 13 34 5z"/>
<path d="M2755 160 c3 -5 8 -10 11 -10 2 0 4 5 4 10 0 6 -5 10 -11 10 -5 0 -7
-4 -4 -10z"/>
<path d="M2215 150 c-3 -5 -1 -10 4 -10 6 0 11 5 11 10 0 6 -2 10 -4 10 -3 0
-8 -4 -11 -10z"/>
<path d="M3930 141 c0 -5 -9 -11 -20 -14 -27 -7 -25 -23 5 -49 14 -12 25 -30
25 -40 0 -11 7 -18 20 -18 18 0 20 7 20 59 0 44 -4 60 -16 65 -22 8 -34 7 -34
-3z"/>
<path d="M1913 133 c4 -3 2 -12 -4 -20 -9 -9 -8 -13 0 -13 6 0 11 2 11 4 0 2
3 11 6 20 4 10 1 16 -7 16 -7 0 -9 -3 -6 -7z"/>
<path d="M2174 126 c-3 -9 -12 -16 -20 -16 -8 0 -14 -4 -14 -8 0 -15 24 -9 42
10 10 10 13 20 8 23 -6 4 -13 -1 -16 -9z"/>
<path d="M2197 103 c-4 -6 3 -23 14 -37 20 -26 20 -28 4 -40 -17 -12 -17 -13
-1 -19 12 -5 20 0 26 16 l9 22 0 -22 c1 -13 6 -23 12 -23 6 0 9 7 5 15 -3 8
-1 15 4 15 6 0 10 -7 10 -15 0 -8 5 -15 10 -15 15 0 12 9 -11 41 -11 16 -29
29 -40 29 -11 0 -23 10 -28 22 -4 12 -10 17 -14 11z"/>
<path d="M138 73 c7 -3 16 -2 19 1 4 3 -2 6 -13 5 -11 0 -14 -3 -6 -6z"/>
<path d="M2155 60 c-9 -15 -1 -23 21 -18 15 3 16 4 1 16 -11 9 -17 10 -22 2z"/>
<path d="M2756 53 c-3 -4 -6 -15 -6 -25 0 -23 29 -36 41 -17 6 10 9 10 9 2 0
-7 4 -13 10 -13 15 0 0 28 -25 44 -12 8 -25 12 -29 9z m18 -28 c3 -8 1 -15 -4
-15 -6 0 -10 7 -10 15 0 8 2 15 4 15 2 0 6 -7 10 -15z"/>
<path d="M3375 50 c-3 -5 -1 -10 4 -10 6 0 11 5 11 10 0 6 -2 10 -4 10 -3 0
-8 -4 -11 -10z"/>
<path d="M2957 33 c-20 -19 -5 -33 38 -33 38 0 45 3 45 20 0 17 -7 20 -38 20
-21 0 -42 -3 -45 -7z"/>
<path d="M885 20 c-8 -13 15 -24 27 -12 6 6 4 11 -6 15 -8 3 -18 2 -21 -3z"/>
<path d="M2052 18 c3 -9 28 -14 72 -15 90 -2 83 19 -8 24 -52 3 -67 0 -64 -9z"/>
<path d="M840 10 c20 -13 33 -13 25 0 -3 5 -14 10 -23 10 -15 0 -15 -2 -2 -10z"/>
<path d="M1448 3 c18 -2 45 -2 60 0 15 2 0 4 -33 4 -33 0 -45 -2 -27 -4z"/>
</g>
</svg>
