<svg width="40" height="20" viewBox="0 0 40 20" fill="none" xmlns="http://www.w3.org/2000/svg">
<path d="M0.262454 10.6377L9.30846 19.6838C9.63341 20.0632 10.2045 20.1075 10.5839 19.7824C10.9634 19.4575 11.0076 18.8864 10.6826 18.507C10.6523 18.4716 10.6193 18.4386 10.5839 18.4083L3.08479 10.9001L38.8982 10.9001C39.3977 10.9001 39.8027 10.495 39.8027 9.99541C39.8027 9.49578 39.3977 9.09083 38.8982 9.09083L3.08479 9.09084L10.5839 1.59169C10.9634 1.26674 11.0076 0.695664 10.6826 0.316218C10.3576 -0.0632298 9.78656 -0.107461 9.40711 0.217566C9.37174 0.247886 9.3387 0.280846 9.30846 0.316218L0.262374 9.36231C-0.0883073 9.71501 -0.0883073 10.2848 0.262454 10.6377Z" fill="#222222"/>
</svg>
