<svg width="41" height="40" viewBox="0 0 41 40" fill="none" xmlns="http://www.w3.org/2000/svg">
<path d="M20.5 0C9.45552 0 0.5 8.95552 0.5 20C0.5 31.0445 9.45552 40 20.5 40C22.3445 40 23.8333 38.5111 23.8333 36.6667C23.8333 35.8 23.5111 35.0222 22.9667 34.4333C22.4445 33.8445 22.1333 33.0778 22.1333 32.2222C22.1333 30.3777 23.6222 28.8889 25.4667 28.8889H29.3889C35.5222 28.8889 40.5 23.911 40.5 17.7777C40.5 7.95552 31.5445 0 20.5 0ZM8.27781 20C6.43333 20 4.94448 18.5111 4.94448 16.6667C4.94448 14.8222 6.43333 13.3333 8.27781 13.3333C10.1223 13.3333 11.6111 14.8222 11.6111 16.6667C11.6111 18.5111 10.1222 20 8.27781 20ZM14.9445 11.1111C13.1 11.1111 11.6111 9.62229 11.6111 7.77781C11.6111 5.93333 13.1 4.44448 14.9445 4.44448C16.789 4.44448 18.2778 5.93333 18.2778 7.77781C18.2778 9.62229 16.7889 11.1111 14.9445 11.1111ZM26.0555 11.1111C24.211 11.1111 22.7222 9.62229 22.7222 7.77781C22.7222 5.93333 24.211 4.44448 26.0555 4.44448C27.9 4.44448 29.3889 5.93333 29.3889 7.77781C29.3889 9.62229 27.9 11.1111 26.0555 11.1111ZM32.7222 20C30.8777 20 29.3889 18.5111 29.3889 16.6667C29.3889 14.8222 30.8777 13.3333 32.7222 13.3333C34.5667 13.3333 36.0555 14.8222 36.0555 16.6667C36.0555 18.5111 34.5667 20 32.7222 20Z" fill="#9B7E60"/>
</svg>
