<svg width="101" height="100" viewBox="0 0 101 100" fill="none" xmlns="http://www.w3.org/2000/svg">
<path d="M50.5442 17.9658C32.8075 18.0041 18.5469 32.3156 18.5469 50.0523C18.5469 67.789 32.8967 82.1388 50.6334 82.1388C68.3701 82.1388 82.7199 67.789 82.7199 50.0523C82.7199 31.6026 67.9244 17.9658 50.5442 17.9658ZM50.6521 32.2265C51.5612 32.2393 52.1227 32.698 52.5238 33.083C52.9178 33.4681 53.211 33.8825 53.4953 34.3308C54.0568 35.231 54.5559 36.2917 55.0462 37.3612C55.5355 38.4308 55.9998 39.5092 56.4098 40.3292C56.6514 40.8176 56.9402 41.2036 57.0694 41.3988C57.2886 41.4601 57.7325 41.61 58.2548 41.6786C59.1381 41.7963 60.287 41.8908 61.4367 42.0075C62.5865 42.1252 63.7363 42.2517 64.7434 42.4933C65.2506 42.6136 65.7238 42.7589 66.214 43.0138C66.7016 43.2687 67.3282 43.6858 67.6045 44.5646C67.8727 45.4354 67.6132 46.1155 67.3674 46.6057C67.1232 47.0986 66.821 47.4961 66.4796 47.907C65.7969 48.7189 64.9377 49.5291 64.0732 50.3313C63.205 51.1281 62.3262 51.9089 61.6667 52.5417C61.2799 52.9196 61.0009 53.3109 60.8538 53.4954C60.8652 53.7209 60.8625 54.1888 60.9563 54.7075C61.1176 55.5846 61.3779 56.704 61.6212 57.836C61.8645 58.9679 62.0963 60.0909 62.1801 61.1337C62.2211 61.6534 62.2388 62.1498 62.147 62.6935C62.0552 63.2354 61.8475 63.9591 61.0953 64.4939C60.3501 65.018 59.6246 64.9815 59.072 64.9012C58.5275 64.8214 58.056 64.6597 57.5658 64.4609C56.5853 64.0625 55.5425 63.4894 54.5175 62.9101C53.4925 62.3308 52.4854 61.7425 51.6743 61.3147C51.1912 61.0607 50.7295 60.9154 50.5067 60.8343C50.2937 60.9134 49.8489 61.0526 49.3926 61.3004C48.6083 61.7247 47.6278 62.3254 46.6296 62.9047C45.6314 63.485 44.6242 64.0545 43.6616 64.4556C43.1803 64.6561 42.7168 64.8228 42.1731 64.903C41.6295 64.9835 40.8719 65.0135 40.1321 64.4609C39.403 63.9146 39.2141 63.2042 39.1249 62.6694C39.0322 62.1266 39.0422 61.6266 39.0797 61.0919C39.1545 60.0312 39.372 58.8815 39.6055 57.7228C39.839 56.5641 40.0904 55.4232 40.2446 54.523C40.3319 53.9856 40.3319 53.4981 40.3417 53.2663C40.1991 53.089 39.9264 52.7075 39.5458 52.3483C38.9005 51.7333 38.0306 50.9846 37.175 50.2092C36.314 49.4391 35.4637 48.6673 34.7863 47.874C34.4467 47.4783 34.141 47.0834 33.8968 46.5905C33.6526 46.0986 33.3879 45.3873 33.6864 44.5227C33.9815 43.6609 34.5956 43.266 35.0858 43.0075C35.5733 42.7517 36.0573 42.6029 36.5742 42.4746C37.6081 42.2188 38.7757 42.069 39.9433 41.9353C41.1109 41.8007 42.2785 41.692 43.1787 41.561C43.7161 41.4825 44.1769 41.3275 44.3998 41.2633C44.5237 41.0752 44.8009 40.6991 45.0281 40.2294C45.4132 39.4254 45.8642 38.3666 46.3294 37.306C46.7965 36.2453 47.2742 35.2025 47.8179 34.3112C48.0888 33.8665 48.3669 33.4529 48.7626 33.0723C49.1557 32.6873 49.752 32.2211 50.67 32.2354L50.6521 32.2265Z" fill="#9B7E60"/>
<path d="M50.4306 0.00574954C47.8273 0.087143 46.0246 1.81524 44.4102 3.24131C42.7957 4.66401 41.299 5.858 40.3741 6.03963C40.0435 6.10555 38.6924 5.62257 37.1285 4.81872C36.3448 4.41512 35.5107 3.98797 34.5589 3.71554C33.607 3.4421 32.4366 3.32539 31.3132 3.83393C28.9387 4.90684 27.9162 7.1973 26.9745 9.11441C26.026 11.0483 25.0977 12.7132 24.3208 13.2514C24.0403 13.4387 22.6055 13.5083 20.8565 13.3644C19.9787 13.2924 19.047 13.2133 18.0649 13.3243C17.0828 13.4353 15.9595 13.7784 15.1153 14.6798C13.3327 16.5767 13.2654 19.0858 13.1309 21.2383C12.9953 23.3875 12.7844 25.2744 12.2631 26.0816C12.0761 26.3617 10.7765 26.9762 9.10156 27.5144C8.26408 27.7831 7.37279 28.0727 6.50504 28.5537C5.64066 29.0312 4.73255 29.7712 4.29531 30.9248C3.37375 33.3599 4.27483 35.7008 4.97471 37.7525C5.67093 39.7907 6.20234 41.6203 6.02072 42.5621C5.9548 42.8927 4.98816 43.9545 3.64618 45.0913C2.97687 45.6597 2.25711 46.2685 1.64162 47.0421C1.02612 47.8156 0.474529 48.8516 0.511526 50.0859C0.592583 52.6892 2.32102 54.4919 3.74708 56.1063C5.17315 57.7207 6.36378 59.2174 6.5454 60.1424C6.61132 60.473 6.12835 61.8241 5.3245 63.388C4.9209 64.1717 4.49375 65.0058 4.22132 65.9576C3.94788 66.9095 3.83117 68.0799 4.33971 69.2033C5.41262 71.5778 7.70307 72.6003 9.62019 73.542C11.5541 74.4905 13.219 75.412 13.7571 76.189C13.9445 76.4691 14.0198 77.9077 13.8755 79.6532C13.8035 80.5311 13.7245 81.4627 13.8355 82.4448C13.9468 83.4269 14.2895 84.5503 15.1909 85.3945C17.0879 87.1771 19.5969 87.2444 21.7495 87.3789C23.8987 87.5144 25.8192 87.7253 26.5927 88.2466C26.8729 88.434 27.4874 89.7299 28.0255 91.4048C28.2943 92.2423 28.5771 93.1336 29.0581 94.0014C29.5357 94.8657 30.2857 95.7806 31.4393 96.2178C33.8744 97.1394 36.2153 96.2313 38.2333 95.5351C40.2715 94.8388 42.1012 94.3074 43.0429 94.489C43.3736 94.555 44.4354 95.5216 45.5722 96.8636C46.1406 97.5329 46.7527 98.2493 47.5263 98.8681C48.2999 99.4836 49.3358 100.035 50.5702 99.9982C53.1734 99.9168 54.9762 98.1887 56.5906 96.766C58.205 95.3433 59.7084 94.1493 60.6266 93.9677C60.9576 93.9018 62.3083 94.3848 63.8723 95.1886C64.6559 95.5922 65.49 96.0194 66.4419 96.2918C67.3937 96.5652 68.5574 96.682 69.6808 96.1734C72.0553 95.1005 73.0778 92.8101 74.0195 90.8593C74.968 88.9254 75.8963 87.2605 76.6732 86.7224C76.9534 86.535 78.3818 86.4597 80.1375 86.604C81.0153 86.6759 81.9537 86.7533 82.9358 86.6423C83.9179 86.5313 85.0413 86.195 85.8855 85.297C87.6681 83.4 87.7286 80.891 87.8631 78.7384C87.9987 76.5892 88.2163 74.6687 88.7376 73.8952C88.925 73.615 90.2242 73.0005 91.8992 72.4624C92.7367 72.1936 93.628 71.9074 94.4957 71.4298C95.3601 70.9522 96.2682 70.2056 96.7054 69.0519C97.627 66.6168 96.7259 64.2759 96.026 62.2579C95.3298 60.2197 94.7984 58.3901 94.98 57.4483C95.0459 57.1177 96.0126 56.0559 97.3546 54.9157C98.0239 54.3473 98.7436 53.7385 99.3591 52.9649C99.9746 52.1914 100.53 51.1555 100.489 49.9211C100.408 47.3179 98.6797 45.5151 97.2537 43.9007C95.831 42.2863 94.637 40.7862 94.4553 39.8646C94.3894 39.534 94.8724 38.183 95.6762 36.619C96.0799 35.8353 96.507 35.0012 96.7794 34.0494C97.0529 33.0976 97.1696 31.9338 96.661 30.8105C95.5881 28.4359 93.2977 27.4135 91.3806 26.4717C89.4466 25.5233 87.7818 24.595 87.2436 23.818C87.0563 23.5379 86.9883 22.1061 87.1323 20.3538C87.2043 19.4759 87.2833 18.5376 87.1723 17.5554C87.0613 16.5733 86.7183 15.45 85.8169 14.6058C83.9199 12.8232 81.4109 12.766 79.2583 12.6281C77.1091 12.4926 75.2223 12.275 74.4151 11.7536C74.1349 11.5663 73.5204 10.2738 72.9823 8.59881C72.7135 7.76133 72.4307 6.85995 71.9497 5.99557C71.4721 5.13118 70.7221 4.22307 69.5685 3.78584C67.1334 2.86427 64.7925 3.76562 62.7408 4.46187C60.7026 5.15809 58.873 5.6895 57.9312 5.50788C57.6006 5.44196 56.5388 4.47869 55.402 3.13671C54.8336 2.4674 54.2214 1.75436 53.4479 1.13887C52.6743 0.523371 51.6384 -0.0383099 50.404 0.00205043L50.4306 0.00574954ZM50.4167 14.3673C70.126 14.3673 86.0684 30.276 86.0684 50.019C86.0684 69.661 70.0924 85.6706 50.4167 85.6706C30.7746 85.6706 14.765 69.6947 14.765 50.019C14.765 30.4106 30.6737 14.3673 50.4167 14.3673V14.3673Z" fill="#9B7E60"/>
</svg>
