<svg width="41" height="40" viewBox="0 0 41 40" fill="none" xmlns="http://www.w3.org/2000/svg">
<g clip-path="url(#clip0_2655_1977)">
<path d="M15.9166 0H3.41656C1.80829 0 0.5 1.30829 0.5 2.91656V10.4166C0.5 12.0251 1.80829 13.3334 3.41656 13.3334H15.9166C17.5251 13.3334 18.8334 12.0251 18.8334 10.4166V2.91656C18.8334 1.30829 17.5251 0 15.9166 0Z" fill="#EFE8DE"/>
<path d="M15.9166 16.667H3.41656C1.80829 16.667 0.5 17.9753 0.5 19.5839V37.0839C0.5 38.6921 1.80829 40.0004 3.41656 40.0004H15.9166C17.5251 40.0004 18.8334 38.6921 18.8334 37.0839V19.5839C18.8334 17.9753 17.5251 16.667 15.9166 16.667Z" fill="#EFE8DE"/>
<path d="M37.5829 26.667H25.0829C23.4743 26.667 22.166 27.9753 22.166 29.5839V37.0839C22.166 38.6921 23.4743 40.0004 25.0829 40.0004H37.5829C39.1912 40.0004 40.4995 38.6921 40.4995 37.0839V29.5839C40.4995 27.9753 39.1912 26.667 37.5829 26.667Z" fill="#EFE8DE"/>
<path d="M37.5829 0H25.0829C23.4743 0 22.166 1.30829 22.166 2.91656V20.4166C22.166 22.0251 23.4743 23.3334 25.0829 23.3334H37.5829C39.1912 23.3334 40.4995 22.0251 40.4995 20.4166V2.91656C40.4995 1.30829 39.1912 0 37.5829 0V0Z" fill="#EFE8DE"/>
</g>
<defs>
<clipPath id="clip0_2655_1977">
<rect width="40" height="40" fill="white" transform="translate(0.5)"/>
</clipPath>
</defs>
</svg>
