<svg width="41" height="40" viewBox="0 0 41 40" fill="none" xmlns="http://www.w3.org/2000/svg">
<g clip-path="url(#clip0_691_19366)">
<path d="M0.5 31.2962V33.8067C0.5 34.4539 1.02469 34.9786 1.67188 34.9786C2.31906 34.9786 2.84375 34.4539 2.84375 33.8067V32.4681H38.1562V33.8067C38.1562 34.4539 38.6809 34.9786 39.3281 34.9786C39.9753 34.9786 40.5 34.4539 40.5 33.8067V31.2962V27.4473H0.5V31.2962Z" fill="#EFE8DE"/>
<path d="M36.1902 17.5723H4.80984C2.43344 17.5723 0.5 19.5057 0.5 21.8822V25.1035H40.5V21.8822C40.5 19.5057 38.5666 17.5723 36.1902 17.5723Z" fill="#EFE8DE"/>
<path d="M16.1069 12.3848C15.0227 12.3848 14.1406 13.2667 14.1406 14.3509V15.2284H26.8594V14.3509C26.8594 13.2667 25.9774 12.3848 24.8933 12.3848H16.1069Z" fill="#EFE8DE"/>
<path d="M11.7974 14.3512C11.7974 11.9747 13.7309 10.0414 16.1074 10.0414H24.8939C27.2704 10.0414 29.2038 11.9747 29.2038 14.3512V15.2288H35.4798V9.33035C35.4798 6.95387 33.5464 5.02051 31.1698 5.02051H9.83133C7.45484 5.02051 5.52148 6.95387 5.52148 9.33035V15.2288H11.7974V14.3512Z" fill="#EFE8DE"/>
</g>
<defs>
<clipPath id="clip0_691_19366">
<rect width="40" height="40" fill="white" transform="translate(0.5)"/>
</clipPath>
</defs>
</svg>
