<svg width="41" height="40" viewBox="0 0 41 40" fill="none" xmlns="http://www.w3.org/2000/svg">
<g clip-path="url(#clip0_180_2603)">
<path d="M8.92299 16.1244C9.36792 16.784 9.72572 17.4984 9.98756 18.2498C10.7065 20.2495 10.9227 22.6301 10.977 24.285H30.0217C30.0769 22.631 30.293 20.2485 31.012 18.2488C31.273 17.4984 31.6302 16.7849 32.0747 16.1263C32.6562 15.2926 33.3795 14.5675 34.2115 13.9837C34.5119 13.765 34.8243 13.5634 35.1475 13.38C32.9602 8.51501 27.2144 5.24023 20.4993 5.24023C14.1364 5.24023 8.52394 8.61785 6.25 13.6199C6.4347 13.7389 6.6128 13.8609 6.78608 13.9837C7.61694 14.5682 8.33995 15.2925 8.92299 16.1244Z" fill="#9B7E60"/>
<path d="M39.7872 15.4359C39.3054 14.9531 38.7103 14.8207 38.3542 14.7417C37.8641 14.6327 37.3559 14.6327 36.8658 14.7417C36.243 14.8817 35.8498 15.1588 35.3042 15.5434C34.6564 15.9977 34.0931 16.5616 33.6397 17.2099C33.2915 17.7343 33.0103 18.3002 32.8027 18.8944C32.0209 21.0483 31.9067 23.7946 31.9057 25.2381C31.9057 25.764 31.4793 26.1904 30.9534 26.1904H10.0423C9.51639 26.1904 9.09003 25.764 9.09003 25.2381C9.09003 23.7936 8.97004 21.0483 8.19588 18.8944C7.98751 18.2996 7.70604 17.7332 7.35788 17.2079C6.90348 16.5598 6.33955 15.9959 5.69143 15.5415C5.1458 15.1605 4.75158 14.8749 4.12783 14.7387C3.63844 14.6288 3.13075 14.6288 2.64136 14.7387C2.28427 14.8177 1.68909 14.9511 1.20631 15.4339C1.19872 15.4425 0.349298 16.3233 0.523557 17.4726C0.713975 18.702 1.88808 19.3847 2.63368 19.5427C2.90471 19.5998 3.1853 19.5935 3.45356 19.5246C3.77735 19.4628 4.22201 19.3771 4.72667 19.6056C6.31598 20.3236 6.48926 23.0469 5.31703 28.986C5.91595 30.7458 6.67013 30.8819 7.24147 30.9486H9.08878V33.8053C9.08878 34.3312 9.51514 34.7576 10.041 34.7576H10.9933C11.5192 34.7576 11.9456 34.3312 11.9456 33.8053V30.9515H29.0534V33.8082C29.0534 34.3341 29.4798 34.7604 30.0057 34.7604H30.958C31.4839 34.7604 31.9102 34.3341 31.9102 33.8082V30.9515H33.7575C34.3289 30.8857 35.083 30.7486 35.682 28.9889C34.5097 23.0508 34.6831 20.3235 36.2723 19.6084C36.777 19.3799 37.2246 19.4646 37.5464 19.5275C37.8152 19.5949 38.0958 19.6008 38.3673 19.5446C39.1129 19.3865 40.2889 18.7038 40.4774 17.4754C40.648 16.3262 39.7958 15.4454 39.7872 15.4359Z" fill="#9B7E60"/>
</g>
<defs>
<clipPath id="clip0_180_2603">
<rect width="40" height="40" fill="white" transform="translate(0.5)"/>
</clipPath>
</defs>
</svg>
