<svg width="88" height="22" viewBox="0 0 88 22" fill="none" xmlns="http://www.w3.org/2000/svg">
<path fill-rule="evenodd" clip-rule="evenodd" d="M12.5862 0.416633L8.89089 11.2219L5.16605 0.416934H0.826172L7.26633 16.4444H10.486L16.9261 0.416633H12.5862ZM31.5992 5.00024C31.5992 6.27786 30.5912 7.16672 29.415 7.16672C28.2391 7.16672 27.2313 6.27786 27.2313 5.00024C27.2313 3.72232 28.2391 2.83376 29.415 2.83376C30.5912 2.83376 31.5995 3.72232 31.5995 5.00024H31.5992ZM26.5585 13.8611C29.2748 13.8611 30.8148 12.5555 32.2711 10.6671C33.0547 9.63952 34.0907 9.44423 34.7909 10.0003C35.5467 10.5837 35.5747 11.6393 34.7909 12.6669C32.6912 15.4448 30.0029 17.1112 26.5585 17.1112C22.8066 17.1112 19.5867 15.056 17.2628 11.5283C16.6192 10.6114 16.7868 9.55587 17.4867 9.05577C18.2429 8.52799 19.2789 8.75006 19.9511 9.75025C21.631 12.1945 23.7875 13.8611 26.5588 13.8611H26.5585ZM41.9324 8.38898C41.9324 11.667 43.8365 13.3893 45.9648 13.3893C47.9805 13.3893 50.0528 11.778 50.0528 8.38898C50.0528 5.05531 47.9805 3.44459 45.9925 3.44459C43.8365 3.44459 41.9324 4.97226 41.9324 8.38898ZM41.9324 0.444316V2.63938C43.0247 1.13909 44.7323 0.000488281 47.2243 0.000488281C50.3606 0.000488281 54.0286 2.6111 54.0286 8.1949C54.0286 14.0281 50.5008 16.8617 46.8882 16.8617C44.9565 16.8617 43.2486 16.1113 41.9324 14.3333V22.0002H37.9846V0.444316H41.9324ZM60.8897 8.38898C60.8897 11.667 62.7935 13.3893 64.9218 13.3893C66.9375 13.3893 69.0095 11.778 69.0095 8.38898C69.0095 5.05531 66.9375 3.44459 64.9495 3.44459C62.7935 3.44459 60.8894 4.97226 60.8894 8.38898H60.8897ZM60.8897 0.444316V2.63938C61.9817 1.13909 63.6893 0.000488281 66.1813 0.000488281C69.3176 0.000488281 72.9856 2.6111 72.9856 8.1949C72.9856 14.0281 69.4575 16.8617 65.8452 16.8617C63.9135 16.8617 62.2056 16.1113 60.8894 14.3333V22.0002H56.9416V0.444316H60.8894H60.8897Z" fill="#FF5B24"/>
<mask id="mask0_606_7769" style="mask-type:alpha" maskUnits="userSpaceOnUse" x="74" y="0" width="14" height="17">
<path d="M87.9371 0V16.8612H74.6094V0H87.9374H87.9371Z" fill="white"/>
</mask>
<g mask="url(#mask0_606_7769)">
<path fill-rule="evenodd" clip-rule="evenodd" d="M81.3288 0C84.5773 0 86.9571 1.49969 87.9374 5.27778L84.3811 5.83325C84.3251 3.91651 83.1212 3.33367 81.413 3.33367C80.0689 3.33367 79.0892 3.91651 79.0892 4.83336C79.0892 5.55552 79.5929 6.30566 81.1052 6.58339L83.8208 7.08288C86.4808 7.58358 87.9092 9.30533 87.9092 11.6668C87.9092 15.1389 84.7452 16.8615 81.7768 16.8615C78.6408 16.8615 75.169 15.2499 74.6094 11.3334L78.1651 10.7776C78.3613 12.8057 79.6215 13.5279 81.6372 13.5279C83.1772 13.5279 84.2132 12.9724 84.2132 12.0002C84.2132 11.139 83.7372 10.4999 82.057 10.1945L79.5929 9.75036C76.9892 9.27795 75.3935 7.44426 75.3935 5.11109C75.3935 1.49969 78.6968 0 81.3288 0Z" fill="#FF5B24"/>
</g>
</svg>
