<svg width="87" height="29" viewBox="0 0 87 29" fill="none" xmlns="http://www.w3.org/2000/svg">
<path d="M9.72589 27.2893C9.72589 27.4518 9.80033 27.5805 9.94924 27.6751C10.0981 27.7563 10.3079 27.8241 10.5787 27.8782L11.9797 28.1015C12.1692 28.1287 12.264 28.1827 12.264 28.264C12.264 28.318 12.2437 28.3586 12.203 28.3858C12.176 28.4129 12.1218 28.4264 12.0406 28.4264H0.223351C0.142132 28.4264 0.0812182 28.4129 0.0406091 28.3858C0.0135279 28.3586 0 28.318 0 28.264C0 28.1827 0.0947459 28.1287 0.284264 28.1015L1.68528 27.8782C1.96954 27.8241 2.17934 27.7563 2.31472 27.6751C2.4636 27.5805 2.53807 27.4518 2.53807 27.2893V1.13706C2.53807 0.974619 2.4636 0.852792 2.31472 0.771574C2.17934 0.676828 1.96954 0.60236 1.68528 0.548223L0.284264 0.324873C0.0947459 0.297792 0 0.236879 0 0.142132C0 0.101523 0.0135279 0.0676903 0.0406091 0.0406091C0.0812182 0.0135279 0.142132 0 0.223351 0H12.0406C12.1218 0 12.176 0.0135279 12.203 0.0406091C12.2437 0.0676903 12.264 0.101523 12.264 0.142132C12.264 0.236879 12.1692 0.297792 11.9797 0.324873L10.5787 0.548223C10.3079 0.60236 10.0981 0.676828 9.94924 0.771574C9.80033 0.852792 9.72589 0.974619 9.72589 1.13706V27.2893Z" fill="#242522"/>
<path d="M21.9556 10.2532V27.2075C21.9556 27.4106 21.9962 27.573 22.0774 27.6948C22.1586 27.8032 22.2804 27.8776 22.4429 27.9182L23.3972 28.1009C23.5462 28.1415 23.6205 28.2025 23.6205 28.2837C23.6205 28.3783 23.5596 28.4258 23.4378 28.4258H14.3617C14.321 28.4258 14.2804 28.4124 14.2398 28.3852C14.2127 28.358 14.1992 28.3243 14.1992 28.2837C14.1992 28.2431 14.2127 28.2093 14.2398 28.1821C14.267 28.155 14.321 28.1347 14.4023 28.1212L15.3769 27.9182C15.5665 27.8776 15.6949 27.8032 15.7627 27.6948C15.8304 27.573 15.8642 27.4174 15.8642 27.2278V12.5882C15.8642 12.4935 15.837 12.419 15.783 12.3649C15.7424 12.3108 15.668 12.2837 15.5596 12.2837H14.5038C14.4226 12.2837 14.3617 12.2701 14.321 12.2431C14.2939 12.216 14.2804 12.1754 14.2804 12.1212C14.2804 12.0671 14.3007 12.0332 14.3414 12.0197C14.382 11.9926 14.4294 11.9723 14.4835 11.9588L21.2246 10.0705C21.3736 10.0434 21.4751 10.0231 21.5292 10.0096C21.5832 9.99603 21.6441 9.98926 21.7119 9.98926C21.7931 9.98926 21.854 10.0163 21.8946 10.0705C21.9353 10.1111 21.9556 10.172 21.9556 10.2532ZM21.4683 14.5578L21.2246 14.2938L21.9962 13.6238C23.3634 12.4055 24.5749 11.4986 25.6307 10.903C26.6865 10.3074 27.6477 10.0096 28.5139 10.0096C29.7322 10.0096 30.6797 10.375 31.3566 11.106C32.0469 11.837 32.4868 12.9943 32.6764 14.5781L34.118 27.1669C34.1452 27.3834 34.1924 27.5596 34.2601 27.6948C34.3414 27.8167 34.4766 27.8979 34.6662 27.9385L35.5393 28.1212C35.634 28.1347 35.6949 28.155 35.7221 28.1821C35.7492 28.2093 35.7627 28.2431 35.7627 28.2837C35.7627 28.3243 35.7492 28.358 35.7221 28.3852C35.6949 28.4124 35.6477 28.4258 35.5799 28.4258H26.3617C26.2264 28.4258 26.1586 28.3783 26.1586 28.2837C26.1586 28.2025 26.2398 28.1415 26.4023 28.1009L27.3566 27.9182C27.5596 27.8776 27.7018 27.7964 27.783 27.6745C27.8642 27.5393 27.8914 27.37 27.8642 27.1669L26.6662 15.2278C26.5716 14.348 26.3751 13.705 26.0774 13.2989C25.7797 12.8928 25.3193 12.6898 24.6967 12.6898C24.2771 12.6898 23.8642 12.7981 23.4581 13.0146C23.0655 13.2177 22.6459 13.5155 22.1992 13.908L21.4683 14.5578Z" fill="#242522"/>
<path d="M37.4102 11.1263L35.7655 10.7608C35.6843 10.7338 35.6303 10.7067 35.6031 10.6796C35.5762 10.639 35.5625 10.5984 35.5625 10.5578C35.5625 10.5307 35.5762 10.5036 35.6031 10.4766C35.6303 10.436 35.664 10.4157 35.7046 10.4157H37.4102C37.478 10.4157 37.532 10.4089 37.5727 10.3953C37.627 10.3683 37.6879 10.3277 37.7554 10.2735L42.6894 6.25322C42.7843 6.172 42.879 6.11109 42.9737 6.07048C43.0686 6.01634 43.1564 5.98926 43.2376 5.98926C43.3188 5.98926 43.3866 6.02309 43.4407 6.09078C43.5084 6.14492 43.5422 6.23969 43.5422 6.37505V23.1466C43.5422 24.2971 43.7521 25.1568 44.1716 25.7253C44.5914 26.2804 45.1666 26.5578 45.8975 26.5578C46.1412 26.5578 46.3782 26.5172 46.6082 26.436C46.8384 26.3547 47.0483 26.2261 47.2376 26.0502C47.4407 25.8743 47.6168 25.6372 47.7655 25.3395C47.928 25.0281 48.0567 24.656 48.1513 24.2228C48.1785 24.1281 48.226 24.0806 48.2935 24.0806C48.3612 24.0806 48.3815 24.1347 48.3544 24.2431C48.1513 25.2717 47.8402 26.1245 47.4204 26.8014C47.0008 27.4646 46.4458 27.9657 45.7554 28.304C45.065 28.6423 44.2122 28.8116 43.197 28.8116C41.4102 28.8116 40.0432 28.3987 39.0955 27.573C38.148 26.7337 37.6742 25.4479 37.6742 23.7151V11.5121C37.6742 11.3903 37.6539 11.3023 37.6133 11.2481C37.5864 11.1805 37.5186 11.1398 37.4102 11.1263ZM41.7351 10.8827L41.9381 10.4157H48.2529C48.3206 10.4157 48.3681 10.4292 48.395 10.4563C48.4356 10.4698 48.4559 10.5104 48.4559 10.5781C48.4559 10.6593 48.4018 10.7338 48.2935 10.8014C48.1988 10.8556 48.0701 10.8827 47.9077 10.8827H41.7351Z" fill="#242522"/>
<path d="M57.0142 10.2532V27.2075C57.0142 27.4106 57.0548 27.573 57.136 27.6948C57.2172 27.8032 57.339 27.8776 57.5015 27.9182L58.4558 28.1009C58.537 28.1144 58.5911 28.1415 58.6182 28.1821C58.6588 28.2093 58.6791 28.2431 58.6791 28.2837C58.6791 28.3243 58.6588 28.358 58.6182 28.3852C58.5911 28.4124 58.5504 28.4258 58.4964 28.4258H49.4202C49.3796 28.4258 49.339 28.4124 49.2984 28.3852C49.2713 28.358 49.2578 28.3243 49.2578 28.2837C49.2578 28.2431 49.2713 28.2093 49.2984 28.1821C49.3253 28.155 49.3796 28.1347 49.4609 28.1212L50.4355 27.9182C50.6248 27.8776 50.7535 27.8032 50.8213 27.6948C50.8888 27.573 50.9228 27.4174 50.9228 27.2278V12.5882C50.9228 12.4935 50.8956 12.419 50.8416 12.3649C50.801 12.3108 50.7263 12.2837 50.6182 12.2837H49.5624C49.4812 12.2837 49.4202 12.2701 49.3796 12.2431C49.3525 12.216 49.339 12.1754 49.339 12.1212C49.339 12.0671 49.3593 12.0332 49.3999 12.0197C49.4406 11.9926 49.4878 11.9723 49.5421 11.9588L56.2832 10.0705C56.4319 10.0434 56.5334 10.0231 56.5878 10.0096C56.6418 9.99603 56.7027 9.98926 56.7705 9.98926C56.8517 9.98926 56.9126 10.0163 56.9532 10.0705C56.9939 10.1111 57.0142 10.172 57.0142 10.2532Z" fill="#242522"/>
<path d="M67.1994 17.8676C67.1994 16.1486 67.4634 14.7069 67.9913 13.5428C68.5192 12.3786 69.1893 11.4988 70.0014 10.9032C70.8271 10.3076 71.6867 10.0098 72.5801 10.0098C73.636 10.0098 74.4413 10.3549 74.9964 11.0453C75.5649 11.7221 75.8492 12.7238 75.8492 14.0504C75.8492 15.2821 75.558 16.1958 74.9761 16.7915C74.3938 17.3872 73.6697 17.6849 72.8035 17.6849C71.9913 17.6849 71.3956 17.4684 71.0167 17.0351C70.6375 16.5884 70.4278 15.9318 70.3872 15.0656L70.3466 14.3752C70.3329 14.0098 70.2586 13.7255 70.1233 13.5225C69.9877 13.3194 69.7509 13.2179 69.4126 13.2179C69.074 13.2179 68.756 13.3939 68.4583 13.7458C68.1603 14.0842 67.9235 14.6121 67.7476 15.3296C67.5715 16.0334 67.4837 16.9336 67.4837 18.0301L67.1994 17.8676ZM67.4837 10.4362V16.9336V27.0453C67.4837 27.2212 67.5309 27.377 67.6258 27.5123C67.7205 27.6341 67.8492 27.7153 68.0116 27.756L70.0014 28.1214C70.0827 28.1349 70.1367 28.1552 70.1639 28.1824C70.1908 28.2095 70.2045 28.2433 70.2045 28.2839C70.2045 28.3245 70.1842 28.3582 70.1436 28.3854C70.103 28.4126 70.0487 28.426 69.9811 28.426H59.9304C59.8626 28.426 59.8086 28.4126 59.7679 28.3854C59.7273 28.3448 59.707 28.311 59.707 28.2839C59.707 28.2433 59.7339 28.2027 59.7883 28.1621C59.8423 28.1214 59.9101 28.0943 59.9913 28.0808L60.905 27.9184C61.0809 27.8778 61.2027 27.81 61.2705 27.7153C61.3517 27.607 61.3923 27.4785 61.3923 27.3296V12.4869C61.3923 12.3786 61.3652 12.2907 61.3111 12.223C61.2705 12.1553 61.1959 12.1214 61.0877 12.1214H59.9507C59.9101 12.1214 59.8695 12.1079 59.8289 12.0808C59.7882 12.0537 59.7679 12.0199 59.7679 11.9793C59.7679 11.9387 59.7882 11.9049 59.8289 11.8778C59.8695 11.8372 59.9235 11.8101 59.9913 11.7966L66.773 10.2331C66.8811 10.206 66.9692 10.1857 67.037 10.1722C67.1045 10.1587 67.1723 10.1519 67.24 10.1519C67.3347 10.1519 67.3956 10.1857 67.4228 10.2534C67.4634 10.3076 67.4837 10.3685 67.4837 10.4362Z" fill="#242522"/>
<path d="M84.4966 10.2532V27.2075C84.4966 27.4106 84.5372 27.573 84.6184 27.6948C84.6996 27.8032 84.8215 27.8776 84.9839 27.9182L85.9382 28.1009C86.0194 28.1144 86.0735 28.1415 86.1006 28.1821C86.1413 28.2093 86.1616 28.2431 86.1616 28.2837C86.1616 28.3243 86.1413 28.358 86.1006 28.3852C86.0735 28.4124 86.0329 28.4258 85.9788 28.4258H76.9027C76.8621 28.4258 76.8215 28.4124 76.7808 28.3852C76.7537 28.358 76.7402 28.3243 76.7402 28.2837C76.7402 28.2431 76.7537 28.2093 76.7808 28.1821C76.808 28.155 76.8621 28.1347 76.9433 28.1212L77.9179 27.9182C78.1075 27.8776 78.2359 27.8032 78.3037 27.6948C78.3715 27.573 78.4052 27.4174 78.4052 27.2278V12.5882C78.4052 12.4935 78.378 12.419 78.324 12.3649C78.2834 12.3108 78.209 12.2837 78.1006 12.2837H77.0448C76.9636 12.2837 76.9027 12.2701 76.8621 12.2431C76.8349 12.216 76.8215 12.1754 76.8215 12.1212C76.8215 12.0671 76.8418 12.0332 76.8824 12.0197C76.923 11.9926 76.9704 11.9723 77.0245 11.9588L83.7656 10.0705C83.9146 10.0434 84.0161 10.0231 84.0702 10.0096C84.1242 9.99603 84.1852 9.98926 84.2529 9.98926C84.3341 9.98926 84.3951 10.0163 84.4357 10.0705C84.4763 10.1111 84.4966 10.172 84.4966 10.2532Z" fill="#242522"/>
<path d="M84.9736 4.31404C84.9736 6.27648 83.269 7.86734 81.1665 7.86734C79.0639 7.86734 77.3594 6.27648 77.3594 4.31404C77.3594 2.35161 79.0639 0.760742 81.1665 0.760742C83.269 0.760742 84.9736 2.35161 84.9736 4.31404Z" fill="#A07D5B"/>
<path d="M53.5024 7.86734C55.605 7.86734 57.3095 6.27647 57.3095 4.31404C57.3095 2.35161 55.605 0.760742 53.5024 0.760742C51.3998 0.760742 49.6953 2.35161 49.6953 4.31404C49.6953 6.27647 51.3998 7.86734 53.5024 7.86734Z" fill="#A07D5B"/>
</svg>
