<svg width="72" height="55" viewBox="0 0 72 55" fill="none" xmlns="http://www.w3.org/2000/svg">
<path d="M17.8208 18.0496C18.5432 17.2313 18.5153 15.9828 17.7328 15.2003C16.9192 14.3866 15.5998 14.3866 14.7861 15.2003L13.7634 16.223V7.84845C13.7634 5.81869 15.4148 4.16732 17.4445 4.16732C19.4743 4.16732 21.1257 5.81869 21.1257 7.84845C21.1257 8.99919 22.0586 9.93211 23.2093 9.93211C24.3601 9.93211 25.293 8.99919 25.293 7.84845C25.293 3.52083 21.7721 0 17.4445 0C13.1169 0 9.59608 3.52083 9.59608 7.84845V16.223L8.57342 15.2003C7.75982 14.3866 6.44044 14.3866 5.6267 15.2003C4.84422 15.9828 4.81644 17.2312 5.53863 18.0496H17.8208Z" fill="#CFBBA7"/>
<path d="M69.04 22.2168H66.6749H4.47125H2.08366C0.932924 22.2168 0 23.1497 0 24.3005C0 25.4512 0.932924 26.3841 2.08366 26.3841H2.86753C3.94687 30.47 5.02815 34.5555 6.11179 38.6403C7.42658 43.5961 10.8631 47.4048 15.3221 49.2288L13.396 51.6033C12.671 52.4971 12.808 53.8092 13.7016 54.5342C14.0876 54.8473 14.5517 54.9997 15.0129 54.9997C15.6192 54.9997 16.2206 54.7362 16.6323 54.2286L19.7924 50.3329C20.3272 50.3855 20.8688 50.4157 21.4179 50.4157H49.7111C50.2655 50.4157 50.8123 50.385 51.3521 50.3313L54.5135 54.2288C54.9254 54.7363 55.5266 54.9998 56.1329 54.9998C56.5941 54.9998 57.0584 54.8475 57.4443 54.5344C58.338 53.8094 58.4748 52.4972 57.7499 51.6035L55.8196 49.2239C60.274 47.3974 63.7059 43.5894 65.0186 38.6358C66.1892 34.2171 67.2591 30.1921 68.275 26.3843H69.0397C70.1904 26.3843 71.1234 25.4513 71.1234 24.3006C71.1234 23.1499 70.1907 22.2168 69.04 22.2168Z" fill="#CFBBA7"/>
</svg>
