<svg width="70" height="55" viewBox="0 0 70 55" fill="none" xmlns="http://www.w3.org/2000/svg">
<path d="M62.4994 23.5469C60.9233 22.855 59.2206 22.4985 57.4994 22.5H12.4999C10.7788 22.4983 9.07618 22.8543 7.49992 23.5453C5.27214 24.5195 3.37643 26.1217 2.0445 28.1559C0.712575 30.1902 0.0021288 32.5684 0 34.9999V52.4997C0 53.1627 0.263389 53.7986 0.732226 54.2675C1.20106 54.7363 1.83694 54.9997 2.49997 54.9997C3.16301 54.9997 3.79889 54.7363 4.26772 54.2675C4.73656 53.7986 4.99995 53.1627 4.99995 52.4997V51.2497C5.004 50.9195 5.137 50.6039 5.37054 50.3703C5.60409 50.1368 5.91968 50.0038 6.24994 49.9997H63.7494C64.0796 50.0038 64.3952 50.1368 64.6287 50.3703C64.8623 50.6039 64.9953 50.9195 64.9993 51.2497V52.4997C64.9993 53.1627 65.2627 53.7986 65.7316 54.2675C66.2004 54.7363 66.8363 54.9997 67.4993 54.9997C68.1624 54.9997 68.7982 54.7363 69.2671 54.2675C69.7359 53.7986 69.9993 53.1627 69.9993 52.4997V34.9999C69.9969 32.5687 69.2863 30.1908 67.9544 28.1568C66.6225 26.1229 64.7269 24.521 62.4994 23.5469Z" fill="#CFBBA7"/>
<path d="M53.7515 0H16.2519C13.9312 0 11.7057 0.921863 10.0647 2.56279C8.42382 4.20372 7.50195 6.42929 7.50195 8.74991V19.9998C7.50202 20.0966 7.5246 20.1922 7.56791 20.2788C7.61121 20.3654 7.67405 20.4408 7.75148 20.499C7.82891 20.5572 7.9188 20.5966 8.01406 20.6141C8.10931 20.6315 8.20733 20.6267 8.30038 20.5998C9.66515 20.2006 11.08 19.9986 12.5019 19.9998H13.1628C13.3171 20.0008 13.4663 19.9447 13.5817 19.8423C13.697 19.7399 13.7705 19.5984 13.7878 19.4451C13.9242 18.2235 14.5057 17.095 15.4214 16.275C16.3371 15.4551 17.5227 15.0011 18.7518 14.9998H27.5018C28.7317 14.9999 29.9185 15.4534 30.8351 16.2735C31.7518 17.0936 32.334 18.2227 32.4705 19.4451C32.4878 19.5984 32.5612 19.7399 32.6766 19.8423C32.792 19.9447 32.9412 20.0008 33.0954 19.9998H36.9173C37.0716 20.0008 37.2207 19.9447 37.3361 19.8423C37.4515 19.7399 37.5249 19.5984 37.5423 19.4451C37.6785 18.2244 38.2594 17.0965 39.1741 16.2766C40.0888 15.4567 41.2733 15.0022 42.5016 14.9998H51.2515C52.4815 14.9999 53.6682 15.4534 54.5849 16.2735C55.5016 17.0936 56.0838 18.2227 56.2202 19.4451C56.2376 19.5984 56.311 19.7399 56.4264 19.8423C56.5418 19.9447 56.6909 20.0008 56.8452 19.9998H57.5015C58.9235 19.9991 60.3383 20.2017 61.703 20.6014C61.7962 20.6283 61.8943 20.6331 61.9897 20.6155C62.0851 20.598 62.175 20.5584 62.2525 20.5001C62.33 20.4417 62.3928 20.3661 62.436 20.2793C62.4792 20.1925 62.5016 20.0968 62.5014 19.9998V8.74991C62.5014 6.42929 61.5795 4.20372 59.9386 2.56279C58.2977 0.921863 56.0721 0 53.7515 0Z" fill="#CFBBA7"/>
</svg>
