<svg width="74" height="55" viewBox="0 0 74 55" fill="none" xmlns="http://www.w3.org/2000/svg">
<path d="M43.6232 51.4855L40.3996 49.3466C40.1898 49.2066 40.0179 49.0169 39.8992 48.7943C39.7806 48.5717 39.7189 48.3232 39.7197 48.0709V29.0273H33.6087V48.0709C33.6087 48.3224 33.5467 48.57 33.4281 48.7917C33.3095 49.0134 33.138 49.2025 32.9288 49.342L29.7052 51.4855C29.4961 51.625 29.3246 51.8141 29.206 52.0358C29.0874 52.2575 29.0254 52.5051 29.0254 52.7566V53.4716C29.0254 53.8768 29.1863 54.2654 29.4729 54.5519C29.7594 54.8384 30.148 54.9993 30.5532 54.9993H42.7753C43.1805 54.9993 43.569 54.8384 43.8556 54.5519C44.1421 54.2654 44.303 53.8768 44.303 53.4716V52.7612C44.3038 52.5089 44.2422 52.2604 44.1235 52.0378C44.0049 51.8152 43.833 51.6255 43.6232 51.4855Z" fill="#CFBBA7"/>
<path d="M56.5274 19.8613H15.2778C14.434 19.8613 13.75 20.5453 13.75 21.3891V24.4446C13.75 25.2884 14.434 25.9724 15.2778 25.9724H56.5274C57.3712 25.9724 58.0552 25.2884 58.0552 24.4446V21.3891C58.0552 20.5453 57.3712 19.8613 56.5274 19.8613Z" fill="#CFBBA7"/>
<path d="M38.1932 4.66579V3.05553H39.721C40.1262 3.05553 40.5148 2.89457 40.8013 2.60806C41.0878 2.32154 41.2487 1.93295 41.2487 1.52776C41.2487 1.12258 41.0878 0.733983 40.8013 0.447472C40.5148 0.160961 40.1262 0 39.721 0H33.6099C33.2047 0 32.8161 0.160961 32.5296 0.447472C32.2431 0.733983 32.0822 1.12258 32.0822 1.52776C32.0822 1.93295 32.2431 2.32154 32.5296 2.60806C32.8161 2.89457 33.2047 3.05553 33.6099 3.05553H35.1377V4.66579C31.8965 4.99516 28.845 6.35005 26.427 8.53338C24.009 10.7167 22.3507 13.6146 21.6934 16.8054H51.6375C50.9802 13.6146 49.3219 10.7167 46.9039 8.53338C44.4859 6.35005 41.4344 4.99516 38.1932 4.66579ZM34.6794 10.9098C32.5764 11.3791 30.7047 12.5712 29.3902 14.2785C29.1437 14.6002 28.7794 14.8108 28.3776 14.8639C27.9758 14.9171 27.5693 14.8084 27.2475 14.5619C26.9258 14.3153 26.7152 13.9511 26.6621 13.5492C26.6089 13.1474 26.7176 12.7409 26.9641 12.4192C28.7171 10.1421 31.2132 8.55209 34.0178 7.92604C34.2137 7.8826 34.4163 7.87818 34.6139 7.91302C34.8115 7.94787 35.0004 8.02129 35.1696 8.12911C35.3389 8.23693 35.4852 8.37703 35.6003 8.54141C35.7154 8.70578 35.797 8.89122 35.8405 9.08714C35.8839 9.28305 35.8883 9.4856 35.8535 9.68323C35.8186 9.88085 35.7452 10.0697 35.6374 10.2389C35.5296 10.4082 35.3895 10.5545 35.2251 10.6696C35.0607 10.7847 34.8753 10.8663 34.6794 10.9098Z" fill="#CFBBA7"/>
<path d="M72.5672 16.3157C72.2811 15.9896 71.9286 15.7283 71.5334 15.5494C71.1382 15.3705 70.7093 15.2781 70.2755 15.2783H68.6271C67.9575 15.2818 67.3077 15.5052 66.7775 15.9139C66.2472 16.3227 65.8659 16.8944 65.6922 17.5409L61.7399 32.3022H52.3151C51.3012 32.3032 50.3164 32.6415 49.5159 33.2639C48.7154 33.8863 48.1447 34.7573 47.8938 35.7397L47.4584 37.4309C47.3418 37.8822 47.3301 38.3542 47.4241 38.8108C47.518 39.2674 47.7152 39.6964 48.0005 40.065C48.2859 40.4336 48.6517 40.7321 49.0701 40.9375C49.4886 41.143 49.9484 41.25 50.4146 41.2503H50.52L47.5699 53.1027C47.5214 53.2975 47.5119 53.5 47.5417 53.6985C47.5715 53.897 47.6402 54.0877 47.7438 54.2597C47.8474 54.4316 47.9838 54.5815 48.1453 54.7007C48.3069 54.8199 48.4903 54.9061 48.6851 54.9544C48.8059 54.9853 48.9302 55.0007 49.0549 55.0002C49.3957 55.0001 49.7266 54.8861 49.9952 54.6762C50.2637 54.4664 50.4543 54.1728 50.5368 53.8421L53.6641 41.2503H64.6228L67.4125 53.8039C67.4878 54.1427 67.6762 54.4457 67.9466 54.6631C68.2171 54.8806 68.5535 54.9994 68.9005 55.0002C69.0125 55 69.1242 54.9877 69.2336 54.9635C69.4295 54.9201 69.615 54.8386 69.7794 54.7235C69.9438 54.6084 70.0839 54.462 70.1917 54.2928C70.2995 54.1235 70.373 53.9347 70.4078 53.737C70.4426 53.5394 70.4382 53.3368 70.3947 53.1409L67.6997 41.0166C68.5238 40.754 69.2568 40.2636 69.814 39.6021C70.3712 38.9406 70.7298 38.1349 70.8484 37.2781L73.3051 18.7433C73.3626 18.3094 73.3266 17.8682 73.1993 17.4495C73.072 17.0307 72.8564 16.6441 72.5672 16.3157Z" fill="#CFBBA7"/>
<path d="M25.3296 40.0693C25.6168 39.7009 25.8154 39.2713 25.91 38.8137C26.0046 38.3562 25.9926 37.8831 25.875 37.4309L25.438 35.7412C25.1876 34.7588 24.6173 33.8877 23.817 33.2653C23.0168 32.6428 22.032 32.3045 21.0182 32.3037H11.5996L7.64723 17.5409C7.47315 16.8931 7.09071 16.3205 6.55893 15.9116C6.02715 15.5027 5.37557 15.2802 4.70475 15.2783H3.0456C2.61112 15.2797 2.18193 15.3738 1.78668 15.5542C1.39142 15.7346 1.03919 15.9973 0.753491 16.3246C0.467789 16.652 0.255184 17.0365 0.129863 17.4525C0.004541 17.8685 -0.0306155 18.3065 0.0267391 18.7372L2.48338 37.2781C2.60043 38.1352 2.95766 38.9417 3.51378 39.6044C4.06989 40.267 4.80218 40.7587 5.62599 41.0227L2.93102 53.1409C2.84309 53.5366 2.91595 53.951 3.13355 54.2929C3.35116 54.6349 3.69569 54.8764 4.09135 54.9643C4.48702 55.0522 4.90141 54.9794 5.24336 54.7617C5.58531 54.5441 5.82682 54.1996 5.91474 53.8039L8.70749 41.2503H19.6707L22.8042 53.8421C22.8868 54.1736 23.0782 54.4677 23.3476 54.6776C23.6171 54.8876 23.9491 55.0011 24.2907 55.0002C24.4154 55.0007 24.5396 54.9853 24.6604 54.9544C24.8551 54.9059 25.0384 54.8196 25.1998 54.7003C25.3611 54.5811 25.4974 54.4312 25.6008 54.2592C25.7042 54.0873 25.7728 53.8966 25.8025 53.6982C25.8323 53.4998 25.8226 53.2974 25.7741 53.1027L22.8164 41.2503H22.9233C23.3882 41.2515 23.847 41.1455 24.2643 40.9407C24.6816 40.7359 25.0461 40.4378 25.3296 40.0693Z" fill="#CFBBA7"/>
</svg>
