<svg width="55" height="55" viewBox="0 0 55 55" fill="none" xmlns="http://www.w3.org/2000/svg">
<path d="M48.4473 51.7773V37.5977H51.7773V34.375H3.22266V37.5977H6.55273V51.7773H0V55H55V51.7773H48.4473ZM12.998 51.7773H9.77539V37.5977H12.998V51.7773ZM19.4434 51.7773H16.2207V37.5977H19.4434V51.7773ZM25.8887 51.7773H22.666V37.5977H25.8887V51.7773ZM32.334 51.7773H29.1113V37.5977H32.334V51.7773ZM38.7793 51.7773H35.5566V37.5977H38.7793V51.7773ZM45.2246 51.7773H42.002V37.5977H45.2246V51.7773Z" fill="#CFBBA7"/>
<path d="M19.0234 8.33691H25.8891V31.1524H19.0234V8.33691Z" fill="#CFBBA7"/>
<path d="M29.1113 8.33691H35.977V31.1524H29.1113V8.33691Z" fill="#CFBBA7"/>
<path d="M15.7998 5.11425H39.1991V31.1523H44.3133V0H10.6855V31.1523H15.7998V5.11425Z" fill="#CFBBA7"/>
</svg>
