<svg width="55" height="55" viewBox="0 0 55 55" fill="none" xmlns="http://www.w3.org/2000/svg">
<path d="M0 54.9997H22.6554V42.0078H0V54.9997ZM4.95494 45.3722H17.8078V48.5933H4.95494V45.3722Z" fill="#CFBBA7"/>
<path d="M0 38.787H22.6554V26.0098H0V38.787ZM4.95494 29.4372H17.8078V32.6583H4.95494V29.4372Z" fill="#CFBBA7"/>
<path d="M25.877 55H54.9746V26.0098H25.877V55ZM45.2039 29.4372H48.425V32.7378H45.2039V29.4372ZM38.7616 29.4372H41.9827V32.7378H38.7616V29.4372ZM32.3193 29.4372H35.5404V32.7378H32.3193V29.4372ZM32.3193 35.6195H48.425V48.5578H32.3193V35.6195Z" fill="#CFBBA7"/>
<path d="M45.2039 7.42618V0H35.5404V7.43155L25.877 13.8737V19.5674H54.9746V13.8684L45.2039 7.42618Z" fill="#CFBBA7"/>
</svg>
