<svg width="64" height="55" viewBox="0 0 64 55" fill="none" xmlns="http://www.w3.org/2000/svg">
<path d="M23.3027 5.57796C22.9082 5.62456 22.5282 5.43409 22.312 5.10081C21.1412 3.29579 19.1084 2.10023 16.8019 2.10023H16.3201C12.6653 2.10023 9.7187 5.06091 9.72408 8.70415L9.7779 52.8996H10.8593C11.4187 52.8996 11.907 53.322 11.9428 53.8803C11.9821 54.492 11.4981 54.9999 10.895 54.9999H1.08582C0.52637 54.9999 0.0380651 54.5775 0.00222987 54.0192C-0.0370182 53.4075 0.446954 52.8996 1.05012 52.8996H7.67767L7.62385 8.70678C7.61846 3.89856 11.5068 0 16.3201 0H16.8019C19.8615 0 22.5562 1.5946 24.0982 3.99596C24.4885 4.60384 24.1585 5.47675 23.3027 5.57796ZM24.4152 7.61335C20.3618 7.61335 17.0644 10.9107 17.0644 14.9642V16.8019C17.0644 17.3821 17.5343 17.852 18.1145 17.852H30.7159C31.2961 17.852 31.766 17.3821 31.766 16.8019V14.9642C31.766 10.9107 28.4687 7.61335 24.4152 7.61335ZM49.8883 53.919C49.8602 52.9993 49.8779 51.03 49.8803 46.2059C49.8805 45.6257 49.4104 45.155 48.8302 45.155H28.0909C27.5107 45.155 27.0405 45.6257 27.0408 46.2059C27.0433 51.0306 27.061 52.9995 27.0329 53.9192C27.0148 54.5112 27.4902 55 28.0825 55H48.8387C49.431 54.9999 49.9063 54.511 49.8883 53.919ZM58.2985 36.4916H56.6892C54.0928 36.4916 51.9808 38.6036 51.9808 41.2V53.9497C51.9808 54.5299 52.4507 54.9999 53.0309 54.9999H58.2985C60.895 54.9999 63.007 52.8878 63.007 50.2914V41.2C63.007 38.6036 60.895 36.4916 58.2985 36.4916ZM20.2318 36.4916H18.6225C16.0261 36.4916 13.914 38.6036 13.914 41.2V50.2914C13.914 52.8878 16.0261 54.9999 18.6225 54.9999H23.8902C24.4703 54.9999 24.9403 54.5299 24.9403 53.9497V41.2C24.9403 38.6036 22.8282 36.4916 20.2318 36.4916ZM36.3603 24.0214H24.0004C20.8947 24.0214 18.377 26.5391 18.377 29.6448V33.3412C18.377 33.921 18.8466 34.3911 19.4264 34.3913C19.6407 34.3913 19.9046 34.3915 20.2308 34.3915C23.9915 34.3915 27.0405 37.4399 27.0405 41.2007V42.0048C27.0405 42.5847 27.5107 43.0549 28.0906 43.0549H36.3603C36.9402 43.0549 37.4104 42.5847 37.4104 42.0048V25.0717C37.4104 24.4916 36.9402 24.0214 36.3603 24.0214ZM52.6581 24.0214H40.5608C39.9808 24.0214 39.5106 24.4916 39.5106 25.0715V42.0047C39.5106 42.5846 39.9808 43.0548 40.5608 43.0548H48.8304C49.4104 43.0548 49.8806 42.5846 49.8806 42.0047V41.2C49.8806 37.449 52.9315 34.3913 56.6892 34.3913H57.2314C57.8113 34.3913 58.2815 33.9211 58.2815 33.3412V29.6448C58.2815 26.5391 55.7638 24.0214 52.6581 24.0214Z" fill="#CFBBA7"/>
</svg>
